# Blender 4.4.3
# www.blender.org
mtllib arrow.mtl
o Circle
v 0.000000 0.100000 0.000000
v -0.050000 0.086603 0.000000
v -0.086603 0.050000 0.000000
v -0.100000 0.000000 0.000000
v -0.086603 -0.050000 -0.000000
v -0.050000 -0.086603 -0.000000
v 0.000000 -0.100000 -0.000000
v 0.050000 -0.086603 -0.000000
v 0.086603 -0.050000 -0.000000
v 0.100000 0.000000 0.000000
v 0.086603 0.050000 0.000000
v 0.050000 0.086603 0.000000
v 0.000000 0.100000 2.000000
v -0.050000 0.086602 2.000000
v -0.086603 0.050000 2.000000
v -0.100000 -0.000000 2.000000
v -0.086603 -0.050000 2.000000
v -0.050000 -0.086603 2.000000
v 0.000000 -0.100000 2.000000
v 0.050000 -0.086603 2.000000
v 0.086603 -0.050000 2.000000
v 0.100000 -0.000000 2.000000
v 0.086603 0.050000 2.000000
v 0.050000 0.086602 2.000000
v 0.000000 0.200000 2.000000
v -0.100000 0.173205 2.000000
v -0.173205 0.100000 2.000000
v -0.200000 -0.000000 2.000000
v -0.173205 -0.100000 2.000000
v -0.100000 -0.173205 2.000000
v 0.000000 -0.200000 2.000000
v 0.100000 -0.173205 2.000000
v 0.173205 -0.100000 2.000000
v 0.200000 -0.000000 2.000000
v 0.173205 0.100000 2.000000
v 0.100000 0.173205 2.000000
v 0.000000 -0.000000 2.500000
vn 0.8660 0.5000 -0.0000
vn 1.0000 -0.0000 -0.0000
vn 0.5000 -0.8660 -0.0000
vn -0.0000 -1.0000 -0.0000
vn -0.8660 -0.5000 -0.0000
vn -1.0000 -0.0000 -0.0000
vn 0.5000 0.8660 -0.0000
vn -0.5000 0.8660 -0.0000
vn -0.0000 1.0000 -0.0000
vn 0.8660 -0.5000 -0.0000
vn -0.5000 -0.8660 -0.0000
vn -0.8660 0.5000 -0.0000
vn -0.0000 -0.0000 -1.0000
vn 0.4642 0.8041 0.3714
vn -0.0000 0.9285 0.3714
vn -0.0000 -0.0000 1.0000
vn 0.8041 0.4642 0.3714
vn 0.9285 -0.0000 0.3714
vn 0.8041 -0.4642 0.3714
vn 0.4642 -0.8041 0.3714
vn -0.0000 -0.9285 0.3714
vn -0.4642 -0.8041 0.3714
vn -0.8041 -0.4642 0.3714
vn -0.9285 -0.0000 0.3714
vn -0.8041 0.4642 0.3714
vn -0.4642 0.8041 0.3714
vt 0.518581 0.778239
vt 0.500000 0.034998
vt 0.518581 0.034998
vt 0.481419 0.778239
vt 0.481419 0.034998
vt 0.532183 0.034998
vt 0.532183 0.778239
vt 0.467817 0.034998
vt 0.500000 0.778239
vt 0.467817 0.778239
vt 0.308594 0.725202
vt 0.327175 0.683061
vt 0.308594 0.688040
vt 0.276410 0.669459
vt 0.271432 0.715244
vt 0.290013 0.683061
vt 0.382918 0.650878
vt 0.340777 0.632297
vt 0.345756 0.650878
vt 0.308594 0.576554
vt 0.290013 0.618694
vt 0.308594 0.613716
vt 0.234270 0.650878
vt 0.271432 0.650878
vt 0.372960 0.688040
vt 0.340777 0.669459
vt 0.345756 0.586511
vt 0.327175 0.618694
vt 0.244227 0.613716
vt 0.276410 0.632297
vt 0.717826 0.674724
vt 0.680664 0.674724
vt 0.680664 0.860534
vt 0.745031 0.674724
vt 0.643502 0.674724
vt 0.616297 0.674724
vt 0.345756 0.715244
vt 0.244227 0.688040
vt 0.372960 0.613716
vt 0.271432 0.586511
s 1
f 23/1/1 10/2/2 11/3/1
f 20/1/3 7/2/4 8/3/3
f 17/4/5 4/2/6 5/5/5
f 24/1/7 11/6/1 12/3/7
f 14/4/8 1/2/9 2/5/8
f 21/7/10 8/3/3 9/6/10
f 18/4/11 5/8/5 6/5/11
f 13/9/9 12/3/7 1/2/9
f 15/10/12 2/5/8 3/8/12
f 22/9/2 9/5/10 10/2/2
f 19/9/4 6/5/11 7/2/4
f 16/9/6 3/3/12 4/2/6
f 25/11/13 24/12/13 13/13/13
f 15/14/13 26/15/13 14/16/13
f 34/17/13 21/18/13 22/19/13
f 31/20/13 18/21/13 19/22/13
f 28/23/13 15/14/13 16/24/13
f 35/25/13 22/19/13 23/26/13
f 32/27/13 19/22/13 20/28/13
f 29/29/13 16/24/13 17/30/13
f 24/12/13 35/25/13 23/26/13
f 26/15/13 13/13/13 14/16/13
f 21/18/13 32/27/13 20/28/13
f 18/21/13 29/29/13 17/30/13
f 36/31/14 25/32/15 37/33/16
f 35/34/17 36/31/14 37/33/16
f 34/32/18 35/31/17 37/33/16
f 33/35/19 34/32/18 37/33/16
f 32/31/20 33/34/19 37/33/16
f 31/32/21 32/31/20 37/33/16
f 30/35/22 31/32/21 37/33/16
f 29/36/23 30/35/22 37/33/16
f 28/32/24 29/35/23 37/33/16
f 27/31/25 28/32/24 37/33/16
f 26/35/26 27/36/25 37/33/16
f 25/32/15 26/35/26 37/33/16
f 11/26/13 7/22/13 3/14/13
f 23/1/1 22/9/2 10/2/2
f 20/1/3 19/9/4 7/2/4
f 17/4/5 16/9/6 4/2/6
f 24/1/7 23/7/1 11/6/1
f 14/4/8 13/9/9 1/2/9
f 21/7/10 20/1/3 8/3/3
f 18/4/11 17/10/5 5/8/5
f 13/9/9 24/1/7 12/3/7
f 15/10/12 14/4/8 2/5/8
f 22/9/2 21/4/10 9/5/10
f 19/9/4 18/4/11 6/5/11
f 16/9/6 15/1/12 3/3/12
f 25/11/13 36/37/13 24/12/13
f 15/14/13 27/38/13 26/15/13
f 34/17/13 33/39/13 21/18/13
f 31/20/13 30/40/13 18/21/13
f 28/23/13 27/38/13 15/14/13
f 35/25/13 34/17/13 22/19/13
f 32/27/13 31/20/13 19/22/13
f 29/29/13 28/23/13 16/24/13
f 24/12/13 36/37/13 35/25/13
f 26/15/13 25/11/13 13/13/13
f 21/18/13 33/39/13 32/27/13
f 18/21/13 30/40/13 29/29/13
f 3/14/13 2/16/13 1/13/13
f 1/13/13 12/12/13 11/26/13
f 11/26/13 10/19/13 9/18/13
f 9/18/13 8/28/13 7/22/13
f 7/22/13 6/21/13 5/30/13
f 5/30/13 4/24/13 3/14/13
f 3/14/13 1/13/13 11/26/13
f 11/26/13 9/18/13 7/22/13
f 7/22/13 5/30/13 3/14/13
