# Blender 4.4.3
# www.blender.org
mtllib asteroid_1.mtl
o asteroid_01.009
v 0.014525 0.377379 -0.399983
v 0.014525 0.005212 -0.442366
v 0.014525 -0.447784 -0.491247
v 0.353809 0.387415 -0.382276
v 0.393539 0.005212 -0.393538
v 0.488743 -0.619523 -0.488742
v 0.399983 0.377379 -0.014524
v 0.442367 0.005212 -0.014524
v 0.491248 -0.447783 -0.014524
v 0.384745 0.499693 0.355697
v 0.479743 0.005212 0.450695
v 0.318500 -0.406298 0.289451
v 0.014525 -0.882803 -0.014524
v 0.014525 0.458207 0.462200
v 0.014525 0.005212 0.873491
v 0.014525 -0.528612 0.553465
v 0.014525 0.433054 -0.014524
v -0.185452 0.286468 0.185453
v -0.536899 0.005212 0.536900
v -0.222393 -0.322311 0.222394
v -0.462199 0.458207 -0.014524
v -0.873490 0.005212 -0.014524
v -0.553464 -0.528612 -0.014524
v -0.355696 0.499693 -0.384744
v -0.450694 0.005212 -0.479743
v -0.289451 -0.406299 -0.318499
vn -0.2552 -0.7142 -0.6517
vn 0.1277 0.0425 -0.9909
vn 0.0631 0.1597 -0.9851
vn -0.0218 0.9895 -0.1429
vn 0.6517 -0.7142 0.2552
vn 0.9855 0.1122 -0.1270
vn 0.9851 0.1597 -0.0631
vn 0.1430 0.9897 0.0091
vn 0.6068 -0.6649 0.4356
vn 0.9904 0.1128 -0.0796
vn 0.8710 0.0940 0.4822
vn 0.1361 0.9423 -0.3057
vn 0.6252 -0.6623 0.4130
vn 0.5582 0.5577 0.6143
vn 0.6769 -0.4829 0.5556
vn -0.1260 0.9906 -0.0523
vn -0.6173 0.7856 -0.0415
vn -0.8283 -0.4754 0.2965
vn -0.4118 0.6126 0.6747
vn -0.8547 -0.2669 0.4453
vn -0.4453 -0.2669 0.8547
vn 0.0415 0.7856 0.6173
vn -0.2965 -0.4754 0.8283
vn -0.6747 0.6126 0.4118
vn -0.5556 -0.4829 -0.6769
vn 0.0523 0.9906 0.1260
vn -0.4130 -0.6623 -0.6252
vn -0.6143 0.5577 -0.5582
vn -0.4822 0.0940 -0.8710
vn 0.3057 0.9423 -0.1361
vn -0.4356 -0.6649 -0.6068
vn 0.0796 0.1128 -0.9904
vn 0.0484 0.1130 -0.9924
vn 0.1270 0.1064 -0.9862
vn 0.9870 0.1062 -0.1210
vn 0.9862 0.1064 -0.1270
vn 0.9826 0.1848 -0.0206
vn 0.9381 -0.3380 -0.0754
vn 0.2455 0.2282 0.9422
vn 0.6148 -0.4055 0.6765
vn -0.6362 0.7713 -0.0189
vn -0.3146 -0.7971 0.5154
vn -0.5154 -0.7971 0.3146
vn 0.0189 0.7713 0.6362
vn -0.6765 -0.4055 -0.6148
vn -0.9422 0.2282 -0.2455
vn 0.0754 -0.3380 -0.9381
vn 0.0206 0.1848 -0.9826
vt 0.463138 0.557084
vt 0.615422 0.639590
vt 0.526216 0.723501
vt 0.477455 0.128251
vt 0.653944 0.280535
vt 0.477455 0.306663
vt 0.346056 0.154379
vt 0.346056 0.280535
vt 0.002095 0.754865
vt 0.154379 0.718702
vt 0.091301 0.838776
vt 0.400060 0.723501
vt 0.685826 0.369741
vt 0.522545 0.432819
vt 0.552344 0.838776
vt 0.217457 0.838776
vt 0.310854 0.639590
vt 0.875808 0.760053
vt 0.751012 0.563166
vt 0.927500 0.589294
vt 0.796101 0.437010
vt 0.920897 0.455485
vt 0.306663 0.754865
vt 0.310854 0.520922
vt 0.658099 0.760053
vt 0.619613 0.589294
vt 0.165377 0.002095
vt 0.033978 0.154379
vt 0.002095 0.065174
vt 0.306663 0.636197
vt 0.217457 0.552285
vt 0.400060 0.437010
vt 0.341866 0.154379
vt 0.210466 0.306663
vt 0.210466 0.128252
vt 0.033978 0.280535
vt 0.165377 0.432819
vt 0.002095 0.369741
vt 0.091301 0.552285
vt 0.526216 0.437010
vt 0.243585 0.437010
vt 0.065174 0.437010
vt 0.741710 0.325138
vt 0.866506 0.128252
vt 0.866505 0.306663
vt 0.002096 0.636197
vt 0.615422 0.520922
vt 0.696621 0.020571
vt 0.690017 0.154379
vt 0.997905 0.154379
vt 0.959419 0.325138
vt 0.522545 0.002095
vt 0.653944 0.154379
vt 0.373932 0.838776
vt 0.751012 0.741578
vt 0.341866 0.280535
vt 0.821416 0.002095
vt 0.685826 0.065174
s 0
usemtl asteroid.001
f 13/1/1 3/2/1 6/3/1
f 2/4/2 4/5/2 5/6/2
f 3/7/3 5/6/3 6/8/3
f 1/9/4 17/10/4 4/11/4
f 13/1/5 6/3/5 9/12/5
f 5/6/6 7/13/6 8/14/6
f 5/15/7 9/12/7 6/3/7
f 4/11/8 17/10/8 7/16/8
f 13/1/9 9/12/9 12/17/9
f 7/18/10 11/19/10 8/20/10
f 8/20/11 12/21/11 9/22/11
f 7/16/12 17/10/12 10/23/12
f 13/1/13 12/17/13 16/24/13
f 11/19/14 14/25/14 15/26/14
f 11/27/15 16/28/15 12/29/15
f 10/23/16 17/10/16 14/30/16
f 14/30/17 17/10/17 18/31/17
f 13/1/18 16/24/18 20/32/18
f 14/33/19 19/34/19 15/35/19
f 15/35/20 20/36/20 16/28/20
f 20/36/21 22/37/21 23/38/21
f 18/31/22 17/10/22 21/39/22
f 13/1/23 20/32/23 23/40/23
f 19/41/24 21/39/24 22/42/24
f 23/43/25 25/44/25 26/45/25
f 21/39/26 17/10/26 24/46/26
f 13/1/27 23/40/27 26/47/27
f 21/48/28 25/44/28 22/49/28
f 26/45/29 2/50/29 3/51/29
f 24/46/30 17/10/30 1/9/30
f 13/1/31 26/47/31 3/2/31
f 25/52/32 1/53/32 2/4/32
f 2/4/33 1/53/33 4/5/33
f 3/7/34 2/4/34 5/6/34
f 5/6/35 4/5/35 7/13/35
f 5/15/36 8/54/36 9/12/36
f 7/18/37 10/55/37 11/19/37
f 8/20/38 11/19/38 12/21/38
f 11/19/39 10/55/39 14/25/39
f 11/27/40 15/35/40 16/28/40
f 14/33/41 18/56/41 19/34/41
f 15/35/42 19/34/42 20/36/42
f 20/36/43 19/34/43 22/37/43
f 19/41/44 18/31/44 21/39/44
f 23/43/45 22/49/45 25/44/45
f 21/48/46 24/57/46 25/44/46
f 26/45/47 25/44/47 2/50/47
f 25/52/48 24/58/48 1/53/48
