# Blender 4.4.3
# www.blender.org
mtllib asteroid_3.mtl
o asteroid_01.007
v 0.868649 0.337491 -1.010497
v -0.005262 -0.033866 -1.186939
v -0.749845 -0.350267 -0.851832
v 0.963051 -0.243965 -0.614876
v 0.311139 -0.778449 -0.851832
v -0.526115 -0.876767 -0.614876
v 1.055722 -0.462048 -0.042812
v 0.442197 -1.086865 -0.042812
v -0.433444 -1.094850 -0.042812
v 1.206345 -0.311813 0.686846
v 0.311139 -0.778449 0.766208
v -0.529480 -0.882996 0.533669
v -1.058261 -0.481324 -0.042812
v 1.012148 0.398469 1.100921
v -0.005262 -0.033866 1.204589
v -0.749845 -0.350267 0.766208
v 1.742632 0.708879 -0.042812
v 0.729566 1.205220 0.810198
v -0.362996 0.807987 0.871895
v -1.427149 0.302723 0.823056
v 0.422920 1.027118 -0.042812
v -0.452720 1.019133 -0.042812
v -1.173793 0.445494 -0.042812
v 0.515592 0.809034 -0.614876
v -0.321663 0.710717 -0.851832
v -1.116174 0.216000 -0.707246
vn -0.8606 -0.5070 -0.0480
vn -0.5535 -0.3209 -0.7685
vn -0.4032 -0.7465 -0.5294
vn -0.0381 -0.0162 -0.9991
vn 0.6787 -0.4691 -0.5651
vn 0.2765 -0.6508 -0.7071
vn 0.4208 0.1788 -0.8893
vn 0.9209 0.3590 -0.1521
vn -0.3157 -0.9488 -0.0040
vn 0.3911 -0.9204 -0.0000
vn 0.7432 -0.6575 -0.1238
vn -0.4023 -0.7466 0.5298
vn 0.1981 -0.7360 0.6473
vn 0.6930 -0.5571 0.4576
vn -0.4804 -0.4421 0.7575
vn -0.1405 -0.1374 0.9805
vn 0.4663 0.0804 0.8810
vn 0.1564 0.8737 0.4607
vn -0.8158 0.1777 0.5504
vn -0.3292 0.6741 0.6612
vn -0.8569 0.4898 -0.1607
vn 0.0301 0.9772 -0.2100
vn -0.3366 0.9391 -0.0690
vn -0.2248 0.6601 -0.7167
vn -0.7845 0.1926 -0.5895
vn 0.1333 0.8142 -0.5651
vt 0.463138 0.557084
vt 0.615422 0.639590
vt 0.526216 0.723501
vt 0.477455 0.128251
vt 0.653944 0.280535
vt 0.477455 0.306663
vt 0.346056 0.154379
vt 0.346056 0.280535
vt 0.002095 0.754865
vt 0.154379 0.718702
vt 0.091301 0.838776
vt 0.400060 0.723501
vt 0.522545 0.432819
vt 0.552344 0.838776
vt 0.217457 0.838776
vt 0.310854 0.639590
vt 0.875808 0.760053
vt 0.751012 0.563166
vt 0.927500 0.589294
vt 0.920897 0.455485
vt 0.796101 0.437010
vt 0.306663 0.754865
vt 0.310854 0.520922
vt 0.751012 0.741578
vt 0.619613 0.589294
vt 0.165377 0.002095
vt 0.033978 0.154379
vt 0.002095 0.065174
vt 0.306663 0.636197
vt 0.217457 0.552285
vt 0.400060 0.437010
vt 0.341866 0.154379
vt 0.210466 0.306663
vt 0.210466 0.128252
vt 0.033978 0.280535
vt 0.002095 0.369741
vt 0.091301 0.552285
vt 0.526216 0.437010
vt 0.243585 0.437010
vt 0.065174 0.437010
vt 0.741710 0.325138
vt 0.866506 0.128252
vt 0.866505 0.306663
vt 0.002096 0.636197
vt 0.615422 0.520922
vt 0.690017 0.154379
vt 0.821416 0.002095
vt 0.959419 0.325138
vt 0.685826 0.065174
vt 0.522545 0.002095
vt 0.653944 0.154379
vt 0.685826 0.369741
vt 0.373932 0.838776
vt 0.658099 0.760053
vt 0.341866 0.280535
vt 0.165377 0.432819
vt 0.696621 0.020571
vt 0.997905 0.154379
s 1
usemtl asteroid.001
f 13/1/1 3/2/2 6/3/3
f 2/4/4 4/5/5 5/6/6
f 3/7/2 5/6/6 6/8/3
f 1/9/7 17/10/8 4/11/5
f 13/1/1 6/3/3 9/12/9
f 4/5/5 8/13/10 5/6/6
f 5/14/6 9/12/9 6/3/3
f 4/11/5 17/10/8 7/15/11
f 13/1/1 9/12/9 12/16/12
f 7/17/11 11/18/13 8/19/10
f 9/20/9 11/18/13 12/21/12
f 7/15/11 17/10/8 10/22/14
f 13/1/1 12/16/12 16/23/15
f 10/24/14 15/25/16 11/18/13
f 11/26/13 16/27/15 12/28/12
f 10/22/14 17/10/8 14/29/17
f 14/29/17 17/10/8 18/30/18
f 13/1/1 16/23/15 20/31/19
f 14/32/17 19/33/20 15/34/16
f 16/27/15 19/33/20 20/35/19
f 19/33/20 23/36/21 20/35/19
f 18/30/18 17/10/8 21/37/22
f 13/1/1 20/31/19 23/38/21
f 19/39/20 21/37/22 22/40/23
f 23/41/21 25/42/24 26/43/25
f 21/37/22 17/10/8 24/44/26
f 13/1/1 23/38/21 26/45/25
f 22/46/23 24/47/26 25/42/24
f 25/42/24 3/48/2 26/43/25
f 24/44/26 17/10/8 1/9/7
f 13/1/1 26/45/25 3/2/2
f 24/49/26 2/4/4 25/50/24
f 2/4/4 1/51/7 4/5/5
f 3/7/2 2/4/4 5/6/6
f 4/5/5 7/52/11 8/13/10
f 5/14/6 8/53/10 9/12/9
f 7/17/11 10/24/14 11/18/13
f 9/20/9 8/19/10 11/18/13
f 10/24/14 14/54/17 15/25/16
f 11/26/13 15/34/16 16/27/15
f 14/32/17 18/55/18 19/33/20
f 16/27/15 15/34/16 19/33/20
f 19/33/20 22/56/23 23/36/21
f 19/39/20 18/30/18 21/37/22
f 23/41/21 22/46/23 25/42/24
f 22/46/23 21/57/22 24/47/26
f 25/42/24 2/58/4 3/48/2
f 24/49/26 1/51/7 2/4/4
