# Blender 4.4.3
# www.blender.org
mtllib asteroid_2.mtl
o asteroid_01.008
v -0.008769 0.658517 -0.772266
v -0.008769 -0.032857 -0.963190
v -0.008769 -0.591835 -0.622774
v 0.526696 0.691570 -0.587796
v 0.570304 -0.032857 -0.631404
v 0.403343 -0.602790 -0.464443
v 0.862828 0.792836 -0.052332
v 0.907736 -0.032857 -0.052331
v 0.696018 -0.710816 -0.052331
v 0.612387 0.798895 0.568824
v 0.766438 -0.032857 0.722875
v 0.554545 -0.792165 0.510983
v -0.008769 -0.856295 -0.052331
v -0.008769 0.683469 0.695776
v -0.008769 -0.032857 1.054346
v -0.008769 -0.767706 0.716691
v -0.008769 1.186229 -0.052332
v -0.541055 0.687589 0.479954
v -0.822942 -0.032857 0.761842
v -0.523209 -0.730952 0.462109
v -0.785490 0.708810 -0.052331
v -1.047539 -0.032857 -0.052331
v -0.630548 -0.637301 -0.052331
v -0.519653 0.660784 -0.563215
v -0.602076 -0.032857 -0.645639
v -0.377174 -0.548049 -0.420737
vn 0.1362 -0.8988 -0.4167
vn 0.4835 0.2330 -0.8438
vn 0.3274 -0.3527 -0.8766
vn 0.1521 0.7972 -0.5843
vn 0.1877 -0.9092 -0.3716
vn 0.8611 0.0820 -0.5018
vn 0.7614 -0.2378 -0.6031
vn 0.3778 0.8371 -0.3955
vn 0.2013 -0.9754 -0.0903
vn 0.9617 0.2106 0.1753
vn 0.9366 -0.2925 0.1930
vn 0.4064 0.9004 0.1551
vn -0.0013 -0.9934 0.1144
vn 0.3571 0.4181 0.8352
vn 0.3104 -0.3349 0.8897
vn -0.0402 0.8293 0.5573
vn -0.2146 0.8106 0.5448
vn -0.1266 -0.9854 0.1135
vn -0.3024 0.4476 0.8416
vn -0.4324 -0.3765 0.8193
vn -0.8212 -0.5665 0.0682
vn -0.5050 0.8216 0.2646
vn -0.3305 -0.9383 -0.1019
vn -0.8686 0.4336 0.2396
vn -0.6368 -0.5246 -0.5650
vn -0.4939 0.8035 -0.3325
vn -0.3021 -0.8579 -0.4156
vn -0.7696 0.2719 -0.5778
vn -0.4582 -0.5160 -0.7237
vn -0.2318 0.7846 -0.5751
vn -0.3206 -0.8593 -0.3984
vn -0.4585 0.2366 -0.8566
vn 0.3206 0.0761 -0.9442
vn 0.4395 -0.4672 -0.7672
vn 0.8421 0.0458 -0.5373
vn 0.8020 -0.3719 -0.4674
vn 0.9264 0.0504 0.3730
vn 0.9357 -0.3087 0.1706
vn 0.1586 0.2081 0.9652
vn 0.3622 -0.3892 0.8470
vn -0.3380 0.4213 0.8416
vn -0.2964 -0.4814 0.8249
vn -0.8524 -0.4670 0.2352
vn -0.8610 0.3042 0.4075
vn -0.7002 -0.4831 -0.5257
vn -0.8696 0.1589 -0.4674
vn -0.4157 -0.4731 -0.7768
vn -0.3737 0.1531 -0.9148
vt 0.463138 0.557084
vt 0.615422 0.639590
vt 0.526216 0.723501
vt 0.653944 0.154379
vt 0.477455 0.306663
vt 0.477455 0.128251
vt 0.346056 0.154379
vt 0.346056 0.280535
vt 0.002095 0.754865
vt 0.154379 0.718702
vt 0.091301 0.838776
vt 0.400060 0.723501
vt 0.653944 0.280535
vt 0.522545 0.432819
vt 0.373932 0.838776
vt 0.217457 0.838776
vt 0.310854 0.639590
vt 0.927500 0.589294
vt 0.751012 0.741578
vt 0.751012 0.563166
vt 0.796101 0.437010
vt 0.920897 0.455485
vt 0.306663 0.754865
vt 0.310854 0.520922
vt 0.658099 0.760053
vt 0.619613 0.589294
vt 0.165377 0.002095
vt 0.033978 0.154379
vt 0.002095 0.065174
vt 0.306663 0.636197
vt 0.217457 0.552285
vt 0.400060 0.437010
vt 0.210466 0.128252
vt 0.341866 0.280535
vt 0.210466 0.306663
vt 0.033978 0.280535
vt 0.165377 0.432819
vt 0.002095 0.369741
vt 0.091301 0.552285
vt 0.526216 0.437010
vt 0.065174 0.437010
vt 0.243585 0.437010
vt 0.741710 0.325138
vt 0.866506 0.128252
vt 0.866505 0.306663
vt 0.002096 0.636197
vt 0.615422 0.520922
vt 0.696621 0.020571
vt 0.690017 0.154379
vt 0.959419 0.325138
vt 0.522545 0.002095
vt 0.685826 0.369741
vt 0.552344 0.838776
vt 0.875808 0.760053
vt 0.341866 0.154379
vt 0.821416 0.002095
vt 0.997905 0.154379
vt 0.685826 0.065174
s 0
usemtl asteroid.001
f 13/1/1 3/2/1 6/3/1
f 1/4/2 5/5/2 2/6/2
f 3/7/3 5/5/3 6/8/3
f 1/9/4 17/10/4 4/11/4
f 13/1/5 6/3/5 9/12/5
f 4/13/6 8/14/6 5/5/6
f 6/3/7 8/15/7 9/12/7
f 4/11/8 17/10/8 7/16/8
f 13/1/9 9/12/9 12/17/9
f 8/18/10 10/19/10 11/20/10
f 8/18/11 12/21/11 9/22/11
f 7/16/12 17/10/12 10/23/12
f 13/1/13 12/17/13 16/24/13
f 11/20/14 14/25/14 15/26/14
f 11/27/15 16/28/15 12/29/15
f 10/23/16 17/10/16 14/30/16
f 14/30/17 17/10/17 18/31/17
f 13/1/18 16/24/18 20/32/18
f 15/33/19 18/34/19 19/35/19
f 15/33/20 20/36/20 16/28/20
f 20/36/21 22/37/21 23/38/21
f 18/31/22 17/10/22 21/39/22
f 13/1/23 20/32/23 23/40/23
f 18/31/24 22/41/24 19/42/24
f 23/43/25 25/44/25 26/45/25
f 21/39/26 17/10/26 24/46/26
f 13/1/27 23/40/27 26/47/27
f 21/48/28 25/44/28 22/49/28
f 25/44/29 3/50/29 26/45/29
f 24/46/30 17/10/30 1/9/30
f 13/1/31 26/47/31 3/2/31
f 25/51/32 1/4/32 2/6/32
f 1/4/33 4/13/33 5/5/33
f 3/7/34 2/6/34 5/5/34
f 4/13/35 7/52/35 8/14/35
f 6/3/36 5/53/36 8/15/36
f 8/18/37 7/54/37 10/19/37
f 8/18/38 11/20/38 12/21/38
f 11/20/39 10/19/39 14/25/39
f 11/27/40 15/33/40 16/28/40
f 15/33/41 14/55/41 18/34/41
f 15/33/42 19/35/42 20/36/42
f 20/36/43 19/35/43 22/37/43
f 18/31/44 21/39/44 22/41/44
f 23/43/45 22/49/45 25/44/45
f 21/48/46 24/56/46 25/44/46
f 25/44/47 2/57/47 3/50/47
f 25/51/48 24/58/48 1/4/48
