# Blender 4.4.3
# www.blender.org
mtllib asteroid_4.mtl
o asteroid_01.006
v -0.028429 0.951147 -1.199907
v -0.028429 0.011165 -1.689443
v -0.028429 -0.864475 -1.139639
v 0.955509 1.193141 -1.019016
v 1.066136 0.011165 -1.129643
v 0.948796 -1.160676 -1.012303
v 1.338942 1.167378 -0.035078
v 1.752956 0.011165 -0.035078
v 1.219390 -1.017415 -0.035077
v 0.932188 1.157932 0.925539
v 1.220693 0.011165 1.214044
v 0.926638 -1.127221 0.919990
v -0.028429 -1.338124 -0.035077
v -0.028429 0.942580 1.121727
v -0.028429 0.011166 1.750183
v -0.028429 -0.967925 1.166385
v -0.028429 1.371723 -0.035078
v -0.980509 1.145043 0.917003
v -1.303395 0.011165 1.239889
v -1.001367 -1.154203 0.937860
v -1.078112 0.828218 -0.035078
v -1.762050 0.011165 -0.035078
v -1.293503 -1.035836 -0.035077
v -0.769056 0.825787 -0.775705
v -1.118221 0.011165 -1.124870
v -0.882121 -0.974164 -0.888770
vn -0.2216 -0.8962 -0.3843
vn 0.4131 0.4207 -0.8077
vn 0.0960 -0.1087 -0.9894
vn -0.1665 0.9274 -0.3349
vn 0.2483 -0.9659 0.0729
vn 0.8106 0.2903 -0.5086
vn 0.9611 -0.1211 -0.2484
vn 0.1477 0.9885 -0.0317
vn 0.2488 -0.9679 -0.0350
vn 0.8738 0.3129 0.3723
vn 0.9207 -0.3018 0.2475
vn 0.1474 0.9864 0.0721
vn -0.0831 -0.9524 0.2934
vn 0.3352 0.5270 0.7810
vn 0.1930 -0.2918 0.9368
vn -0.1378 0.9286 0.3445
vn 0.1236 0.9304 0.3451
vn 0.1131 -0.9495 0.2926
vn -0.3149 0.5309 0.7868
vn -0.1665 -0.2876 0.9432
vn -0.9227 -0.3014 0.2404
vn -0.4462 0.8618 -0.2410
vn -0.2321 -0.9715 -0.0485
vn -0.7392 0.6188 0.2659
vn -0.8486 -0.3066 -0.4311
vn -0.4513 0.8716 -0.1912
vn -0.2286 -0.9569 -0.1793
vn -0.6985 0.5847 -0.4126
vn -0.2374 -0.2798 -0.9302
vn -0.3335 0.8867 -0.3202
vn 0.0023 -0.9191 -0.3941
vn -0.3983 0.5003 -0.7688
vn 0.1544 0.1064 -0.9823
vn 0.3975 -0.4880 -0.7771
vn 0.9261 0.1202 -0.3577
vn 0.7755 -0.4023 -0.4866
vn 0.8733 0.3135 0.3729
vn 0.8303 -0.4307 0.3538
vn 0.1333 0.2732 0.9527
vn 0.3459 -0.4805 0.8059
vn -0.1372 0.3072 0.9417
vn -0.3251 -0.4843 0.8122
vn -0.8672 -0.3881 0.3120
vn -0.9612 0.2757 0.0068
vn -0.8034 -0.3595 -0.4746
vn -0.8043 0.4893 -0.3372
vn -0.4018 -0.4870 -0.7755
vn -0.5057 0.3985 -0.7652
vt 0.463138 0.557084
vt 0.615422 0.639590
vt 0.526216 0.723501
vt 0.653944 0.154379
vt 0.477455 0.306663
vt 0.477455 0.128251
vt 0.346056 0.154379
vt 0.346056 0.280535
vt 0.002095 0.754865
vt 0.154379 0.718702
vt 0.091301 0.838776
vt 0.400060 0.723501
vt 0.685826 0.369741
vt 0.522545 0.432819
vt 0.552344 0.838776
vt 0.217457 0.838776
vt 0.310854 0.639590
vt 0.875808 0.760053
vt 0.751012 0.563166
vt 0.927500 0.589294
vt 0.920897 0.455485
vt 0.796101 0.437010
vt 0.306663 0.754865
vt 0.310854 0.520922
vt 0.658099 0.760053
vt 0.619613 0.589294
vt 0.165377 0.002095
vt 0.033978 0.154379
vt 0.002095 0.065174
vt 0.306663 0.636197
vt 0.217457 0.552285
vt 0.400060 0.437010
vt 0.341866 0.154379
vt 0.210466 0.306663
vt 0.210466 0.128252
vt 0.033978 0.280535
vt 0.002095 0.369741
vt 0.091301 0.552285
vt 0.526216 0.437010
vt 0.243585 0.437010
vt 0.065174 0.437010
vt 0.741710 0.325138
vt 0.866506 0.128252
vt 0.866505 0.306663
vt 0.002096 0.636197
vt 0.615422 0.520922
vt 0.696621 0.020571
vt 0.690017 0.154379
vt 0.959419 0.325138
vt 0.685826 0.065174
vt 0.522545 0.002095
vt 0.653944 0.280535
vt 0.373932 0.838776
vt 0.751012 0.741578
vt 0.341866 0.280535
vt 0.165377 0.432819
vt 0.821416 0.002095
vt 0.997905 0.154379
s 0
usemtl asteroid.001
f 13/1/1 3/2/1 6/3/1
f 1/4/2 5/5/2 2/6/2
f 3/7/3 5/5/3 6/8/3
f 1/9/4 17/10/4 4/11/4
f 13/1/5 6/3/5 9/12/5
f 5/5/6 7/13/6 8/14/6
f 5/15/7 9/12/7 6/3/7
f 4/11/8 17/10/8 7/16/8
f 13/1/9 9/12/9 12/17/9
f 7/18/10 11/19/10 8/20/10
f 9/21/11 11/19/11 12/22/11
f 7/16/12 17/10/12 10/23/12
f 13/1/13 12/17/13 16/24/13
f 11/19/14 14/25/14 15/26/14
f 11/27/15 16/28/15 12/29/15
f 10/23/16 17/10/16 14/30/16
f 14/30/17 17/10/17 18/31/17
f 13/1/18 16/24/18 20/32/18
f 14/33/19 19/34/19 15/35/19
f 16/28/20 19/34/20 20/36/20
f 19/34/21 23/37/21 20/36/21
f 18/31/22 17/10/22 21/38/22
f 13/1/23 20/32/23 23/39/23
f 19/40/24 21/38/24 22/41/24
f 23/42/25 25/43/25 26/44/25
f 21/38/26 17/10/26 24/45/26
f 13/1/27 23/39/27 26/46/27
f 21/47/28 25/43/28 22/48/28
f 25/43/29 3/49/29 26/44/29
f 24/45/30 17/10/30 1/9/30
f 13/1/31 26/46/31 3/2/31
f 24/50/32 2/6/32 25/51/32
f 1/4/33 4/52/33 5/5/33
f 3/7/34 2/6/34 5/5/34
f 5/5/35 4/52/35 7/13/35
f 5/15/36 8/53/36 9/12/36
f 7/18/37 10/54/37 11/19/37
f 9/21/38 8/20/38 11/19/38
f 11/19/39 10/54/39 14/25/39
f 11/27/40 15/35/40 16/28/40
f 14/33/41 18/55/41 19/34/41
f 16/28/42 15/35/42 19/34/42
f 19/34/43 22/56/43 23/37/43
f 19/40/44 18/31/44 21/38/44
f 23/42/45 22/48/45 25/43/45
f 21/47/46 24/57/46 25/43/46
f 25/43/47 2/58/47 3/49/47
f 24/50/48 1/4/48 2/6/48
