# Blender 4.4.3
# www.blender.org
mtllib asteroid_5.mtl
o asteroid_01.005
v 0.003142 1.438112 -1.452410
v 0.003142 0.010346 -1.942694
v 0.003142 -1.438469 -1.476177
v 1.014926 1.383623 -0.971800
v 1.455603 0.010346 -1.412477
v 0.861588 -1.170878 -0.818461
v 1.486758 1.430339 0.039984
v 1.946813 0.010347 0.039985
v 1.059089 -1.030882 0.039985
v 0.896850 1.235736 0.933692
v 1.302217 0.010347 1.339059
v 1.142392 -1.522575 1.179235
v 0.003142 -1.616987 0.039985
v 0.003142 1.232214 1.299893
v 0.003142 0.010347 1.692373
v 0.003142 -1.406892 1.520491
v 0.003142 1.633023 0.039984
v -0.980348 1.348185 1.023474
v -1.132601 0.010347 1.175727
v -0.954081 -1.294593 0.997207
v -1.209409 1.190271 0.039984
v -1.932496 0.010347 0.039985
v -1.555531 -1.476119 0.039985
v -1.003970 1.377771 -0.967128
v -1.396925 0.010346 -1.360082
v -1.018209 -1.374911 -0.981366
vn 0.3707 -0.9224 -0.1086
vn 0.3171 0.3805 -0.8687
vn 0.6363 -0.2364 -0.7343
vn 0.1142 0.9851 -0.1287
vn 0.4851 -0.8739 0.0309
vn 0.8775 0.3768 -0.2968
vn 0.7592 -0.6472 -0.0691
vn 0.1346 0.9850 -0.1082
vn 0.4486 -0.8082 -0.3816
vn 0.8189 0.4053 0.4063
vn 0.9895 -0.0915 -0.1118
vn 0.1295 0.9477 0.2918
vn -0.0584 -0.9884 0.1403
vn 0.2432 0.3762 0.8941
vn 0.2727 -0.1278 0.9536
vn 0.1196 0.9461 0.3010
vn 0.0272 0.9526 0.3030
vn -0.1895 -0.9721 0.1380
vn -0.3974 0.2806 0.8737
vn -0.4865 -0.1052 0.8673
vn -0.8106 -0.2056 0.5483
vn -0.3421 0.9370 -0.0708
vn -0.0874 -0.9672 0.2384
vn -0.7310 0.4480 0.5148
vn -0.8549 -0.2168 -0.4713
vn -0.3411 0.9342 0.1043
vn -0.0891 -0.9855 -0.1445
vn -0.8106 0.4968 -0.3101
vn -0.4329 -0.2763 -0.8581
vn -0.1209 0.9843 -0.1286
vn -0.1176 -0.9862 -0.1161
vn -0.3596 0.3517 -0.8643
vn 0.4229 0.2943 -0.8570
vn 0.2882 -0.5419 -0.7895
vn 0.8650 0.2802 -0.4163
vn 0.7988 -0.5375 -0.2701
vn 0.7812 0.2531 0.5707
vn 0.7119 -0.6070 0.3532
vn 0.3625 0.2850 0.8873
vn 0.2607 -0.1162 0.9584
vn -0.2529 0.1378 0.9576
vn -0.4074 -0.1783 0.8957
vn -0.8031 -0.1872 0.5656
vn -0.9697 0.1336 0.2044
vn -0.8807 -0.3329 -0.3369
vn -0.9414 0.3092 -0.1345
vn -0.3618 -0.3366 -0.8694
vn -0.4292 0.2933 -0.8542
vt 0.463138 0.557084
vt 0.615422 0.639590
vt 0.526216 0.723501
vt 0.477455 0.128251
vt 0.653944 0.280535
vt 0.477455 0.306663
vt 0.346056 0.280535
vt 0.346056 0.154379
vt 0.002095 0.754865
vt 0.154379 0.718702
vt 0.091301 0.838776
vt 0.400060 0.723501
vt 0.522545 0.432819
vt 0.373932 0.838776
vt 0.217457 0.838776
vt 0.310854 0.639590
vt 0.927500 0.589294
vt 0.751012 0.741578
vt 0.751012 0.563166
vt 0.920897 0.455485
vt 0.796101 0.437010
vt 0.306663 0.754865
vt 0.310854 0.520922
vt 0.619613 0.589294
vt 0.165377 0.002095
vt 0.033978 0.154379
vt 0.002095 0.065174
vt 0.306663 0.636197
vt 0.217457 0.552285
vt 0.400060 0.437010
vt 0.341866 0.154379
vt 0.210466 0.306663
vt 0.210466 0.128252
vt 0.033978 0.280535
vt 0.165377 0.432819
vt 0.002095 0.369741
vt 0.091301 0.552285
vt 0.526216 0.437010
vt 0.243585 0.437010
vt 0.065174 0.437010
vt 0.690017 0.154379
vt 0.866505 0.306663
vt 0.741710 0.325138
vt 0.002096 0.636197
vt 0.615422 0.520922
vt 0.696621 0.020571
vt 0.866506 0.128252
vt 0.997905 0.154379
vt 0.959419 0.325138
vt 0.685826 0.065174
vt 0.522545 0.002095
vt 0.653944 0.154379
vt 0.685826 0.369741
vt 0.552344 0.838776
vt 0.875808 0.760053
vt 0.658099 0.760053
vt 0.341866 0.280535
vt 0.821416 0.002095
s 0
usemtl asteroid.001
f 13/1/1 3/2/1 6/3/1
f 2/4/2 4/5/2 5/6/2
f 2/4/3 6/7/3 3/8/3
f 1/9/4 17/10/4 4/11/4
f 13/1/5 6/3/5 9/12/5
f 4/5/6 8/13/6 5/6/6
f 6/3/7 8/14/7 9/12/7
f 4/11/8 17/10/8 7/15/8
f 13/1/9 9/12/9 12/16/9
f 8/17/10 10/18/10 11/19/10
f 9/20/11 11/19/11 12/21/11
f 7/15/12 17/10/12 10/22/12
f 13/1/13 12/16/13 16/23/13
f 10/18/14 15/24/14 11/19/14
f 11/25/15 16/26/15 12/27/15
f 10/22/16 17/10/16 14/28/16
f 14/28/17 17/10/17 18/29/17
f 13/1/18 16/23/18 20/30/18
f 14/31/19 19/32/19 15/33/19
f 15/33/20 20/34/20 16/26/20
f 20/34/21 22/35/21 23/36/21
f 18/29/22 17/10/22 21/37/22
f 13/1/23 20/30/23 23/38/23
f 19/39/24 21/37/24 22/40/24
f 22/41/25 26/42/25 23/43/25
f 21/37/26 17/10/26 24/44/26
f 13/1/27 23/38/27 26/45/27
f 21/46/28 25/47/28 22/41/28
f 26/42/29 2/48/29 3/49/29
f 24/44/30 17/10/30 1/9/30
f 13/1/31 26/45/31 3/2/31
f 24/50/32 2/4/32 25/51/32
f 2/4/33 1/52/33 4/5/33
f 2/4/34 5/6/34 6/7/34
f 4/5/35 7/53/35 8/13/35
f 6/3/36 5/54/36 8/14/36
f 8/17/37 7/55/37 10/18/37
f 9/20/38 8/17/38 11/19/38
f 10/18/39 14/56/39 15/24/39
f 11/25/40 15/33/40 16/26/40
f 14/31/41 18/57/41 19/32/41
f 15/33/42 19/32/42 20/34/42
f 20/34/43 19/32/43 22/35/43
f 19/39/44 18/29/44 21/37/44
f 22/41/45 25/47/45 26/42/45
f 21/46/46 24/58/46 25/47/46
f 26/42/47 25/47/47 2/48/47
f 24/50/48 1/52/48 2/4/48
