# Blender 4.4.3
# www.blender.org
mtllib cow.mtl
o Cow
v 0.798040 -0.885940 1.137985
v 0.590563 -0.836123 -2.209180
v 0.872155 -0.052373 1.110462
v 0.895011 0.305399 -1.510142
v 0.707658 1.505688 1.034765
v 0.774325 1.355731 -1.865623
v 0.942883 -0.941543 -0.056496
v 1.059423 -0.052373 -0.117580
v 0.833849 1.465804 -0.262031
v 0.419941 -0.812193 -2.979581
v 0.763814 1.411400 -2.977493
v 0.676062 1.543425 1.577507
v 0.920978 -0.187005 1.546222
v 0.613731 -1.122292 1.598065
v 0.746183 1.217226 -3.447376
v 0.646139 -0.187955 -3.393358
v 0.696161 0.372188 -3.423938
v 0.419997 1.896330 3.585106
v 0.478911 1.563804 2.279853
v 0.711895 0.087900 2.199091
v 0.621759 -0.957582 2.266129
v 0.415812 1.793442 2.969494
v 0.536838 0.665154 2.976018
v 0.375098 -1.016584 2.678678
v 0.424182 1.956628 3.877680
v 0.457008 1.337284 3.812380
v 0.397441 0.815173 3.928212
v 0.511171 1.768851 4.383124
v 0.502015 1.245583 4.233624
v 0.282058 0.487486 4.876748
v 0.351995 1.219534 4.764764
v 0.275650 0.758930 5.199601
v 0.278423 0.664001 5.256879
v 0.278423 0.376467 5.123219
v 1.030635 -0.806599 -2.284402
v 1.045357 0.424170 -1.738760
v 0.973643 0.863489 -1.958564
v 1.097162 -0.825848 -2.969249
v 1.009015 1.123652 -3.306680
v 1.124783 0.317714 -3.268829
v 0.962625 -0.199154 -3.311753
v 0.962625 0.337096 -3.344887
v 0.406626 0.492536 3.648187
v 0.885310 -1.420206 -2.596764
v 0.471914 -1.420206 -2.596764
v 0.443944 -1.397397 -3.155440
v 0.933358 -1.397397 -3.155440
v 0.897446 -1.622594 -2.725689
v 0.458539 -1.622594 -2.725689
v 0.428843 -1.646983 -3.179759
v 0.948458 -1.646983 -3.179759
v 0.844586 -3.088739 -2.445490
v 0.516796 -3.088739 -2.445490
v 0.494618 -3.088739 -2.725731
v 0.882683 -3.088739 -2.725731
v 0.557473 -2.726266 -2.887739
v 0.572467 -2.708015 -2.641415
v 0.794073 -2.708015 -2.641415
v 0.819829 -2.726266 -2.887739
v 0.535964 -2.861930 -2.801603
v 0.540595 -2.840451 -2.502161
v 0.820661 -2.840451 -2.502161
v 0.841338 -2.861930 -2.801603
v 0.791760 -1.102587 1.433568
v 0.998903 -1.072682 1.567370
v 0.989137 -0.424447 1.619804
v 1.014224 -0.937653 2.227788
v 1.003657 -0.286582 2.144047
v 0.617694 -2.129059 1.695016
v 0.971038 -2.129059 1.695016
v 0.936349 -2.106863 1.949693
v 0.637887 -2.106863 1.949693
v 0.564328 1.022701 2.250244
v 0.383195 -0.202936 3.093361
v 0.428044 -0.039979 2.941712
v 0.928913 -3.110864 2.156198
v 0.646083 -3.110864 2.156198
v 0.626947 -3.110864 1.862468
v 0.961785 -3.110864 1.862468
v 0.667604 -2.742400 1.765441
v 0.682093 -2.693748 2.043793
v 0.896239 -2.693748 2.043793
v 0.921128 -2.742400 1.765441
v 0.662622 -2.880307 1.828756
v 0.644906 -2.858473 2.098592
v 0.929981 -2.858473 2.098592
v 0.926110 -2.880307 1.828756
v 0.922105 -1.756820 2.015718
v 0.964794 -1.785496 1.678068
v 0.596486 -1.821880 1.642274
v 0.615928 -1.764121 2.015718
v 0.340359 0.654987 4.171230
v 0.230048 1.226803 4.768027
v 0.401881 1.845981 4.427663
v 0.639366 -3.030604 1.862260
v 0.645673 -3.023004 2.136145
v 0.929285 -3.023004 2.136145
v 0.949366 -3.030604 1.862260
v 0.511350 -2.996952 -2.725970
v 0.516244 -2.988259 -2.468423
v 0.845087 -2.988259 -2.468423
v 0.865951 -2.996952 -2.725970
v 0.496923 1.280801 3.628714
v 0.831426 0.333397 1.091720
v 0.782857 0.793423 1.069370
v 0.734795 1.128455 1.570005
v 0.995719 -0.538416 -0.084190
v 0.934365 -0.052373 0.702508
v 0.976436 0.128212 -0.820473
v 0.803804 1.410244 -1.071441
v 0.820107 -0.903546 -0.872898
v 0.882256 -0.106926 -0.837600
v 1.079093 0.378954 -2.388649
v 1.039287 -0.095374 -1.749381
v 0.782924 -0.013770 -1.558976
v 1.066445 -0.060673 -2.255366
v 0.757202 1.490029 0.525627
v 0.885834 0.241340 0.803142
v 0.444801 1.567598 3.836663
v 0.429774 1.851115 3.866555
v 0.453815 1.714822 3.881252
v 0.444872 1.744820 3.746288
v 0.574155 1.597534 3.839468
v 0.559585 1.847649 3.870062
v 0.539102 1.711605 3.863035
v 0.569461 1.753878 3.749198
v 0.768988 1.539817 3.826094
v 0.772950 1.911984 3.850918
v 0.714395 1.782994 3.819700
v 0.755191 1.772453 3.739646
v 0.940786 1.563761 3.830210
v 0.940265 1.866271 3.855301
v 0.806205 1.648030 3.800423
v 0.942600 1.751398 3.742833
v 1.044979 1.624496 3.832079
v 1.044459 1.810202 3.857169
v 0.720783 1.673335 3.806287
v 1.046793 1.736204 3.744701
v 1.117891 1.717703 3.842213
v 0.539561 -0.871688 -1.962286
v 0.635773 -0.914513 -1.276590
v 0.695942 -1.213092 -1.301741
v 0.599730 -1.170267 -1.987437
v 0.515088 -1.382984 -1.379500
v 0.444253 -1.351455 -1.884328
v 0.176957 1.569494 -3.047040
v 0.159026 1.584236 -3.441988
v 0.187539 1.507044 -3.675960
v 0.168077 1.254261 -3.778710
v 0.131055 0.354829 -3.769192
v 0.131055 -0.159413 -3.770600
v 0.218999 -0.410517 -3.764821
v 0.081994 -1.084479 -3.771337
v 0.613476 1.616611 3.840748
v 0.779354 1.567472 3.829361
v 0.601071 1.829556 3.866795
v 0.576069 1.713729 3.860812
v 0.782727 1.884329 3.850496
v 0.925177 1.845410 3.854227
v 1.013885 1.797673 3.855818
v 0.925620 1.587857 3.832866
v 1.076405 1.718922 3.843085
v 1.014329 1.639566 3.834456
v 0.695299 1.723347 3.816619
v 0.807942 1.811200 3.811306
v 0.814168 1.725542 3.790407
v 0.881298 1.791158 3.813228
v 0.926980 1.766575 3.814047
v 0.880480 1.724589 3.784937
v 0.881527 1.658527 3.802228
v 0.959176 1.726021 3.807490
v 0.926162 1.729034 3.797997
v 0.927209 1.685155 3.803047
v -0.000000 -1.051148 1.137985
v -0.000000 -0.903654 -2.181193
v -0.798040 -0.885940 1.137985
v -0.590563 -0.836123 -2.209180
v -0.872155 -0.052373 1.110462
v -0.895011 0.305399 -1.510142
v -0.707658 1.505688 1.034765
v -0.774325 1.355731 -1.865623
v -0.000000 1.671335 1.034765
v -0.000000 1.665536 -1.852886
v -0.000000 -1.106751 -0.056496
v -0.942883 -0.941543 -0.056496
v -1.059423 -0.052373 -0.117580
v -0.833849 1.465804 -0.262031
v -0.000000 1.615769 -0.255290
v -0.000000 -0.847568 -2.945171
v -0.419941 -0.812193 -2.979581
v -0.763814 1.411400 -2.977493
v -0.676062 1.543425 1.577507
v -0.920978 -0.187005 1.546222
v -0.613731 -1.122292 1.598065
v -0.000000 -1.134238 1.598065
v -0.746184 1.217226 -3.447376
v -0.646139 -0.187955 -3.393358
v -0.000000 -0.120974 -3.462453
v -0.000000 0.453156 -3.495411
v -0.696162 0.372188 -3.423938
v -0.419997 1.896330 3.585106
v -0.478911 1.563804 2.279853
v -0.711895 0.087900 2.199091
v -0.621759 -0.957582 2.266129
v -0.000000 -0.975028 2.354436
v -0.415812 1.793442 2.969494
v -0.536838 0.665154 2.976018
v -0.375098 -1.016584 2.678678
v -0.000000 -1.120101 2.678678
v -0.424182 1.956628 3.877680
v -0.457008 1.337284 3.812380
v -0.397441 0.815173 3.928212
v -0.000000 0.611083 3.918393
v -0.000000 1.911564 4.474026
v -0.511171 1.768851 4.383124
v -0.502015 1.245583 4.233624
v -0.282058 0.487486 4.876748
v -0.000000 0.404108 4.735395
v -0.000000 1.240518 4.774183
v -0.351995 1.219534 4.764764
v -0.000000 0.676270 5.265960
v -0.000000 0.790539 5.215051
v -0.275650 0.758930 5.199601
v -0.278423 0.664001 5.256879
v -0.000000 0.369905 5.126583
v -0.278423 0.376467 5.123219
v -0.000000 0.326639 4.853804
v -1.030635 -0.806599 -2.284402
v -1.045357 0.424170 -1.738760
v -0.973643 0.863489 -1.958564
v -1.097162 -0.825848 -2.969249
v -1.009015 1.123652 -3.306680
v -1.124784 0.317714 -3.268829
v -0.962625 -0.199154 -3.311753
v -0.962625 0.337096 -3.344887
v -0.406626 0.492536 3.648187
v -0.000000 0.340269 3.670038
v -0.885311 -1.420206 -2.596764
v -0.471914 -1.420206 -2.596764
v -0.443944 -1.397397 -3.155440
v -0.933358 -1.397397 -3.155440
v -0.897446 -1.622594 -2.725689
v -0.458539 -1.622594 -2.725689
v -0.428844 -1.646983 -3.179759
v -0.948458 -1.646983 -3.179759
v -0.844586 -3.088739 -2.445490
v -0.516796 -3.088739 -2.445490
v -0.494618 -3.088739 -2.725731
v -0.882683 -3.088739 -2.725731
v -0.557473 -2.726266 -2.887739
v -0.572467 -2.708015 -2.641415
v -0.794073 -2.708015 -2.641415
v -0.819829 -2.726266 -2.887739
v -0.535964 -2.861930 -2.801603
v -0.540595 -2.840451 -2.502161
v -0.820661 -2.840451 -2.502161
v -0.841338 -2.861930 -2.801603
v -0.791760 -1.102587 1.433568
v -0.000000 -1.153064 1.426859
v -0.998903 -1.072682 1.567370
v -0.989137 -0.424447 1.619804
v -1.014224 -0.937653 2.227788
v -1.003657 -0.286582 2.144047
v -0.617694 -2.129059 1.695016
v -0.971038 -2.129059 1.695016
v -0.936349 -2.106863 1.949693
v -0.637887 -2.106863 1.949693
v -0.564329 1.022701 2.250244
v -0.383195 -0.202936 3.093361
v -0.000000 -0.232526 3.157656
v -0.428044 -0.039979 2.941712
v -0.928913 -3.110864 2.156198
v -0.646083 -3.110864 2.156198
v -0.626947 -3.110864 1.862468
v -0.961785 -3.110864 1.862468
v -0.667604 -2.742400 1.765441
v -0.682093 -2.693748 2.043793
v -0.896239 -2.693748 2.043793
v -0.921128 -2.742400 1.765441
v -0.662622 -2.880307 1.828756
v -0.644906 -2.858473 2.098592
v -0.929981 -2.858473 2.098592
v -0.926110 -2.880307 1.828756
v -0.922105 -1.756820 2.015718
v -0.964794 -1.785496 1.678068
v -0.596486 -1.821880 1.642274
v -0.615928 -1.764121 2.015718
v -0.000000 1.357555 -3.478981
v -0.000000 0.499001 4.120731
v -0.340359 0.654987 4.171230
v -0.230048 1.226803 4.768027
v -0.401881 1.845981 4.427663
v -0.639366 -3.030604 1.862260
v -0.645673 -3.023004 2.136145
v -0.929285 -3.023004 2.136145
v -0.949366 -3.030604 1.862260
v -0.511350 -2.996952 -2.725970
v -0.516244 -2.988259 -2.468423
v -0.845087 -2.988259 -2.468423
v -0.865951 -2.996952 -2.725970
v -0.000000 1.644172 2.279853
v -0.000000 1.861664 2.969494
v -0.000000 1.666337 1.577507
v -0.000000 2.036884 3.863439
v -0.496923 1.280801 3.628714
v -0.000000 1.967515 3.578879
v -0.831426 0.333397 1.091720
v -0.782858 0.793423 1.069370
v -0.734795 1.128455 1.570005
v -0.995719 -0.538416 -0.084190
v -0.934365 -0.052373 0.702508
v -0.976436 0.128212 -0.820473
v -0.803805 1.410244 -1.071441
v -0.000000 1.640889 -1.061673
v -0.000000 -1.019916 -0.858904
v -0.820107 -0.903546 -0.872898
v -0.882257 -0.106926 -0.837600
v -1.079093 0.378954 -2.388649
v -1.039288 -0.095374 -1.749381
v -0.782924 -0.013770 -1.558976
v -1.066446 -0.060673 -2.255366
v -0.000000 1.643622 0.391381
v -0.757202 1.490029 0.525627
v -0.885834 0.241340 0.803142
v -0.444801 1.567598 3.836663
v -0.429774 1.851115 3.866555
v -0.453815 1.714822 3.881252
v -0.444872 1.744820 3.746288
v -0.574156 1.597534 3.839468
v -0.559585 1.847649 3.870062
v -0.539102 1.711605 3.863035
v -0.569461 1.753878 3.749198
v -0.768989 1.539817 3.826094
v -0.772951 1.911984 3.850918
v -0.714395 1.782994 3.819700
v -0.755191 1.772453 3.739646
v -0.940786 1.563761 3.830210
v -0.940265 1.866271 3.855301
v -0.806205 1.648030 3.800423
v -0.942600 1.751398 3.742833
v -1.044979 1.624496 3.832079
v -1.044459 1.810202 3.857169
v -0.720783 1.673335 3.806287
v -1.046793 1.736204 3.744701
v -1.117891 1.717703 3.842213
v -0.000000 -1.318496 -0.884056
v -0.539561 -0.871688 -1.962286
v -0.635773 -0.914513 -1.276590
v -0.000000 -1.202234 -2.206345
v -0.695942 -1.213092 -1.301741
v -0.599730 -1.170267 -1.987437
v -0.515088 -1.382984 -1.379500
v -0.444254 -1.351455 -1.884328
v -0.000000 -1.460585 -1.071988
v -0.000000 -1.374990 -2.045493
v -0.000000 1.664979 -2.859006
v -0.176957 1.569494 -3.047040
v -0.000000 1.492537 -3.206590
v -0.000000 1.498826 -3.468168
v -0.000000 1.686534 -3.412906
v -0.159026 1.584236 -3.441988
v -0.000000 1.447617 -3.609262
v -0.000000 0.354829 -3.696771
v -0.000000 1.576155 -3.756796
v -0.187539 1.507044 -3.675960
v -0.000000 1.213989 -3.698971
v -0.000000 -0.159413 -3.713344
v -0.000000 1.300255 -3.874603
v -0.168077 1.254261 -3.778710
v -0.000000 0.354829 -3.855068
v -0.131055 0.354829 -3.769192
v -0.000000 -1.084479 -3.722008
v -0.000000 -0.159413 -3.838495
v -0.131055 -0.159413 -3.770600
v -0.000000 -0.410517 -3.645351
v -0.000000 -0.410517 -3.906488
v -0.218999 -0.410517 -3.764821
v -0.000000 -1.189474 -3.772802
v -0.000000 -1.084479 -3.829831
v -0.081995 -1.084479 -3.771337
v -0.613476 1.616611 3.840748
v -0.779354 1.567472 3.829361
v -0.601071 1.829556 3.866795
v -0.576069 1.713729 3.860812
v -0.782727 1.884329 3.850496
v -0.925177 1.845410 3.854227
v -1.013886 1.797673 3.855818
v -0.925620 1.587857 3.832866
v -1.076405 1.718922 3.843085
v -1.014329 1.639566 3.834456
v -0.695299 1.723347 3.816619
v -0.807942 1.811200 3.811306
v -0.814168 1.725542 3.790407
v -0.881298 1.791158 3.813228
v -0.926981 1.766575 3.814047
v -0.880480 1.724589 3.784937
v -0.881527 1.658527 3.802228
v -0.959176 1.726021 3.807490
v -0.926162 1.729034 3.797997
v -0.927209 1.685155 3.803047
vn 0.1398 -0.9895 -0.0369
vn 0.9819 -0.0862 -0.1686
vn 0.9798 -0.1077 -0.1683
vn 0.9783 -0.1388 -0.1536
vn 0.9912 0.1108 -0.0729
vn 0.9928 0.1051 -0.0583
vn 0.9894 0.1162 -0.0870
vn 0.3251 0.9453 -0.0255
vn 0.3221 0.9465 -0.0221
vn 0.2760 0.9607 0.0299
vn 0.2178 0.9757 -0.0235
vn 0.2069 0.9781 -0.0237
vn 0.2223 0.9746 -0.0278
vn 0.2079 0.9777 -0.0286
vn 0.9845 -0.1054 0.1400
vn 0.9816 -0.1184 0.1497
vn 0.9861 -0.0979 0.1343
vn 0.1838 -0.9812 0.0586
vn 0.1897 -0.9803 0.0545
vn 0.2025 -0.9782 0.0455
vn 0.7355 0.3584 0.5750
vn 0.8245 0.2793 0.4922
vn 0.8472 0.2551 0.4660
vn 0.1003 -0.9931 -0.0610
vn 0.0915 -0.9936 -0.0657
vn 0.1108 -0.9923 -0.0554
vn 0.0117 0.2972 -0.9548
vn 0.0109 0.2965 -0.9550
vn -0.0000 0.2878 -0.9577
vn 0.3450 0.9386 0.0064
vn 0.3571 0.9340 -0.0115
vn 0.4122 0.9103 -0.0379
vn 0.2306 0.8756 -0.4243
vn 0.1568 0.8559 -0.4928
vn 0.1776 0.8502 -0.4956
vn 0.0553 -0.5131 -0.8566
vn 0.1042 -0.5435 -0.8329
vn 0.0037 -0.4790 -0.8778
vn 0.1737 0.9845 0.0253
vn 0.1718 0.9848 0.0266
vn 0.1788 0.9836 0.0217
vn -0.9903 0.0029 0.1390
vn -0.9900 0.0044 0.1413
vn -0.9746 0.0536 0.2175
vn 0.4752 0.8067 -0.3512
vn 0.9917 0.1008 -0.0800
vn 0.9885 -0.1209 -0.0907
vn 0.9871 -0.1012 -0.1241
vn 0.9887 -0.1304 -0.0745
vn 0.0910 -0.9110 -0.4023
vn 0.1431 -0.8366 -0.5288
vn 0.0628 -0.9412 -0.3320
vn 0.9973 -0.0321 0.0663
vn 0.9985 -0.0110 0.0538
vn 0.9985 -0.0105 0.0543
vn 0.2556 -0.0650 -0.9646
vn 0.2655 -0.0713 -0.9615
vn 0.2473 -0.0598 -0.9671
vn 0.0148 -0.5666 -0.8239
vn 0.0006 -0.5724 -0.8199
vn -0.0179 -0.5799 -0.8145
vn 0.0977 -0.0603 -0.9934
vn 0.0972 -0.0596 -0.9935
vn 0.0954 -0.0571 -0.9938
vn 0.9577 0.1323 0.2555
vn 0.9579 0.1328 0.2545
vn 0.9588 0.1312 0.2518
vn 0.0366 -0.9740 0.2235
vn 0.0405 -0.9747 0.2200
vn 0.0566 -0.9770 0.2056
vn 0.9826 0.1491 0.1107
vn 0.8929 -0.1291 0.4314
vn 0.9167 -0.0927 0.3888
vn 0.8556 -0.1773 0.4862
vn 0.1568 0.9415 -0.2983
vn 0.1558 0.9418 -0.2978
vn 0.1579 0.9411 -0.2989
vn 0.1306 -0.9531 -0.2732
vn 0.0954 -0.9675 -0.2343
vn 0.2443 -0.8851 -0.3960
vn 0.9910 0.0118 -0.1332
vn 0.9928 0.0360 -0.1139
vn 0.9937 0.0624 -0.0926
vn 0.9956 0.0913 -0.0199
vn 0.9932 0.1155 -0.0159
vn 0.9981 0.0556 -0.0257
vn 0.1072 -0.9870 -0.1200
vn 0.4250 -0.7943 -0.4342
vn 0.4231 -0.7969 -0.4312
vn 0.4274 -0.7908 -0.4381
vn 0.9740 -0.2262 -0.0148
vn 0.9802 -0.1813 -0.0801
vn 0.9620 -0.2685 0.0490
vn 0.9594 -0.0929 0.2664
vn 0.9928 -0.0814 0.0881
vn 0.0601 0.6800 0.7308
vn 0.0630 0.4886 0.8702
vn 0.0863 0.4326 0.8974
vn 0.0507 0.5170 0.8545
vn 0.0156 -0.4173 0.9086
vn 0.0165 -0.4181 0.9083
vn 0.0209 -0.4214 0.9066
vn 0.0252 -0.9873 0.1566
vn 0.4626 -0.7419 -0.4854
vn 0.9995 0.0127 -0.0273
vn 0.4850 -0.8000 -0.3532
vn 0.9999 0.0039 0.0165
vn 0.9830 0.1797 0.0385
vn -0.0000 -0.5373 0.8434
vn 0.4185 -0.0560 -0.9065
vn 0.7529 -0.1837 -0.6319
vn 0.4264 0.0188 -0.9043
vn 0.3274 0.0111 -0.9448
vn 0.4258 -0.0362 -0.9041
vn 0.2879 0.0295 -0.9572
vn 0.7455 -0.1227 0.6551
vn 0.6732 -0.1850 0.7159
vn 0.8403 -0.0209 0.5417
vn 0.9542 -0.2866 0.0855
vn 0.9544 -0.2857 0.0869
vn 0.9554 -0.2775 0.1006
vn 0.9784 -0.1016 0.1802
vn 0.9929 0.1139 -0.0336
vn 0.9931 0.1122 -0.0350
vn 0.9935 0.1063 -0.0395
vn -0.9971 0.0485 0.0593
vn -0.9978 0.0384 0.0540
vn -0.9981 0.0333 0.0513
vn 0.1414 -0.4659 0.8734
vn 0.1686 -0.4539 0.8750
vn 0.1300 -0.4709 0.8726
vn 0.1625 0.9727 -0.1657
vn 0.1643 0.9722 -0.1669
vn 0.1597 0.9735 -0.1638
vn 0.9957 0.0159 0.0915
vn 0.9940 0.0375 0.1027
vn 0.9963 0.0050 0.0859
vn -0.0000 0.0970 -0.9953
vn -0.9968 0.0450 0.0662
vn -0.9897 0.1402 0.0284
vn -0.9968 0.0125 0.0789
vn -0.0000 -1.0000 -0.0000
vn -0.0000 0.2225 0.9749
vn 0.9908 0.0555 0.1231
vn 0.9858 0.1430 0.0882
vn 0.9811 0.1790 0.0734
vn -0.0000 -0.0026 -1.0000
vn -0.0000 -0.2612 -0.9653
vn 0.9275 0.3737 0.0099
vn 0.9896 -0.0865 0.1150
vn 0.9901 -0.0860 0.1113
vn 0.9895 -0.0866 0.1158
vn -0.0000 0.0774 0.9970
vn -0.9926 -0.0992 0.0699
vn -0.9927 -0.0990 0.0683
vn -0.9928 -0.0989 0.0678
vn -0.0000 -0.5360 -0.8442
vn 0.9701 0.2350 0.0605
vn 0.9723 0.2219 0.0737
vn 0.9740 0.2093 0.0863
vn -0.0000 0.7246 0.6891
vn -0.9759 0.2180 0.0129
vn -0.9791 0.2013 0.0297
vn -0.9726 0.2324 -0.0016
vn 0.5627 0.0626 -0.8243
vn 0.6907 -0.0024 -0.7232
vn 0.5332 0.0762 -0.8425
vn 0.0269 -0.9962 0.0825
vn 0.0590 -0.9977 -0.0320
vn 0.0193 -0.9938 0.1093
vn 0.9995 0.0147 -0.0288
vn 0.9995 0.0150 -0.0286
vn 0.9995 0.0172 -0.0267
vn 0.1353 0.1023 0.9855
vn 0.2058 0.0606 0.9767
vn 0.2368 0.0418 0.9707
vn 0.9144 0.4003 -0.0598
vn 0.8413 0.5399 -0.0264
vn 0.9643 0.2483 -0.0920
vn 0.0020 -0.1869 0.9824
vn 0.0025 -0.1873 0.9823
vn 0.0045 -0.1889 0.9820
vn -0.9948 -0.0678 0.0757
vn -0.9952 -0.0669 0.0720
vn -0.9945 -0.0624 0.0843
vn -0.9954 -0.0665 0.0689
vn -0.9978 0.0333 0.0576
vn -0.9918 0.1249 0.0278
vn -0.9978 0.0102 0.0650
vn 0.9898 -0.0611 0.1289
vn 0.9925 -0.0554 0.1091
vn 0.9880 -0.0643 0.1402
vn -0.0000 -0.1141 -0.9935
vn 0.2250 0.9741 -0.0237
vn 0.2275 0.9735 -0.0211
vn 0.1759 0.9816 -0.0739
vn 0.9936 0.0424 0.1044
vn 0.9889 0.1269 0.0767
vn 0.9859 0.1527 0.0680
vn 0.9310 -0.1596 0.3284
vn 0.2039 -0.6414 0.7396
vn 0.2438 -0.6198 0.7459
vn 0.1738 -0.6566 0.7340
vn 0.9910 0.1325 -0.0201
vn 0.9921 0.1250 -0.0073
vn 0.9895 0.1407 -0.0339
vn -0.0000 -0.4172 -0.9088
vn 0.9881 0.1536 0.0040
vn 0.9929 0.1115 0.0412
vn 0.9945 0.0711 0.0765
vn -0.0000 0.3157 0.9489
vn -0.9877 0.1509 -0.0415
vn -0.9948 0.1023 0.0013
vn -0.9777 0.1941 -0.0799
vn 0.9915 0.0209 0.1285
vn 0.9916 0.0201 0.1276
vn 0.9921 0.0170 0.1240
vn 0.8226 0.5540 0.1285
vn -0.9997 0.0108 0.0219
vn -0.9993 0.0173 0.0318
vn -0.9999 0.0038 0.0111
vn 0.9954 -0.0898 0.0335
vn 0.9953 -0.0645 0.0720
vn 0.9914 -0.0276 0.1277
vn 0.2095 -0.2821 -0.9362
vn 0.4441 -0.2002 -0.8733
vn 0.5517 -0.1537 -0.8198
vn -0.6766 -0.0298 -0.7358
vn 0.0499 -0.1096 -0.9927
vn 0.0563 -0.1018 -0.9932
vn -0.0000 -0.1692 -0.9856
vn 0.0679 -0.0036 -0.9977
vn 0.0742 -0.0098 -0.9972
vn 0.0457 0.0181 -0.9988
vn 0.9639 -0.2656 0.0166
vn 0.0756 0.6939 0.7161
vn 0.1059 0.6839 0.7219
vn 0.1185 0.6795 0.7241
vn 0.9618 -0.0507 0.2692
vn 0.5069 0.3768 0.7753
vn 0.1089 0.4643 0.8790
vn 0.5579 0.3584 0.7485
vn 0.0872 0.4176 0.9044
vn 0.1480 0.4318 0.8898
vn 0.0487 0.4078 0.9118
vn -0.0000 -0.2176 -0.9760
vn 0.9976 0.0560 0.0411
vn 0.9948 0.1014 0.0077
vn 0.9888 0.1472 -0.0261
vn -0.9990 0.0444 -0.0089
vn -0.9950 0.0901 -0.0423
vn -0.9997 0.0006 0.0230
vn -0.0000 -0.4887 -0.8724
vn 0.9799 0.1880 0.0668
vn 0.9782 0.1994 0.0585
vn 0.9768 0.2075 0.0526
vn -0.9854 0.1703 0.0097
vn -0.9843 0.1763 0.0054
vn -0.9861 0.1655 0.0132
vn 0.1202 -0.5061 0.8541
vn 0.0619 -0.5300 0.8458
vn 0.1790 -0.4797 0.8590
vn 0.2919 -0.6330 0.7170
vn 0.2904 -0.6351 0.7157
vn 0.2809 -0.6487 0.7073
vn 0.9753 -0.0746 0.2080
vn 0.9804 -0.1007 0.1690
vn 0.9816 -0.1086 0.1573
vn 0.1774 0.9637 0.1997
vn 0.1784 0.9636 0.1990
vn 0.1756 0.9637 0.2010
vn 0.0851 -0.2686 0.9595
vn 0.0338 -0.2872 0.9573
vn 0.1070 -0.2604 0.9595
vn -0.0000 0.1583 0.9874
vn 0.9921 0.1209 0.0349
vn 0.9921 0.1204 0.0346
vn 0.9891 0.1391 0.0479
vn 0.9547 0.1357 0.2650
vn 0.9559 0.1330 0.2617
vn 0.9548 0.1363 0.2641
vn 0.9897 0.1090 0.0930
vn 0.9897 0.1233 0.0723
vn 0.9896 0.1255 0.0698
vn 0.9902 0.1067 0.0901
vn 0.9838 0.1185 0.1348
vn 0.9846 0.1242 0.1233
vn 0.9825 0.1110 0.1498
vn 0.9884 0.1348 -0.0706
vn 0.9901 0.1290 -0.0562
vn 0.9870 0.1390 -0.0808
vn 0.1549 -0.9839 -0.0892
vn 0.1569 -0.9838 -0.0872
vn 0.1721 -0.9825 -0.0716
vn 0.9235 -0.3406 -0.1765
vn 0.9320 -0.3122 -0.1842
vn 0.9354 -0.2998 -0.1875
vn 0.2901 -0.6254 0.7244
vn 0.2066 -0.6033 0.7703
vn 0.1741 -0.5933 0.7859
vn 0.9985 -0.0127 0.0527
vn 0.9344 -0.2890 -0.2080
vn 0.9581 -0.1812 -0.2220
vn 0.9637 -0.1419 -0.2264
vn 0.9831 -0.0844 -0.1627
vn 0.9806 -0.0925 -0.1731
vn 0.9862 0.1572 0.0522
vn 0.9874 0.1512 0.0473
vn 0.9849 0.1634 0.0574
vn 0.1880 0.9818 -0.0272
vn 0.1900 0.9815 -0.0247
vn 0.1765 0.9834 -0.0424
vn 0.9816 0.1475 0.1216
vn 0.9845 0.1372 0.1096
vn 0.9882 0.1223 0.0924
vn 0.4100 -0.8992 -0.1525
vn 0.3826 -0.9076 -0.1728
vn 0.4295 -0.8925 -0.1378
vn 0.9791 -0.1340 0.1531
vn 0.9792 -0.1294 0.1564
vn 0.9783 -0.1545 0.1377
vn -0.0964 -0.4162 -0.9041
vn -0.0859 -0.4253 -0.9010
vn -0.1675 -0.3521 -0.9208
vn 0.0976 0.0062 0.9952
vn 0.0604 0.0360 0.9975
vn -0.0241 0.1030 0.9944
vn 0.0831 -0.4797 -0.8735
vn 0.0998 -0.4679 -0.8781
vn 0.1235 -0.4509 -0.8840
vn 0.9875 0.0779 -0.1369
vn 0.9792 0.1176 -0.1654
vn 0.9920 0.0445 -0.1182
vn 0.9945 0.1041 0.0093
vn 0.9820 0.0584 0.1797
vn 0.9874 0.0755 0.1393
vn -0.0331 -0.0275 0.9991
vn -0.0336 -0.0271 0.9991
vn -0.0333 -0.0274 0.9991
vn -0.0069 0.7723 -0.6352
vn 0.0040 0.7674 -0.6412
vn -0.0429 0.7877 -0.6146
vn 0.0911 -0.2368 0.9673
vn 0.1163 -0.2521 0.9607
vn 0.1889 -0.2952 0.9366
vn -0.0328 -0.0277 0.9991
vn 0.0318 -0.3885 -0.9209
vn 0.0167 -0.3780 -0.9257
vn 0.0804 -0.4214 -0.9033
vn 0.0589 -0.1813 0.9817
vn 0.0667 -0.1813 0.9812
vn 0.0694 -0.1813 0.9810
vn -0.1797 0.7112 -0.6796
vn -0.1998 0.6888 -0.6968
vn -0.1097 0.7810 -0.6149
vn 0.0849 0.0148 0.9963
vn 0.2359 0.7626 -0.6023
vn 0.2808 0.7285 -0.6248
vn 0.1307 0.8295 -0.5430
vn 0.1398 0.6476 -0.7491
vn 0.1359 0.6517 -0.7462
vn 0.0905 0.6977 -0.7107
vn 0.0173 -0.1214 0.9924
vn 0.0538 -0.0622 0.9966
vn 0.0612 -0.0613 0.9962
vn 0.0512 -0.0625 0.9967
vn 0.6721 -0.4629 -0.5779
vn 0.0635 -0.5393 -0.8397
vn 0.1602 -0.4781 -0.8636
vn 0.2548 -0.4102 -0.8757
vn -0.0079 -0.1144 0.9934
vn 0.0165 -0.1468 0.9890
vn 0.6905 0.6108 -0.3875
vn 0.6150 0.7678 0.1794
vn 0.5269 -0.0472 0.8486
vn 0.5392 0.0123 0.8421
vn 0.5441 0.0391 0.8381
vn 0.7096 -0.6901 -0.1427
vn 0.1800 0.9586 -0.2206
vn 0.1750 0.9612 -0.2134
vn 0.1666 0.9653 -0.2013
vn 0.2607 -0.9609 -0.0934
vn 0.2391 -0.9665 -0.0928
vn 0.2618 -0.9606 -0.0934
vn 0.3431 0.1271 -0.9307
vn 0.3591 0.0990 -0.9280
vn 0.3708 0.0780 -0.9254
vn 0.9707 0.2060 -0.1233
vn 0.0890 -0.9928 -0.0807
vn 0.0925 -0.9922 -0.0835
vn 0.0973 -0.9914 -0.0872
vn 0.2895 -0.6515 -0.7012
vn 0.2906 -0.6501 -0.7021
vn 0.2888 -0.6524 -0.7007
vn 0.4338 -0.7179 0.5444
vn 0.4358 -0.7153 0.5462
vn 0.4363 -0.7147 0.5467
vn 0.4664 0.8463 -0.2573
vn 0.4502 0.8574 -0.2494
vn 0.4864 0.8320 -0.2670
vn 0.4493 -0.8923 -0.0441
vn 0.4612 -0.8867 -0.0339
vn 0.4383 -0.8972 -0.0534
vn 0.5104 0.8595 0.0281
vn 0.5302 0.8477 0.0147
vn 0.5020 0.8642 0.0336
vn 0.3979 -0.8587 0.3230
vn 0.3978 -0.8587 0.3232
vn 0.3900 -0.8593 0.3310
vn 0.4974 0.3225 -0.8053
vn 0.5092 0.3096 -0.8030
vn 0.4759 0.3454 -0.8088
vn 0.4345 -0.3497 0.8300
vn 0.4443 -0.3401 0.8288
vn 0.4132 -0.3700 0.8321
vn 0.4973 -0.0193 -0.8674
vn 0.5405 -0.0296 -0.8409
vn 0.4918 -0.0180 -0.8705
vn 0.4354 -0.0072 0.9002
vn 0.4767 0.0009 0.8791
vn 0.4302 -0.0082 0.9027
vn 0.4694 -0.0238 0.8826
vn 0.4155 -0.0071 0.9095
vn 0.4003 -0.0025 0.9164
vn 0.5327 -0.0217 -0.8460
vn 0.4769 -0.0031 -0.8790
vn 0.5479 -0.0269 -0.8361
vn 0.4911 0.2023 -0.8473
vn 0.5063 0.1909 -0.8410
vn 0.4473 0.2338 -0.8633
vn 0.4279 0.2146 0.8780
vn 0.4441 0.2034 0.8726
vn 0.4707 0.1847 0.8628
vn 0.5440 -0.1008 -0.8330
vn 0.5701 -0.0943 -0.8161
vn 0.5783 -0.0922 -0.8106
vn 0.4796 -0.1045 0.8712
vn 0.5054 -0.0987 0.8572
vn 0.4762 -0.1053 0.8730
vn 0.4762 -0.3829 0.7916
vn 0.5312 -0.4044 -0.7445
vn 0.3425 -0.0505 0.9381
vn 0.3334 -0.0427 0.9418
vn 0.3511 -0.0579 0.9346
vn -0.1612 -0.5088 0.8457
vn 0.3450 -0.1329 0.9292
vn 0.3382 -0.1397 0.9307
vn 0.3253 -0.1523 0.9333
vn -0.2820 0.1171 0.9522
vn -0.2542 -0.4438 0.8593
vn 0.1506 0.2894 0.9453
vn -0.0723 0.3584 0.9308
vn -0.2902 -0.3729 0.8813
vn -0.2882 -0.3715 0.8825
vn 0.0337 -0.0885 0.9955
vn 0.0300 -0.1284 0.9913
vn 0.1788 -0.0206 0.9837
vn 0.1420 0.0468 0.9888
vn 0.2160 -0.0908 0.9722
vn -0.0107 -0.3187 0.9478
vn -0.0239 -0.3065 0.9516
vn -0.0915 -0.2423 0.9659
vn 0.1928 -0.1588 0.9683
vn 0.1763 -0.1866 0.9665
vn 0.1538 -0.2237 0.9625
vn -0.2208 0.1786 0.9588
vn -0.2115 0.1897 0.9588
vn -0.2827 0.1030 0.9537
vn 0.0172 0.1905 0.9815
vn 0.0148 0.1881 0.9820
vn 0.0831 0.2536 0.9637
vn -0.2881 -0.3715 0.8826
vn -0.2877 -0.3712 0.8829
vn -0.2201 -0.3793 0.8987
vn -0.2202 -0.3792 0.8987
vn -0.2661 0.1039 0.9583
vn -0.1863 0.2907 0.9385
vn 0.2027 -0.4073 0.8905
vn -0.1398 -0.9895 -0.0369
vn -0.9798 -0.1077 -0.1683
vn -0.9819 -0.0862 -0.1686
vn -0.9783 -0.1388 -0.1536
vn -0.9928 0.1051 -0.0583
vn -0.9912 0.1108 -0.0729
vn -0.9894 0.1162 -0.0870
vn -0.3251 0.9453 -0.0255
vn -0.3221 0.9465 -0.0221
vn -0.3693 0.9261 -0.0773
vn -0.2069 0.9781 -0.0237
vn -0.2178 0.9757 -0.0235
vn -0.2222 0.9746 -0.0278
vn -0.2079 0.9777 -0.0286
vn -0.9861 -0.0979 0.1343
vn -0.9816 -0.1184 0.1497
vn -0.9845 -0.1054 0.1400
vn -0.1897 -0.9803 0.0545
vn -0.1838 -0.9812 0.0586
vn -0.2025 -0.9782 0.0455
vn -0.8245 0.2793 0.4922
vn -0.7355 0.3584 0.5750
vn -0.8472 0.2551 0.4660
vn -0.0915 -0.9936 -0.0657
vn -0.1003 -0.9931 -0.0610
vn -0.1108 -0.9923 -0.0554
vn -0.0117 0.2972 -0.9548
vn -0.0109 0.2965 -0.9550
vn -0.0207 0.3043 -0.9523
vn -0.3266 0.9444 -0.0382
vn -0.3157 0.9489 0.0042
vn -0.3499 0.9366 0.0188
vn -0.1813 0.8743 -0.4503
vn -0.1444 0.8637 -0.4829
vn -0.2395 0.8721 -0.4268
vn -0.0553 -0.5131 -0.8566
vn -0.1042 -0.5435 -0.8329
vn -0.1823 -0.5883 -0.7878
vn -0.1718 0.9848 0.0266
vn -0.1737 0.9845 0.0253
vn -0.1788 0.9836 0.0217
vn 0.9903 0.0029 0.1390
vn 0.9900 0.0044 0.1413
vn 0.9973 -0.0552 0.0477
vn -0.4752 0.8067 -0.3512
vn -0.9917 0.1008 -0.0800
vn -0.9885 -0.1209 -0.0907
vn -0.9871 -0.1012 -0.1241
vn -0.9860 -0.0923 -0.1390
vn -0.0910 -0.9110 -0.4023
vn -0.1431 -0.8366 -0.5288
vn -0.1650 -0.7972 -0.5808
vn -0.9985 -0.0102 0.0531
vn -0.9985 -0.0109 0.0534
vn -0.9973 -0.0317 0.0665
vn -0.2556 -0.0650 -0.9646
vn -0.2655 -0.0713 -0.9615
vn -0.2743 -0.0768 -0.9586
vn -0.0148 -0.5666 -0.8239
vn -0.0006 -0.5724 -0.8199
vn -0.0305 -0.5599 -0.8280
vn -0.0972 -0.0596 -0.9935
vn -0.0977 -0.0603 -0.9934
vn -0.0954 -0.0571 -0.9938
vn -0.9579 0.1328 0.2545
vn -0.9577 0.1323 0.2555
vn -0.9588 0.1312 0.2518
vn -0.0366 -0.9740 0.2235
vn -0.0405 -0.9747 0.2200
vn -0.0189 -0.9708 0.2391
vn -0.9826 0.1491 0.1107
vn -0.8929 -0.1291 0.4314
vn -0.9167 -0.0927 0.3888
vn -0.9358 -0.0584 0.3476
vn -0.1558 0.9418 -0.2978
vn -0.1568 0.9415 -0.2983
vn -0.1579 0.9411 -0.2989
vn -0.1306 -0.9531 -0.2732
vn -0.0954 -0.9675 -0.2343
vn -0.0084 -0.9906 -0.1367
vn -0.9928 0.0360 -0.1139
vn -0.9910 0.0118 -0.1332
vn -0.9937 0.0624 -0.0926
vn -0.9932 0.1155 -0.0159
vn -0.9956 0.0913 -0.0199
vn -0.9981 0.0556 -0.0257
vn -0.1072 -0.9870 -0.1200
vn -0.4250 -0.7943 -0.4342
vn -0.4231 -0.7969 -0.4312
vn -0.4212 -0.7996 -0.4281
vn -0.9740 -0.2262 -0.0148
vn -0.9802 -0.1813 -0.0801
vn -0.9805 -0.1420 -0.1357
vn -0.9594 -0.0929 0.2664
vn -0.9928 -0.0814 0.0881
vn -0.0601 0.6800 0.7308
vn -0.0630 0.4886 0.8702
vn -0.0863 0.4326 0.8974
vn -0.0974 0.4050 0.9091
vn -0.0156 -0.4173 0.9086
vn -0.0165 -0.4181 0.9083
vn -0.0114 -0.4141 0.9102
vn -0.0252 -0.9873 0.1566
vn -0.4626 -0.7419 -0.4854
vn -0.9995 0.0127 -0.0273
vn -0.4850 -0.8000 -0.3532
vn -0.9999 0.0039 0.0165
vn -0.9830 0.1797 0.0385
vn -0.4185 -0.0560 -0.9065
vn -0.7529 -0.1837 -0.6319
vn -0.4264 0.0188 -0.9043
vn -0.3274 0.0111 -0.9448
vn -0.4258 -0.0362 -0.9041
vn -0.4569 -0.0517 -0.8880
vn -0.7455 -0.1227 0.6551
vn -0.6732 -0.1850 0.7159
vn -0.5050 -0.3011 0.8089
vn -0.9544 -0.2857 0.0869
vn -0.9542 -0.2866 0.0855
vn -0.9554 -0.2775 0.1006
vn -0.9784 -0.1016 0.1802
vn -0.9931 0.1122 -0.0350
vn -0.9929 0.1139 -0.0336
vn -0.9935 0.1063 -0.0395
vn 0.9971 0.0485 0.0593
vn 0.9978 0.0384 0.0540
vn 0.9966 0.0542 0.0623
vn -0.1686 -0.4539 0.8750
vn -0.1414 -0.4659 0.8734
vn -0.1300 -0.4709 0.8726
vn -0.1643 0.9722 -0.1669
vn -0.1625 0.9727 -0.1657
vn -0.1597 0.9735 -0.1638
vn -0.9940 0.0375 0.1027
vn -0.9957 0.0159 0.0915
vn -0.9963 0.0050 0.0859
vn 0.9968 0.0450 0.0662
vn 0.9897 0.1402 0.0284
vn 0.9837 0.1794 0.0126
vn -0.9858 0.1430 0.0882
vn -0.9908 0.0555 0.1231
vn -0.9811 0.1790 0.0734
vn -0.9275 0.3737 0.0099
vn -0.9901 -0.0860 0.1113
vn -0.9896 -0.0865 0.1150
vn -0.9895 -0.0866 0.1158
vn 0.9926 -0.0992 0.0699
vn 0.9927 -0.0990 0.0683
vn 0.9926 -0.0993 0.0702
vn -0.9723 0.2219 0.0737
vn -0.9701 0.2350 0.0605
vn -0.9740 0.2093 0.0863
vn 0.9759 0.2180 0.0129
vn 0.9791 0.2013 0.0297
vn 0.9817 0.1849 0.0461
vn -0.5627 0.0626 -0.8243
vn -0.6907 -0.0024 -0.7232
vn -0.7109 -0.0138 -0.7031
vn -0.0269 -0.9962 0.0825
vn -0.0590 -0.9977 -0.0320
vn -0.0640 -0.9967 -0.0502
vn -0.9995 0.0150 -0.0286
vn -0.9995 0.0147 -0.0288
vn -0.9995 0.0172 -0.0267
vn -0.2058 0.0606 0.9767
vn -0.1353 0.1023 0.9855
vn -0.2368 0.0418 0.9707
vn -0.9144 0.4003 -0.0598
vn -0.8413 0.5399 -0.0264
vn -0.7884 0.6152 -0.0066
vn -0.0025 -0.1873 0.9823
vn -0.0020 -0.1869 0.9824
vn -0.0045 -0.1889 0.9820
vn 0.9952 -0.0669 0.0720
vn 0.9948 -0.0678 0.0757
vn 0.9945 -0.0624 0.0843
vn 0.9954 -0.0665 0.0689
vn 0.9959 -0.0649 0.0632
vn 0.9978 0.0333 0.0576
vn 0.9918 0.1249 0.0278
vn 0.9881 0.1529 0.0185
vn -0.9898 -0.0611 0.1289
vn -0.9925 -0.0554 0.1091
vn -0.9938 -0.0522 0.0980
vn -0.2275 0.9735 -0.0211
vn -0.2250 0.9741 -0.0237
vn -0.1759 0.9816 -0.0739
vn -0.9889 0.1269 0.0767
vn -0.9936 0.0424 0.1044
vn -0.9859 0.1527 0.0680
vn -0.9310 -0.1596 0.3284
vn -0.2438 -0.6198 0.7459
vn -0.2039 -0.6414 0.7396
vn -0.1738 -0.6566 0.7340
vn -0.9921 0.1250 -0.0073
vn -0.9910 0.1325 -0.0201
vn -0.9895 0.1407 -0.0339
vn -0.9929 0.1115 0.0412
vn -0.9881 0.1536 0.0040
vn -0.9945 0.0711 0.0765
vn 0.9877 0.1509 -0.0415
vn 0.9948 0.1023 0.0013
vn 0.9976 0.0554 0.0422
vn -0.9916 0.0201 0.1276
vn -0.9915 0.0209 0.1285
vn -0.9921 0.0170 0.1240
vn -0.8226 0.5540 0.1285
vn 0.9993 0.0173 0.0318
vn 0.9997 0.0108 0.0219
vn 0.9999 0.0038 0.0111
vn -0.9954 -0.0898 0.0335
vn -0.9953 -0.0645 0.0720
vn -0.9937 -0.1117 -0.0002
vn -0.4441 -0.2002 -0.8733
vn -0.2095 -0.2821 -0.9362
vn -0.5517 -0.1537 -0.8198
vn 0.6766 -0.0298 -0.7358
vn -0.0499 -0.1096 -0.9927
vn -0.0563 -0.1018 -0.9932
vn -0.1012 -0.0472 -0.9937
vn -0.0742 -0.0098 -0.9972
vn -0.0679 -0.0036 -0.9977
vn -0.0457 0.0181 -0.9988
vn -0.9639 -0.2656 0.0166
vn -0.1059 0.6839 0.7219
vn -0.0756 0.6939 0.7161
vn -0.1185 0.6795 0.7241
vn -0.9618 -0.0507 0.2692
vn -0.5069 0.3768 0.7753
vn -0.1089 0.4643 0.8790
vn -0.0516 0.4700 0.8811
vn -0.1480 0.4318 0.8898
vn -0.0872 0.4176 0.9044
vn -0.0487 0.4078 0.9118
vn -0.9948 0.1014 0.0077
vn -0.9976 0.0560 0.0411
vn -0.9888 0.1472 -0.0261
vn 0.9990 0.0444 -0.0089
vn 0.9950 0.0901 -0.0423
vn 0.9878 0.1359 -0.0759
vn -0.9782 0.1994 0.0585
vn -0.9799 0.1880 0.0668
vn -0.9768 0.2075 0.0526
vn 0.9854 0.1703 0.0097
vn 0.9843 0.1763 0.0054
vn 0.9836 0.1806 0.0023
vn -0.1202 -0.5061 0.8541
vn -0.0619 -0.5300 0.8458
vn -0.0000 -0.5529 0.8332
vn -0.2904 -0.6351 0.7157
vn -0.2919 -0.6330 0.7170
vn -0.2809 -0.6487 0.7073
vn -0.9804 -0.1007 0.1690
vn -0.9753 -0.0746 0.2080
vn -0.9816 -0.1086 0.1573
vn -0.1774 0.9637 0.1997
vn -0.1784 0.9636 0.1990
vn -0.1801 0.9636 0.1978
vn -0.0851 -0.2686 0.9595
vn -0.0338 -0.2872 0.9573
vn -0.0071 -0.2966 0.9550
vn -0.9921 0.1209 0.0349
vn -0.9921 0.1204 0.0346
vn -0.9941 0.1061 0.0244
vn -0.9547 0.1357 0.2650
vn -0.9559 0.1330 0.2617
vn -0.9897 0.1090 0.0930
vn -0.9896 0.1255 0.0698
vn -0.9897 0.1233 0.0723
vn -0.9902 0.1067 0.0901
vn -0.9846 0.1242 0.1233
vn -0.9838 0.1185 0.1348
vn -0.9825 0.1110 0.1498
vn -0.9901 0.1290 -0.0562
vn -0.9884 0.1348 -0.0706
vn -0.9870 0.1390 -0.0808
vn -0.1549 -0.9839 -0.0892
vn -0.1569 -0.9838 -0.0872
vn -0.1379 -0.9847 -0.1066
vn -0.9235 -0.3406 -0.1765
vn -0.9320 -0.3122 -0.1842
vn -0.9187 -0.3554 -0.1724
vn -0.2901 -0.6254 0.7244
vn -0.2066 -0.6033 0.7703
vn -0.3220 -0.6324 0.7046
vn -0.9985 -0.0127 0.0527
vn -0.9581 -0.1812 -0.2220
vn -0.9344 -0.2890 -0.2080
vn -0.9637 -0.1419 -0.2264
vn -0.9831 -0.0844 -0.1627
vn -0.9831 -0.0736 -0.1678
vn -0.9874 0.1512 0.0473
vn -0.9862 0.1572 0.0522
vn -0.9849 0.1634 0.0574
vn -0.1880 0.9818 -0.0272
vn -0.1900 0.9815 -0.0247
vn -0.2006 0.9796 -0.0106
vn -0.9845 0.1372 0.1096
vn -0.9816 0.1475 0.1216
vn -0.9882 0.1223 0.0924
vn -0.3826 -0.9076 -0.1728
vn -0.4100 -0.8992 -0.1525
vn -0.4295 -0.8925 -0.1378
vn -0.9796 -0.1424 0.1414
vn -0.9795 -0.1304 0.1533
vn -0.9708 -0.1461 0.1904
vn 0.0964 -0.4162 -0.9041
vn 0.0859 -0.4253 -0.9010
vn -0.0055 -0.4999 -0.8661
vn -0.0604 0.0360 0.9975
vn -0.0976 0.0061 0.9952
vn 0.0241 0.1030 0.9944
vn -0.0998 -0.4679 -0.8781
vn -0.0831 -0.4797 -0.8735
vn -0.1235 -0.4509 -0.8840
vn -0.9916 0.0449 -0.1211
vn -0.9845 0.1079 -0.1380
vn -0.9870 0.1027 -0.1239
vn -0.9894 0.0647 0.1299
vn -0.9854 0.0649 0.1575
vn -0.9940 0.1093 0.0086
vn 0.0331 -0.0274 0.9991
vn 0.0336 -0.0271 0.9991
vn 0.0069 0.7723 -0.6352
vn -0.0040 0.7674 -0.6412
vn -0.0379 0.7511 -0.6591
vn -0.1163 -0.2521 0.9607
vn -0.0911 -0.2368 0.9673
vn -0.1889 -0.2952 0.9366
vn 0.0328 -0.0277 0.9991
vn 0.0328 -0.0276 0.9991
vn -0.0318 -0.3885 -0.9209
vn -0.0167 -0.3780 -0.9257
vn 0.0233 -0.3495 -0.9367
vn -0.0667 -0.1813 0.9812
vn -0.0589 -0.1813 0.9817
vn -0.0694 -0.1813 0.9810
vn 0.1998 0.6888 -0.6968
vn 0.1797 0.7112 -0.6796
vn 0.1097 0.7810 -0.6149
vn -0.0849 0.0148 0.9963
vn -0.2359 0.7626 -0.6024
vn -0.2808 0.7285 -0.6248
vn -0.3645 0.6552 -0.6617
vn -0.1398 0.6476 -0.7491
vn -0.1359 0.6517 -0.7462
vn -0.1839 0.5984 -0.7798
vn -0.0173 -0.1214 0.9924
vn -0.0538 -0.0622 0.9966
vn -0.0612 -0.0613 0.9962
vn -0.0634 -0.0610 0.9961
vn -0.6721 -0.4629 -0.5779
vn -0.1602 -0.4781 -0.8636
vn -0.0635 -0.5393 -0.8397
vn -0.2548 -0.4102 -0.8757
vn 0.0079 -0.1144 0.9934
vn -0.0165 -0.1468 0.9890
vn -0.6905 0.6108 -0.3875
vn -0.6150 0.7678 0.1794
vn -0.5392 0.0123 0.8421
vn -0.5269 -0.0472 0.8486
vn -0.5441 0.0391 0.8381
vn -0.7096 -0.6901 -0.1427
vn -0.1750 0.9612 -0.2134
vn -0.1800 0.9586 -0.2206
vn -0.1666 0.9653 -0.2013
vn -0.2391 -0.9665 -0.0928
vn -0.2607 -0.9609 -0.0934
vn -0.2618 -0.9606 -0.0934
vn -0.3591 0.0990 -0.9280
vn -0.3431 0.1271 -0.9307
vn -0.3708 0.0780 -0.9254
vn -0.9707 0.2060 -0.1233
vn -0.0890 -0.9928 -0.0807
vn -0.0925 -0.9922 -0.0835
vn -0.0792 -0.9942 -0.0732
vn -0.2895 -0.6515 -0.7012
vn -0.2906 -0.6501 -0.7021
vn -0.2910 -0.6495 -0.7025
vn -0.4358 -0.7153 0.5462
vn -0.4338 -0.7179 0.5444
vn -0.4363 -0.7147 0.5467
vn -0.4502 0.8574 -0.2494
vn -0.4664 0.8463 -0.2573
vn -0.4864 0.8320 -0.2670
vn -0.4612 -0.8867 -0.0339
vn -0.4493 -0.8923 -0.0441
vn -0.4383 -0.8972 -0.0534
vn -0.5302 0.8477 0.0147
vn -0.5104 0.8595 0.0281
vn -0.5020 0.8642 0.0336
vn -0.3979 -0.8587 0.3230
vn -0.3978 -0.8587 0.3232
vn -0.4094 -0.8576 0.3113
vn -0.5092 0.3096 -0.8030
vn -0.4974 0.3225 -0.8053
vn -0.4759 0.3454 -0.8088
vn -0.4443 -0.3401 0.8288
vn -0.4345 -0.3497 0.8300
vn -0.4132 -0.3700 0.8321
vn -0.5405 -0.0296 -0.8409
vn -0.4973 -0.0193 -0.8674
vn -0.4918 -0.0180 -0.8705
vn -0.4767 0.0009 0.8791
vn -0.4354 -0.0072 0.9002
vn -0.4302 -0.0082 0.9027
vn -0.4694 -0.0238 0.8826
vn -0.4155 -0.0071 0.9095
vn -0.4835 -0.0282 0.8749
vn -0.4769 -0.0031 -0.8790
vn -0.5327 -0.0217 -0.8460
vn -0.5479 -0.0269 -0.8361
vn -0.5063 0.1909 -0.8410
vn -0.4911 0.2023 -0.8473
vn -0.4473 0.2338 -0.8633
vn -0.4279 0.2146 0.8780
vn -0.4441 0.2034 0.8726
vn -0.3886 0.2408 0.8894
vn -0.5440 -0.1008 -0.8330
vn -0.5701 -0.0943 -0.8161
vn -0.5403 -0.1018 -0.8353
vn -0.5054 -0.0987 0.8572
vn -0.4796 -0.1045 0.8712
vn -0.4762 -0.1053 0.8730
vn -0.4762 -0.3829 0.7916
vn -0.5312 -0.4044 -0.7445
vn -0.3334 -0.0427 0.9418
vn -0.3425 -0.0505 0.9381
vn -0.3511 -0.0579 0.9346
vn 0.1612 -0.5088 0.8457
vn -0.3450 -0.1329 0.9292
vn -0.3382 -0.1397 0.9307
vn -0.3537 -0.1242 0.9271
vn 0.2820 0.1171 0.9522
vn 0.2542 -0.4438 0.8593
vn -0.1506 0.2894 0.9453
vn 0.0723 0.3584 0.9308
vn 0.2882 -0.3715 0.8826
vn 0.2902 -0.3729 0.8813
vn -0.0337 -0.0885 0.9955
vn -0.0300 -0.1284 0.9913
vn -0.0300 -0.1283 0.9913
vn -0.1420 0.0468 0.9888
vn -0.1788 -0.0206 0.9837
vn -0.2160 -0.0908 0.9722
vn 0.0239 -0.3065 0.9516
vn 0.0107 -0.3187 0.9478
vn 0.0915 -0.2423 0.9659
vn -0.1928 -0.1588 0.9683
vn -0.1763 -0.1866 0.9665
vn -0.2159 -0.1192 0.9691
vn 0.2208 0.1786 0.9588
vn 0.2115 0.1897 0.9588
vn 0.1614 0.2475 0.9554
vn -0.0172 0.1905 0.9815
vn -0.0148 0.1881 0.9820
vn 0.0422 0.1323 0.9903
vn 0.2881 -0.3714 0.8827
vn 0.2877 -0.3712 0.8829
vn 0.2201 -0.3793 0.8987
vn 0.2202 -0.3792 0.8987
vn 0.2661 0.1039 0.9583
vn 0.1863 0.2907 0.9385
vn -0.2027 -0.4073 0.8905
vn 0.9831 -0.0736 -0.1678
vn 0.9941 0.0994 -0.0437
vn 0.3693 0.9261 -0.0773
vn 0.2058 0.9777 -0.0421
vn 0.1789 0.9838 0.0091
vn 0.9888 -0.0838 0.1238
vn 0.1722 -0.9828 0.0666
vn 0.6390 0.4251 0.6411
vn 0.0778 -0.9943 -0.0730
vn 0.0207 0.3043 -0.9523
vn 0.3715 0.9284 -0.0005
vn 0.2548 0.9659 0.0460
vn 0.2823 0.8828 -0.3754
vn 0.1841 0.8807 -0.4364
vn 0.1823 -0.5883 -0.7878
vn 0.1654 0.9857 0.0311
vn -0.9973 -0.0552 0.0477
vn 0.9860 -0.0923 -0.1390
vn 0.1650 -0.7972 -0.5808
vn 0.9967 -0.0394 0.0709
vn 0.9914 -0.0863 0.0987
vn 0.9986 -0.0104 0.0526
vn 0.2743 -0.0768 -0.9586
vn 0.0305 -0.5599 -0.8280
vn 0.0996 -0.0631 -0.9930
vn 0.0189 -0.9708 0.2391
vn 0.9358 -0.0584 0.3476
vn 0.1546 0.9422 -0.2972
vn 0.0084 -0.9906 -0.1367
vn 0.9880 -0.0139 -0.1537
vn 0.9884 0.1517 -0.0100
vn 0.4212 -0.7996 -0.4281
vn 0.9805 -0.1420 -0.1357
vn 0.0974 0.4050 0.9091
vn 0.0114 -0.4141 0.9102
vn 0.4569 -0.0517 -0.8880
vn 0.5050 -0.3011 0.8089
vn 0.9527 -0.2958 0.0699
vn 0.9922 0.1221 -0.0271
vn -0.9966 0.0542 0.0623
vn 0.1815 -0.4480 0.8754
vn 0.1671 0.9714 -0.1687
vn 0.9928 0.0495 0.1089
vn -0.9837 0.1794 0.0126
vn 0.9906 0.0258 0.1347
vn 0.9902 -0.0858 0.1099
vn -0.9926 -0.0993 0.0702
vn 0.9680 0.2461 0.0492
vn -0.9817 0.1849 0.0461
vn 0.7109 -0.0138 -0.7031
vn 0.0640 -0.9967 -0.0502
vn 0.9994 0.0122 -0.0309
vn 0.0900 0.1285 0.9876
vn 0.7884 0.6152 -0.0066
vn -0.0000 -0.1854 0.9827
vn -0.9951 -0.0760 0.0636
vn -0.9959 -0.0649 0.0632
vn -0.9881 0.1529 0.0185
vn 0.9938 -0.0522 0.0980
vn 0.9936 0.0212 0.1112
vn 0.2673 -0.6064 0.7489
vn 0.9941 0.1061 0.0244
vn 0.9811 0.1911 -0.0295
vn -0.9976 0.0554 0.0422
vn 0.9908 0.0246 0.1328
vn -0.9985 0.0276 0.0477
vn 0.9937 -0.1117 -0.0002
vn 0.1221 -0.3070 -0.9439
vn 0.1012 -0.0472 -0.9937
vn 0.0982 -0.0334 -0.9946
vn 0.0607 0.6985 0.7130
vn 0.0516 0.4700 0.8811
vn 0.1732 0.4371 0.8826
vn 0.9973 0.0124 0.0728
vn -0.9878 0.1359 -0.0759
vn 0.9811 0.1789 0.0734
vn -0.9836 0.1806 0.0023
vn 0.3006 -0.6203 0.7245
vn 0.9715 -0.0599 0.2295
vn 0.1801 0.9636 0.1978
vn 0.0071 -0.2966 0.9550
vn 0.9873 0.1537 0.0392
vn 0.9850 0.1274 0.1168
vn 0.9912 0.1246 -0.0453
vn 0.1379 -0.9847 -0.1066
vn 0.9187 -0.3554 -0.1724
vn 0.3220 -0.6324 0.7046
vn 0.9148 -0.3519 -0.1984
vn 0.9887 0.1440 0.0413
vn 0.2006 0.9796 -0.0106
vn 0.9783 0.1581 0.1340
vn 0.3634 -0.9128 -0.1867
vn 0.9801 -0.1571 0.1210
vn 0.9808 -0.1083 0.1622
vn 0.0055 -0.4999 -0.8661
vn 0.2053 -0.0813 0.9753
vn 0.0564 -0.4980 -0.8654
vn 0.9932 0.0155 -0.1152
vn 0.8614 0.0982 -0.4984
vn 0.9919 0.1212 -0.0392
vn 0.9953 0.0436 0.0864
vn 0.0379 0.7511 -0.6591
vn 0.0239 -0.1952 0.9805
vn -0.0233 -0.3495 -0.9367
vn 0.0560 -0.1813 0.9818
vn -0.2541 0.6226 -0.7401
vn 0.3645 0.6552 -0.6617
vn 0.1839 0.5984 -0.7798
vn 0.0634 -0.0610 0.9961
vn -0.0754 -0.6136 -0.7860
vn 0.5212 -0.0716 0.8504
vn 0.1883 0.9542 -0.2326
vn 0.2280 -0.9693 -0.0925
vn 0.3324 0.1455 -0.9319
vn 0.0792 -0.9942 -0.0732
vn 0.2910 -0.6495 -0.7025
vn 0.4329 -0.7191 0.5437
vn 0.4241 0.8741 -0.2367
vn 0.4758 -0.8793 -0.0211
vn 0.5419 0.8404 0.0068
vn 0.4094 -0.8576 0.3113
vn 0.5326 0.2832 -0.7976
vn 0.4675 -0.3169 0.8253
vn 0.5478 -0.0314 -0.8360
vn 0.4837 0.0022 0.8753
vn 0.4835 -0.0282 0.8749
vn 0.4600 0.0024 -0.8879
vn 0.5354 0.1685 -0.8276
vn 0.3886 0.2408 0.8894
vn 0.5403 -0.1018 -0.8353
vn 0.5131 -0.0970 0.8528
vn 0.3209 -0.0320 0.9466
vn 0.3537 -0.1242 0.9271
vn 0.1025 0.1171 0.9878
vn 0.0701 -0.3909 0.9178
vn 0.2159 -0.1192 0.9691
vn -0.1614 0.2475 0.9554
vn -0.0422 0.1323 0.9903
vn -0.2200 -0.3794 0.8987
vn -0.9941 0.0994 -0.0437
vn -0.2760 0.9607 0.0299
vn -0.2058 0.9777 -0.0421
vn -0.1789 0.9838 0.0091
vn -0.9888 -0.0838 0.1238
vn -0.1722 -0.9828 0.0666
vn -0.6390 0.4251 0.6411
vn -0.0778 -0.9943 -0.0730
vn -0.3715 0.9284 -0.0005
vn -0.2777 0.9365 -0.2142
vn -0.2823 0.8828 -0.3754
vn -0.0107 0.8960 -0.4440
vn -0.0037 -0.4790 -0.8778
vn -0.1654 0.9857 0.0311
vn 0.9746 0.0536 0.2175
vn -0.9887 -0.1304 -0.0745
vn -0.0628 -0.9412 -0.3320
vn -0.9914 -0.0863 0.0987
vn -0.9967 -0.0394 0.0709
vn -0.2473 -0.0598 -0.9671
vn 0.0179 -0.5799 -0.8145
vn -0.0996 -0.0631 -0.9930
vn -0.0566 -0.9770 0.2056
vn -0.8556 -0.1773 0.4862
vn -0.1546 0.9422 -0.2972
vn -0.2443 -0.8851 -0.3960
vn -0.9880 -0.0139 -0.1537
vn -0.9884 0.1517 -0.0100
vn -0.4274 -0.7908 -0.4381
vn -0.9620 -0.2685 0.0490
vn -0.0507 0.5170 0.8545
vn -0.0209 -0.4214 0.9066
vn -0.2879 0.0295 -0.9572
vn -0.8403 -0.0209 0.5417
vn -0.9527 -0.2958 0.0699
vn -0.9922 0.1221 -0.0271
vn 0.9981 0.0333 0.0513
vn -0.1815 -0.4480 0.8754
vn -0.1671 0.9714 -0.1687
vn -0.9928 0.0495 0.1089
vn 0.9968 0.0125 0.0789
vn -0.9906 0.0258 0.1347
vn -0.9902 -0.0858 0.1099
vn 0.9928 -0.0989 0.0678
vn -0.9680 0.2461 0.0492
vn 0.9726 0.2324 -0.0016
vn -0.5332 0.0762 -0.8425
vn -0.0193 -0.9938 0.1093
vn -0.9994 0.0122 -0.0309
vn -0.0900 0.1285 0.9876
vn -0.9643 0.2483 -0.0920
vn 0.9951 -0.0760 0.0636
vn 0.9978 0.0102 0.0650
vn -0.9880 -0.0643 0.1402
vn -0.9936 0.0212 0.1112
vn -0.2673 -0.6064 0.7489
vn -0.9811 0.1911 -0.0295
vn 0.9777 0.1941 -0.0799
vn -0.9908 0.0246 0.1328
vn 0.9985 0.0276 0.0477
vn -0.9914 -0.0276 0.1277
vn -0.1221 -0.3070 -0.9439
vn -0.0982 -0.0334 -0.9946
vn -0.0607 0.6985 0.7130
vn -0.5579 0.3584 0.7485
vn -0.1732 0.4371 0.8826
vn -0.9973 0.0124 0.0728
vn 0.9997 0.0006 0.0230
vn -0.9811 0.1789 0.0734
vn 0.9861 0.1655 0.0132
vn -0.1790 -0.4797 0.8590
vn -0.3006 -0.6203 0.7245
vn -0.9715 -0.0599 0.2295
vn -0.1756 0.9637 0.2010
vn -0.1070 -0.2604 0.9595
vn -0.9891 0.1391 0.0479
vn -0.9548 0.1363 0.2641
vn -0.9873 0.1537 0.0392
vn -0.9850 0.1274 0.1168
vn -0.9912 0.1246 -0.0453
vn -0.1721 -0.9825 -0.0716
vn -0.9354 -0.2998 -0.1875
vn -0.1741 -0.5933 0.7859
vn -0.9148 -0.3519 -0.1984
vn -0.9806 -0.0925 -0.1731
vn -0.9887 0.1440 0.0413
vn -0.1765 0.9834 -0.0424
vn -0.9783 0.1581 0.1340
vn -0.3634 -0.9128 -0.1867
vn -0.9801 -0.1571 0.1210
vn -0.9891 -0.1109 0.0972
vn 0.1675 -0.3521 -0.9208
vn -0.2053 -0.0813 0.9753
vn -0.0564 -0.4980 -0.8654
vn -0.9932 0.0155 -0.1152
vn -0.9872 0.0676 -0.1448
vn -0.9919 0.1212 -0.0392
vn -0.9786 0.0304 0.2033
vn 0.0333 -0.0274 0.9991
vn 0.0429 0.7877 -0.6146
vn -0.0239 -0.1952 0.9805
vn -0.0804 -0.4214 -0.9033
vn -0.0560 -0.1813 0.9818
vn 0.2541 0.6226 -0.7401
vn -0.1307 0.8295 -0.5430
vn -0.0905 0.6977 -0.7107
vn -0.0173 -0.1214 0.9925
vn -0.0512 -0.0625 0.9967
vn 0.0754 -0.6136 -0.7860
vn -0.5212 -0.0716 0.8504
vn -0.1883 0.9542 -0.2326
vn -0.2280 -0.9693 -0.0925
vn -0.3324 0.1455 -0.9319
vn -0.0973 -0.9914 -0.0872
vn -0.2888 -0.6524 -0.7007
vn -0.4329 -0.7191 0.5437
vn -0.4241 0.8741 -0.2367
vn -0.4758 -0.8793 -0.0211
vn -0.5419 0.8404 0.0068
vn -0.3900 -0.8593 0.3310
vn -0.5326 0.2832 -0.7976
vn -0.4675 -0.3169 0.8253
vn -0.5478 -0.0314 -0.8360
vn -0.4837 0.0022 0.8753
vn -0.4003 -0.0025 0.9164
vn -0.4600 0.0024 -0.8879
vn -0.5354 0.1685 -0.8276
vn -0.4707 0.1847 0.8628
vn -0.5783 -0.0922 -0.8106
vn -0.5131 -0.0970 0.8528
vn -0.3209 -0.0320 0.9466
vn -0.3253 -0.1523 0.9333
vn -0.1025 0.1171 0.9878
vn -0.0701 -0.3909 0.9178
vn -0.1538 -0.2237 0.9625
vn 0.2827 0.1030 0.9537
vn -0.0831 0.2536 0.9637
vn 0.2200 -0.3794 0.8987
vt 0.786232 0.742307
vt 0.832036 0.711703
vt 0.845342 0.741067
vt 0.539140 0.455466
vt 0.517615 0.396917
vt 0.546924 0.397015
vt 0.447834 0.495000
vt 0.370072 0.456481
vt 0.464893 0.446367
vt 0.838995 0.396527
vt 0.781711 0.451442
vt 0.779185 0.395913
vt 0.829644 0.282505
vt 0.771844 0.247180
vt 0.824217 0.246488
vt 0.819825 0.207638
vt 0.486848 0.336857
vt 0.489121 0.307039
vt 0.786517 0.800880
vt 0.843435 0.887407
vt 0.786142 0.887721
vt 0.404865 0.524608
vt 0.369311 0.514233
vt 0.785879 0.645836
vt 0.816097 0.587547
vt 0.828516 0.643670
vt 0.471437 0.787438
vt 0.509283 0.820763
vt 0.473651 0.820763
vt 0.839933 0.453733
vt 0.799242 0.536611
vt 0.785138 0.522586
vt 0.844219 0.568020
vt 0.787492 0.550043
vt 0.511000 0.736772
vt 0.520739 0.788656
vt 0.770031 0.208890
vt 0.803019 0.158604
vt 0.579090 0.633415
vt 0.546510 0.674335
vt 0.522512 0.628747
vt 0.842578 0.531467
vt 0.863410 0.558351
vt 0.460943 0.306013
vt 0.501540 0.276430
vt 0.549617 0.309538
vt 0.567057 0.289336
vt 0.843882 0.909334
vt 0.786550 0.908942
vt 0.521741 0.608075
vt 0.437700 0.558993
vt 0.470354 0.551811
vt 0.488037 0.733542
vt 0.510776 0.700307
vt 0.441034 0.727005
vt 0.440844 0.790826
vt 0.491441 0.695575
vt 0.440792 0.688041
vt 0.405878 0.266384
vt 0.485020 0.226684
vt 0.786450 0.921368
vt 0.830804 0.969662
vt 0.785676 0.976123
vt 0.417212 0.217001
vt 0.447358 0.166346
vt 0.561092 0.227473
vt 0.498105 0.172447
vt 0.567316 0.196912
vt 0.767792 0.159603
vt 0.794543 0.106315
vt 0.813084 0.999804
vt 0.786267 1.000000
vt 0.386753 0.098407
vt 0.412556 0.071722
vt 0.403345 0.101541
vt 0.366330 0.094549
vt 0.361379 0.114647
vt 0.358729 0.093113
vt 0.824935 0.661710
vt 0.251241 0.716059
vt 0.275975 0.734092
vt 0.251878 0.730994
vt 0.441790 0.095908
vt 0.454727 0.078985
vt 0.375486 0.057914
vt 0.417272 0.032769
vt 0.470906 0.028580
vt 0.453093 0.003594
vt 0.692125 0.843189
vt 0.692481 0.834301
vt 0.715008 0.840845
vt 0.641716 0.796143
vt 0.637678 0.816215
vt 0.636614 0.795941
vt 0.613255 0.816215
vt 0.613622 0.795941
vt 0.273386 0.803952
vt 0.253181 0.804445
vt 0.253168 0.784670
vt 0.287066 0.789469
vt 0.279248 0.785572
vt 0.287066 0.766748
vt 0.460322 0.000000
vt 0.480399 0.011341
vt 0.272986 0.785804
vt 0.438167 0.511496
vt 0.164403 0.752600
vt 0.131559 0.765702
vt 0.134530 0.748900
vt 0.522512 0.703909
vt 0.474003 0.628747
vt 0.437068 0.623322
vt 0.513734 0.649469
vt 0.475787 0.515230
vt 0.566639 0.583639
vt 0.524233 0.558061
vt 0.510731 0.162211
vt 0.365225 0.159838
vt 0.406442 0.115339
vt 0.587187 0.676986
vt 0.554323 0.689992
vt 0.654119 0.784995
vt 0.681432 0.719487
vt 0.681432 0.792091
vt 0.763968 0.107208
vt 0.792052 0.061050
vt 0.580590 0.594196
vt 0.561799 0.624192
vt 0.472697 0.836523
vt 0.524947 0.786645
vt 0.542861 0.795925
vt 0.522512 0.793739
vt 0.312198 0.816076
vt 0.291799 0.841483
vt 0.291799 0.817657
vt 0.642958 0.860433
vt 0.649283 0.836529
vt 0.649283 0.860397
vt 0.681081 0.583193
vt 0.686934 0.602572
vt 0.680241 0.601993
vt 0.478881 0.939621
vt 0.505961 0.945697
vt 0.477707 0.945697
vt 0.510529 0.836523
vt 0.482278 0.916789
vt 0.358729 0.594452
vt 0.659564 0.611973
vt 0.579794 0.627451
vt 0.146153 0.840400
vt 0.130139 0.838417
vt 0.557111 0.770701
vt 0.539384 0.767474
vt 0.502920 0.928387
vt 0.480687 0.928387
vt 0.659635 0.593912
vt 0.669953 0.606598
vt 0.085615 0.788057
vt 0.093201 0.807011
vt 0.085615 0.804142
vt 0.549926 0.779943
vt 0.528427 0.776120
vt 0.876736 0.057216
vt 0.890031 0.017871
vt 0.891691 0.059110
vt 0.831008 0.921346
vt 0.519330 0.272739
vt 0.560180 0.231730
vt 0.566073 0.280308
vt 0.192939 0.699082
vt 0.166925 0.654973
vt 0.189264 0.628848
vt 0.512431 0.234011
vt 0.188201 0.785515
vt 0.168578 0.759067
vt 0.190833 0.760485
vt 0.066644 0.713396
vt 0.090182 0.693891
vt 0.085138 0.715958
vt 0.077567 0.760113
vt 0.049724 0.779289
vt 0.069351 0.786683
vt 0.047945 0.785602
vt 0.643227 0.258294
vt 0.688227 0.275241
vt 0.643411 0.277020
vt 0.869814 0.175868
vt 0.891079 0.132864
vt 0.888270 0.175607
vt 0.776612 0.339319
vt 0.838039 0.338224
vt 0.138637 0.840400
vt 0.117257 0.862316
vt 0.117257 0.841758
vt 0.164604 0.842817
vt 0.184980 0.849192
vt 0.164403 0.848344
vt 0.710776 0.250021
vt 0.715608 0.270493
vt 0.709760 0.269996
vt 0.890674 0.197584
vt 0.867315 0.203227
vt 0.868106 0.197903
vt 0.653530 0.719037
vt 0.681432 0.667641
vt 0.888789 0.186651
vt 0.869607 0.186921
vt 0.686282 0.254687
vt 0.698614 0.271465
vt 0.183424 0.823272
vt 0.164980 0.832467
vt 0.167844 0.822629
vt 0.057475 0.755566
vt 0.072488 0.769930
vt 0.053055 0.767467
vt 0.618373 0.276246
vt 0.618191 0.251437
vt 0.378149 0.620960
vt 0.095876 0.643157
vt 0.063199 0.688337
vt 0.047945 0.628848
vt 0.890149 0.109643
vt 0.863410 0.111333
vt 0.863702 0.063722
vt 0.865356 0.133226
vt 0.494700 0.638990
vt 0.440338 0.628747
vt 0.716643 0.820680
vt 0.686491 0.800049
vt 0.651824 0.803682
vt 0.680110 0.792091
vt 0.652402 0.812561
vt 0.692125 0.829312
vt 0.653493 0.829312
vt 0.698620 0.251799
vt 0.185237 0.843667
vt 0.069606 0.780811
vt 0.670112 0.584689
vt 0.633654 0.858655
vt 0.642958 0.836488
vt 0.543518 0.789228
vt 0.161919 0.702358
vt 0.130139 0.698244
vt 0.651824 0.657740
vt 0.681432 0.642979
vt 0.463573 0.118095
vt 0.759735 0.041076
vt 0.788215 0.002409
vt 0.790950 0.039336
vt 0.164403 0.697481
vt 0.166487 0.784620
vt 0.375317 0.302896
vt 0.375702 0.263216
vt 0.377962 0.211396
vt 0.427342 0.304790
vt 0.373562 0.340086
vt 0.466035 0.327678
vt 0.482279 0.396800
vt 0.370847 0.397622
vt 0.854338 0.800566
vt 0.470488 0.499920
vt 0.137120 0.636745
vt 0.481670 0.448578
vt 0.525966 0.550993
vt 0.774222 0.293132
vt 0.252744 0.775909
vt 0.326183 0.821353
vt 0.341608 0.833592
vt 0.323692 0.835769
vt 0.571301 0.844168
vt 0.579701 0.835999
vt 0.580365 0.845429
vt 0.338138 0.811181
vt 0.323692 0.812093
vt 0.376351 0.094365
vt 0.373365 0.103938
vt 0.579113 0.808271
vt 0.580852 0.819665
vt 0.577718 0.809447
vt 0.279248 0.717653
vt 0.289816 0.725504
vt 0.279663 0.726646
vt 0.560166 0.845429
vt 0.570298 0.838003
vt 0.574139 0.803172
vt 0.574910 0.800901
vt 0.340995 0.847311
vt 0.325946 0.848142
vt 0.561773 0.835909
vt 0.570243 0.835310
vt 0.279384 0.740011
vt 0.582794 0.820272
vt 0.578219 0.833054
vt 0.279331 0.753737
vt 0.288473 0.760900
vt 0.279248 0.761389
vt 0.289254 0.753014
vt 0.561581 0.801586
vt 0.568190 0.798936
vt 0.562791 0.803756
vt 0.330379 0.855428
vt 0.340421 0.854955
vt 0.336557 0.860296
vt 0.557788 0.809390
vt 0.558658 0.821115
vt 0.556726 0.821975
vt 0.567922 0.795925
vt 0.285864 0.766748
vt 0.796805 0.006313
vt 0.085615 0.837358
vt 0.061500 0.786683
vt 0.082586 0.791064
vt 0.534773 0.845526
vt 0.522512 0.804893
vt 0.534773 0.795925
vt 0.761175 0.062354
vt 0.034099 0.869560
vt 0.019691 0.830692
vt 0.038664 0.830521
vt 0.556726 0.846079
vt 0.556726 0.796478
vt 0.291799 0.672393
vt 0.248862 0.716059
vt 0.221475 0.682341
vt 0.000000 0.862771
vt 0.003361 0.830607
vt 0.064529 0.837358
vt 0.047945 0.799852
vt 0.799187 0.564377
vt 0.788797 0.587547
vt 0.786877 0.561388
vt 0.235116 0.838638
vt 0.246305 0.821330
vt 0.247628 0.850106
vt 0.235356 0.809413
vt 0.248738 0.804445
vt 0.355570 0.636244
vt 0.342025 0.643497
vt 0.342160 0.628848
vt 0.307746 0.631284
vt 0.295507 0.648699
vt 0.294090 0.628848
vt 0.354021 0.649785
vt 0.340779 0.706589
vt 0.307746 0.649502
vt 0.298203 0.710123
vt 0.307746 0.744004
vt 0.298203 0.745410
vt 0.350157 0.709460
vt 0.340090 0.741088
vt 0.349502 0.743411
vt 0.339895 0.755615
vt 0.307746 0.759548
vt 0.291799 0.762482
vt 0.344748 0.804445
vt 0.338889 0.802503
vt 0.301775 0.808843
vt 0.307746 0.807632
vt 0.307746 0.816076
vt 0.338649 0.811182
vt 0.562955 0.832978
vt 0.569347 0.826664
vt 0.574786 0.818155
vt 0.573172 0.812893
vt 0.573430 0.825050
vt 0.568266 0.807481
vt 0.565486 0.809962
vt 0.571330 0.809662
vt 0.565570 0.825011
vt 0.559563 0.810400
vt 0.563357 0.818902
vt 0.568386 0.818048
vt 0.567925 0.813238
vt 0.568370 0.809882
vt 0.563823 0.813384
vt 0.726120 0.741067
vt 0.739611 0.711703
vt 0.199610 0.397145
vt 0.178262 0.455541
vt 0.170353 0.397196
vt 0.347285 0.456612
vt 0.269498 0.495139
vt 0.252355 0.446576
vt 0.722575 0.404388
vt 0.727783 0.461306
vt 0.719973 0.289910
vt 0.721722 0.253409
vt 0.721907 0.214250
vt 0.228144 0.307246
vt 0.727421 0.887407
vt 0.312407 0.524799
vt 0.348100 0.514315
vt 0.755049 0.587547
vt 0.742664 0.643670
vt 0.410289 0.787438
vt 0.373375 0.820763
vt 0.360978 0.788656
vt 0.731950 0.538937
vt 0.773612 0.538342
vt 0.789336 0.571558
vt 0.736145 0.575318
vt 0.370829 0.736772
vt 0.393951 0.733542
vt 0.733656 0.163288
vt 0.595308 0.633305
vt 0.627865 0.674270
vt 0.587187 0.676927
vt 0.717268 0.568219
vt 0.215675 0.276679
vt 0.256343 0.306206
vt 0.167728 0.309672
vt 0.728781 0.909334
vt 0.246882 0.552021
vt 0.280148 0.623544
vt 0.195518 0.608254
vt 0.370605 0.700307
vt 0.390071 0.695575
vt 0.232326 0.226832
vt 0.311444 0.266558
vt 0.740417 0.969662
vt 0.741788 0.921346
vt 0.270081 0.166429
vt 0.300222 0.217087
vt 0.156352 0.227533
vt 0.219440 0.172436
vt 0.734319 0.110382
vt 0.758554 0.999803
vt 0.304848 0.071847
vt 0.330701 0.098491
vt 0.314107 0.101625
vt 0.356094 0.114717
vt 0.351127 0.094633
vt 0.358729 0.093198
vt 0.746497 0.661710
vt 0.226499 0.734670
vt 0.221475 0.716734
vt 0.275719 0.095941
vt 0.300231 0.032816
vt 0.341890 0.058067
vt 0.246668 0.028563
vt 0.264466 0.003593
vt 0.692125 0.792091
vt 0.715008 0.800830
vt 0.692481 0.800906
vt 0.641716 0.836286
vt 0.644262 0.816215
vt 0.636614 0.836488
vt 0.232914 0.804425
vt 0.231985 0.786283
vt 0.257236 -0.000000
vt 0.237172 0.011327
vt 0.279053 0.511726
vt 0.279518 0.559220
vt 0.095876 0.752600
vt 0.128720 0.765702
vt 0.097003 0.769629
vt 0.358729 0.703909
vt 0.243357 0.628848
vt 0.366808 0.649469
vt 0.386046 0.638990
vt 0.241452 0.515439
vt 0.246943 0.499975
vt 0.150789 0.583677
vt 0.193053 0.558222
vt 0.150308 0.196827
vt 0.206848 0.162172
vt 0.310987 0.115440
vt 0.352278 0.159879
vt 0.620052 0.689929
vt 0.587296 0.695214
vt 0.708745 0.784995
vt 0.731222 0.065157
vt 0.155611 0.624241
vt 0.136839 0.594230
vt 0.409007 0.820763
vt 0.372421 0.836523
vt 0.649389 0.786662
vt 0.631477 0.795941
vt 0.630814 0.789256
vt 0.613255 0.839226
vt 0.633654 0.864696
vt 0.613255 0.863052
vt 0.147942 0.840400
vt 0.154266 0.864305
vt 0.147942 0.864345
vt 0.030548 0.602550
vt 0.036418 0.583160
vt 0.037251 0.601964
vt 0.404422 0.939621
vt 0.377431 0.945697
vt 0.378605 0.939621
vt 0.401103 0.916789
vt 0.410252 0.836523
vt 0.358729 0.594489
vt 0.057963 0.611917
vt 0.137612 0.627501
vt 0.114125 0.840400
vt 0.617197 0.770770
vt 0.380411 0.928387
vt 0.382002 0.916789
vt 0.047557 0.606555
vt 0.057903 0.593848
vt 0.046250 0.786783
vt 0.038664 0.803859
vt 0.038664 0.787774
vt 0.634924 0.767543
vt 0.624393 0.779992
vt 0.869619 0.644862
vt 0.855650 0.605370
vt 0.860995 0.587547
vt 0.156957 0.232040
vt 0.197835 0.273028
vt 0.151105 0.280580
vt 0.218953 0.654973
vt 0.192939 0.699082
vt 0.196613 0.628848
vt 0.204699 0.234332
vt 0.217299 0.759067
vt 0.197676 0.785515
vt 0.195044 0.760485
vt 0.005710 0.693943
vt 0.029237 0.713468
vt 0.010746 0.716033
vt 0.018297 0.760244
vt 0.038389 0.755687
vt 0.046165 0.779382
vt 0.026541 0.786783
vt 0.026278 0.780920
vt 0.074014 0.258506
vt 0.029051 0.275417
vt 0.031004 0.254858
vt 0.855011 0.720382
vt 0.876316 0.763595
vt 0.857863 0.763161
vt 0.717268 0.346379
vt 0.095876 0.842756
vt 0.117257 0.864738
vt 0.095876 0.863314
vt 0.221274 0.842817
vt 0.200898 0.849192
vt 0.200640 0.843667
vt 0.001645 0.270687
vt 0.006489 0.250207
vt 0.007500 0.270185
vt 0.878710 0.790980
vt 0.855328 0.785116
vt 0.877892 0.785646
vt 0.709335 0.719037
vt 0.857241 0.774199
vt 0.018662 0.271643
vt 0.220898 0.832467
vt 0.202454 0.823272
vt 0.218034 0.822629
vt 0.023382 0.770057
vt 0.098847 0.276478
vt 0.099050 0.251654
vt 0.339137 0.621132
vt 0.032693 0.688375
vt -0.000000 0.643206
vt 0.047945 0.628848
vt 0.855863 0.697164
vt 0.854338 0.646609
vt 0.882266 0.651483
vt 0.882694 0.699108
vt 0.262823 0.078985
vt 0.686491 0.858575
vt 0.651824 0.854943
vt 0.652402 0.846063
vt 0.876419 0.774650
vt 0.018642 0.251990
vt 0.200158 0.833321
vt 0.042832 0.767557
vt 0.402644 0.928387
vt 0.047404 0.584643
vt 0.138637 0.842179
vt 0.138637 0.862572
vt 0.645899 0.776156
vt 0.098360 0.702358
vt 0.125749 0.748901
vt 0.711041 0.657740
vt 0.253948 0.118114
vt 0.730008 0.006339
vt 0.758509 0.000000
vt 0.219390 0.784620
vt 0.342036 0.303045
vt 0.289970 0.304965
vt 0.341655 0.263365
vt 0.343771 0.340248
vt 0.251222 0.327892
vt 0.230383 0.337090
vt 0.234884 0.397083
vt 0.346455 0.397803
vt 0.235659 0.448720
vt 0.123159 0.636745
vt 0.103371 0.628848
vt 0.286158 0.814671
vt 0.270734 0.826868
vt 0.273117 0.813472
vt 0.590280 0.836015
vt 0.598680 0.844184
vt 0.589616 0.845446
vt 0.274208 0.804445
vt 0.288652 0.805377
vt 0.341090 0.094461
vt 0.344087 0.104024
vt 0.590868 0.808287
vt 0.589129 0.819681
vt 0.587187 0.820288
vt 0.341608 0.854865
vt 0.352181 0.846190
vt 0.351937 0.855586
vt 0.599683 0.838019
vt 0.609815 0.845446
vt 0.595842 0.803188
vt 0.595071 0.800917
vt 0.288652 0.829004
vt 0.271346 0.840573
vt 0.599738 0.835326
vt 0.608208 0.835925
vt 0.341747 0.832176
vt 0.342023 0.845777
vt 0.591762 0.833071
vt 0.341692 0.818696
vt 0.350836 0.811182
vt 0.351621 0.818430
vt 0.352023 0.830312
vt 0.608400 0.801602
vt 0.601791 0.798952
vt 0.602059 0.795941
vt 0.281956 0.848756
vt 0.275771 0.853734
vt 0.271920 0.848206
vt 0.286395 0.841408
vt 0.611323 0.821131
vt 0.612193 0.809406
vt 0.613255 0.821992
vt 0.279248 0.796564
vt 0.279248 0.789469
vt 0.286197 0.796363
vt 0.347518 0.053886
vt 0.061500 0.888034
vt 0.082586 0.883652
vt 0.275800 0.641879
vt 0.231463 0.628848
vt 0.281929 0.628848
vt 0.729513 0.043484
vt 0.034099 0.790994
vt 0.270734 0.804445
vt 0.248738 0.854503
vt 0.248738 0.804971
vt 0.238646 0.641879
vt 0.000000 0.798082
vt 0.015125 0.786783
vt 0.047945 0.874865
vt 0.776154 0.565932
vt 0.223187 0.821330
vt 0.221903 0.850106
vt 0.235118 0.819586
vt 0.328272 0.635516
vt 0.319985 0.648699
vt 0.321402 0.628848
vt 0.329555 0.649133
vt 0.317289 0.710123
vt 0.307746 0.708345
vt 0.331081 0.708951
vt 0.330425 0.742902
vt 0.317289 0.745410
vt 0.332813 0.804126
vt 0.323692 0.759507
vt 0.313716 0.808843
vt 0.323692 0.762482
vt 0.600634 0.826681
vt 0.607026 0.832994
vt 0.592263 0.809463
vt 0.595195 0.818171
vt 0.607190 0.803772
vt 0.601715 0.807497
vt 0.598651 0.809678
vt 0.604411 0.825027
vt 0.606624 0.818918
vt 0.610418 0.810416
vt 0.601595 0.818064
vt 0.596809 0.812909
vt 0.596551 0.825067
vt 0.602056 0.813254
vt 0.604495 0.809979
vt 0.606158 0.813400
vt 0.601611 0.809898
vt 0.785722 0.590119
vt 0.279248 0.716059
vt 0.163276 0.769629
vt 0.587080 0.695277
vt 0.312198 0.844283
vt 0.688504 0.582107
vt 0.504698 0.939621
vt 0.501379 0.916789
vt 0.093201 0.786683
vt 0.884778 0.000000
vt 0.138637 0.864738
vt 0.717268 0.249072
vt 0.891691 0.202883
vt 0.185720 0.833321
vt 0.693152 0.817534
vt 0.633654 0.838261
vt 0.652493 0.628747
vt 0.156907 0.628848
vt 0.339227 0.820194
vt 0.289571 0.716059
vt 0.289653 0.740602
vt 0.522512 0.841411
vt 0.015125 0.874111
vt 0.284612 0.705858
vt 0.050175 0.837358
vt 0.802572 0.582070
vt 0.355570 0.760357
vt 0.717268 0.800566
vt 0.651824 0.628747
vt 0.150288 0.289470
vt 0.613622 0.836488
vt 0.651824 0.793759
vt 0.633654 0.836488
vt 0.154266 0.840436
vt 0.028997 0.582071
vt 0.405684 0.945697
vt 0.130139 0.838417
vt 0.046250 0.807111
vt 0.221475 0.697481
vt 0.047945 0.785696
vt 0.073813 0.277245
vt 0.880729 0.720987
vt 0.117257 0.840400
vt 0.221475 0.848344
vt -0.000000 0.249255
vt 0.854338 0.790407
vt 0.680110 0.866533
vt 0.130139 0.698244
vt 0.710372 0.628747
vt 0.339523 0.211446
vt 0.191663 0.550875
vt 0.341608 0.811222
vt 0.270734 0.853977
vt 0.775410 0.583904
vt 0.221475 0.804445
s 1
usemtl my_white
f 315/1/1 141/2/1 111/3/1
f 111/4/2 107/5/3 7/6/4
f 117/13/11 182/14/12 5/15/13
f 182/14/12 12/16/14 5/15/13
f 7/6/15 108/17/16 3/18/17
f 184/19/18 1/20/19 174/21/20
f 175/24/24 10/25/25 2/26/26
f 10/27/27 47/28/28 46/29/29
f 6/30/30 146/31/31 356/32/32
f 15/33/33 358/34/34 146/31/35
f 10/27/36 41/35/37 38/36/38
f 303/37/39 19/38/40 12/16/41
f 10/39/42 45/40/43 2/41/44
f 15/33/45 11/42/45 39/43/45
f 3/18/46 104/44/46 13/45/46
f 1/46/47 13/45/48 64/47/49
f 174/21/50 64/48/51 259/49/52
f 38/50/53 113/51/54 116/52/55
f 16/53/56 42/54/57 41/35/58
f 198/55/59 10/27/60 189/56/61
f 17/57/62 198/55/63 199/58/64
f 195/61/68 21/62/69 205/63/70
f 21/66/72 75/67/73 24/68/74
f 301/69/75 22/70/76 19/38/77
f 205/63/78 24/71/79 209/72/80
f 2/26/87 140/79/87 175/24/87
f 213/80/88 92/81/89 289/82/90
f 45/107/109 48/108/109 44/109/109
f 41/35/110 42/54/110 40/110/110
f 38/50/111 41/111/111 40/112/111
f 40/110/112 42/54/112 39/113/112
f 17/57/113 39/113/114 42/54/115
f 44/115/119 38/50/120 35/116/121
f 24/68/122 75/67/122 74/117/122
f 46/120/126 49/121/127 45/40/128
f 24/122/129 270/123/130 209/124/131
f 302/125/132 18/126/133 22/70/134
f 48/127/135 47/128/136 44/115/137
f 47/28/138 50/129/138 46/29/138
f 51/145/148 56/146/148 50/129/148
f 37/22/149 11/147/149 6/23/149
f 48/127/150 59/148/151 51/149/152
f 48/108/153 57/150/153 58/151/153
f 49/121/154 56/152/155 57/153/156
f 64/163/165 66/164/166 65/165/167
f 259/49/168 14/166/169 195/61/170
f 66/167/171 67/168/172 65/169/173
f 21/170/174 68/171/175 20/172/176
f 13/45/177 68/173/178 66/167/179
f 72/174/180 88/175/181 91/176/182
f 72/177/183 90/178/184 69/179/185
f 80/180/186 72/177/183 69/179/185
f 71/184/190 83/185/191 70/186/192
f 80/187/193 70/188/193 83/189/193
f 74/204/201 237/205/202 270/123/203
f 71/184/215 89/216/216 88/217/217
f 39/218/218 11/147/218 37/22/218
f 14/219/219 91/220/220 21/221/221
f 65/169/222 88/217/223 89/216/224
f 89/222/225 64/163/226 65/165/227
f 64/163/228 90/223/228 14/224/228
f 90/223/229 70/188/230 69/225/231
f 15/226/232 199/58/233 288/227/234
f 93/90/236 222/228/237 32/91/238
f 93/232/243 214/233/244 219/234/245
f 2/242/260 44/109/261 35/243/262
f 43/244/263 213/245/264 237/205/265
f 304/247/269 94/248/270 25/249/271
f 21/170/272 88/175/273 67/250/274
f 81/210/275 71/251/275 72/174/275
f 106/59/276 5/252/277 12/253/278
f 73/64/279 12/253/280 19/254/281
f 105/255/282 117/256/282 5/252/282
f 118/257/286 105/255/287 104/44/288
f 184/19/292 111/3/293 7/260/294
f 118/257/288 3/18/288 108/17/288
f 114/262/298 2/242/299 35/243/300
f 115/261/305 111/4/2 2/264/306
f 113/51/307 39/218/308 37/22/309
f 92/81/316 218/266/317 289/82/318
f 306/316/379 25/249/380 18/126/381
f 141/2/382 2/26/383 111/3/384
f 147/329/398 364/330/399 360/331/400
f 358/332/401 147/333/402 146/334/403
f 146/31/404 360/331/405 356/32/406
f 147/333/407 362/335/408 148/336/409
f 148/337/410 368/338/411 364/339/412
f 362/340/413 149/341/414 148/342/415
f 149/343/416 370/344/417 368/338/418
f 366/345/419 150/346/420 149/341/421
f 150/346/422 367/347/423 151/348/424
f 150/349/425 373/350/426 370/344/427
f 315/1/479 316/376/479 348/377/479
f 310/378/480 316/379/481 185/380/482
f 182/14/489 323/386/490 180/387/491
f 192/388/492 182/14/489 180/387/491
f 178/389/493 310/378/494 185/380/495
f 176/390/496 184/19/497 174/21/498
f 190/393/502 175/24/503 177/394/504
f 190/395/505 241/396/506 231/397/507
f 356/32/508 191/398/509 181/385/510
f 357/399/511 288/400/512 196/401/513
f 190/395/514 234/402/515 197/403/516
f 202/404/517 303/37/518 192/388/519
f 190/405/520 239/406/521 240/407/522
f 196/401/523 232/408/523 191/398/523
f 178/389/524 193/409/524 307/410/524
f 176/411/525 193/409/526 178/389/527
f 174/21/528 258/412/529 176/390/530
f 321/413/531 233/414/532 231/415/533
f 197/403/534 235/416/535 200/417/536
f 198/55/537 190/395/538 197/403/539
f 198/55/540 200/417/541 199/58/542
f 195/61/546 204/420/547 194/421/548
f 204/424/550 271/425/551 203/418/552
f 206/426/553 301/69/554 202/404/555
f 205/63/556 208/427/557 204/420/558
f 177/394/565 175/24/565 347/434/565
f 213/80/566 290/435/567 212/436/568
f 239/454/109 242/455/109 243/456/109
f 234/402/587 233/457/587 235/416/587
f 231/415/588 233/414/588 234/458/588
f 233/457/589 232/459/589 235/416/589
f 200/417/590 232/459/591 196/460/592
f 231/415/596 238/463/597 228/464/598
f 208/465/599 269/466/599 271/425/599
f 240/407/603 243/469/604 244/470/605
f 270/123/606 208/471/607 209/124/608
f 201/472/609 302/125/610 206/426/611
f 241/473/612 242/474/613 238/463/614
f 240/475/138 245/476/138 241/396/138
f 250/492/148 245/476/148 244/493/148
f 230/391/621 181/392/621 191/494/621
f 253/495/622 242/474/623 245/496/624
f 242/455/153 251/497/153 243/456/153
f 243/469/625 250/498/626 244/470/627
f 258/508/634 261/509/635 193/510/636
f 259/49/637 194/421/638 258/412/639
f 262/511/640 261/512/641 260/513/642
f 263/514/643 204/515/644 203/516/645
f 193/409/646 263/517/647 203/418/648
f 284/518/649 267/519/650 287/520/651
f 286/521/652 267/522/653 264/523/654
f 276/524/655 267/522/653 277/525/656
f 266/529/660 279/530/661 278/531/662
f 265/532/193 276/533/193 279/534/193
f 237/205/670 269/548/671 270/123/672
f 285/555/682 266/529/683 284/556/684
f 232/557/685 230/391/685 191/494/685
f 287/558/686 194/559/687 204/560/688
f 260/513/689 284/556/690 262/511/691
f 258/508/692 285/561/693 260/562/694
f 258/508/695 194/563/695 286/564/695
f 286/564/696 265/532/697 285/561/698
f 199/58/699 196/460/700 288/227/701
f 222/228/703 291/444/704 223/443/705
f 214/233/710 291/568/711 219/234/712
f 177/578/725 238/579/726 239/454/727
f 213/245/728 236/580/729 237/205/730
f 304/247/734 292/582/735 214/583/736
f 204/515/737 284/518/738 287/520/739
f 266/584/275 277/552/275 267/519/275
f 309/419/740 180/585/741 308/586/742
f 268/423/743 192/587/744 309/419/544
f 308/586/745 180/585/745 323/588/745
f 308/586/749 324/589/750 307/410/751
f 184/19/755 316/376/756 315/1/757
f 178/389/751 324/589/751 311/590/751
f 319/594/761 177/578/762 320/595/763
f 320/462/768 316/379/481 317/593/769
f 232/557/770 318/453/771 230/391/772
f 218/266/779 290/435/780 289/82/781
f 210/646/842 306/316/843 201/472/844
f 177/394/845 348/377/846 316/376/847
f 364/330/861 361/655/862 360/331/863
f 361/656/864 358/332/865 357/657/866
f 360/331/867 357/399/868 356/32/869
f 361/656/870 362/335/871 359/658/872
f 368/338/873 365/659/874 364/339/875
f 369/660/876 362/340/877 365/661/878
f 370/344/879 369/662/880 368/338/881
f 371/663/882 366/345/883 369/660/884
f 371/663/885 367/347/886 363/664/887
f 373/350/888 371/665/889 370/344/890
f 111/4/2 112/263/943 107/5/3
f 117/13/11 322/265/946 182/14/12
f 182/14/12 303/37/947 12/16/14
f 3/18/17 1/46/948 7/6/15
f 7/6/15 107/5/16 108/17/16
f 184/19/18 7/260/949 1/20/19
f 175/24/24 189/689/951 10/25/25
f 10/27/27 38/36/952 47/28/28
f 356/32/32 183/11/953 6/30/30
f 6/30/30 11/42/954 146/31/31
f 146/31/35 11/42/955 15/33/33
f 15/33/33 288/400/956 358/34/34
f 10/27/36 16/53/957 41/35/37
f 303/37/39 301/69/958 19/38/40
f 10/39/42 46/120/959 45/40/43
f 1/46/47 3/18/960 13/45/48
f 174/21/50 1/20/961 64/48/51
f 114/114/962 35/116/963 38/50/53
f 38/50/53 40/112/964 113/51/54
f 116/52/55 114/114/962 38/50/53
f 16/53/56 17/57/965 42/54/57
f 198/55/59 16/53/966 10/27/60
f 17/57/62 16/53/967 198/55/63
f 195/61/68 14/166/968 21/62/69
f 21/66/72 20/60/969 75/67/73
f 301/69/75 302/125/970 22/70/76
f 205/63/78 21/62/971 24/71/79
f 213/80/88 27/690/974 92/81/89
f 45/107/109 49/691/109 48/108/109
f 17/57/113 15/226/978 39/113/114
f 44/115/119 47/128/980 38/50/120
f 46/120/126 50/692/982 49/121/127
f 24/122/129 74/204/983 270/123/130
f 302/125/132 306/316/984 18/126/133
f 48/127/135 51/149/985 47/128/136
f 47/28/138 51/145/138 50/129/138
f 51/145/148 59/696/148 56/146/148
f 48/127/150 58/156/988 59/148/151
f 48/108/153 49/691/153 57/150/153
f 49/121/154 50/692/989 56/152/155
f 64/163/165 13/698/992 66/164/166
f 259/49/168 64/48/993 14/166/169
f 66/167/171 68/173/994 67/168/172
f 21/170/174 67/250/995 68/171/175
f 13/45/177 20/60/996 68/173/178
f 72/174/180 71/251/997 88/175/181
f 72/177/183 91/220/998 90/178/184
f 80/180/186 81/213/999 72/177/183
f 71/184/190 82/208/1001 83/185/191
f 80/187/193 69/225/193 70/188/193
f 74/204/201 43/244/1003 237/205/202
f 71/184/215 70/186/1007 89/216/216
f 14/219/219 90/178/1008 91/220/220
f 65/169/222 67/168/1009 88/217/223
f 89/222/225 90/223/1010 64/163/226
f 90/223/229 89/222/1011 70/188/230
f 15/226/232 17/57/1012 199/58/233
f 93/90/236 219/703/1013 222/228/237
f 93/232/243 94/229/1015 214/233/244
f 2/242/260 45/107/727 44/109/261
f 43/244/263 27/705/1020 213/245/264
f 304/247/269 214/583/1022 94/248/270
f 21/170/272 91/176/1023 88/175/273
f 81/210/275 82/212/275 71/251/275
f 106/59/276 105/255/1004 5/252/277
f 73/64/279 106/59/65 12/253/280
f 118/257/286 117/256/1025 105/255/287
f 184/19/292 315/1/1027 111/3/293
f 118/257/288 104/44/288 3/18/288
f 114/262/298 115/706/1029 2/242/299
f 115/261/305 112/263/943 111/4/2
f 113/51/307 40/112/1031 39/218/308
f 92/81/316 30/105/1034 218/266/317
f 306/316/379 304/247/1054 25/249/380
f 141/2/382 140/79/1055 2/26/383
f 147/329/398 148/714/1060 364/330/399
f 358/332/401 359/658/1061 147/333/402
f 146/31/404 147/329/1062 360/331/405
f 147/333/407 359/658/1063 362/335/408
f 148/337/410 149/343/1064 368/338/411
f 362/340/413 366/345/1065 149/341/414
f 149/343/416 150/349/1066 370/344/417
f 366/345/419 363/664/1067 150/346/420
f 150/346/422 363/664/1068 367/347/423
f 150/349/425 151/351/1069 373/350/426
f 310/378/480 317/593/769 316/379/481
f 182/14/489 322/265/1084 323/386/490
f 192/388/492 303/37/1085 182/14/489
f 185/380/495 176/411/1086 178/389/493
f 178/389/493 311/590/494 310/378/494
f 176/390/496 185/716/1087 184/19/497
f 190/393/502 189/689/1089 175/24/503
f 190/395/505 240/475/29 241/396/506
f 181/385/510 183/11/1090 356/32/508
f 356/32/508 357/399/1091 191/398/509
f 196/401/513 191/398/1092 357/399/511
f 357/399/511 358/34/1093 288/400/512
f 190/395/514 231/397/1094 234/402/515
f 202/404/517 301/69/1095 303/37/518
f 190/405/520 177/717/1096 239/406/521
f 176/411/525 258/718/1097 193/409/526
f 174/21/528 259/49/1098 258/412/529
f 231/415/533 228/464/1099 319/461/1100
f 321/413/531 318/453/764 233/414/532
f 231/415/533 319/461/1100 321/413/531
f 197/403/534 234/402/1101 235/416/535
f 198/55/537 189/56/1102 190/395/538
f 198/55/540 197/403/1103 200/417/541
f 195/61/546 205/63/1104 204/420/547
f 204/424/550 208/465/1105 271/425/551
f 206/426/553 302/125/1106 301/69/554
f 205/63/556 209/72/1107 208/427/557
f 213/80/566 289/82/1110 290/435/567
f 239/454/109 238/579/109 242/455/109
f 200/417/590 235/416/1114 232/459/591
f 231/415/596 241/473/1116 238/463/597
f 240/407/603 239/406/1118 243/469/604
f 270/123/606 269/548/1119 208/471/607
f 201/472/609 306/316/1120 302/125/610
f 241/473/612 245/496/1121 242/474/613
f 240/475/138 244/493/138 245/476/138
f 250/492/148 253/500/148 245/476/148
f 253/495/622 252/502/1124 242/474/623
f 242/455/153 252/725/153 251/497/153
f 243/469/625 251/506/1125 250/498/626
f 258/508/634 260/562/1128 261/509/635
f 259/49/637 195/61/1129 194/421/638
f 262/511/640 263/517/1130 261/512/641
f 263/514/643 262/727/1131 204/515/644
f 193/409/646 261/512/1132 263/517/647
f 284/518/649 266/584/997 267/519/650
f 286/521/652 287/558/1133 267/522/653
f 276/524/655 264/523/654 267/522/653
f 266/529/660 265/729/1135 279/530/661
f 265/532/193 264/730/193 276/533/193
f 237/205/670 236/580/1137 269/548/671
f 285/555/682 265/729/1140 266/529/683
f 287/558/686 286/521/1141 194/559/687
f 260/513/689 285/555/1142 284/556/690
f 258/508/692 286/564/1143 285/561/693
f 286/564/696 264/730/231 265/532/697
f 199/58/699 200/417/1144 196/460/700
f 222/228/703 219/703/1145 291/444/704
f 214/233/710 292/566/1147 291/568/711
f 177/578/725 228/736/1152 238/579/726
f 213/245/728 212/737/1153 236/580/729
f 304/247/734 210/646/1155 292/582/735
f 204/515/737 262/727/1156 284/518/738
f 266/584/275 278/553/275 277/552/275
f 309/419/740 192/587/1157 180/585/741
f 268/423/743 202/738/1158 192/587/744
f 308/586/749 323/588/1160 324/589/750
f 184/19/755 185/716/1162 316/376/756
f 178/389/751 307/410/751 324/589/751
f 319/594/761 228/736/1164 177/578/762
f 320/462/768 177/739/1166 316/379/481
f 232/557/770 233/414/1167 318/453/771
f 218/266/779 217/449/1170 290/435/780
f 210/646/842 304/247/1192 306/316/843
f 177/394/845 347/434/1193 348/377/846
f 364/330/861 365/742/1198 361/655/862
f 361/656/864 359/658/1199 358/332/865
f 360/331/867 361/655/1200 357/399/868
f 361/656/870 365/743/1201 362/335/871
f 368/338/873 369/662/1202 365/659/874
f 369/660/876 366/345/1203 362/340/877
f 370/344/879 371/665/1204 369/662/880
f 371/663/882 363/664/1205 366/345/883
f 371/663/885 374/667/1206 367/347/886
f 373/350/888 374/666/1207 371/665/889
usemtl my_black
f 4/7/5 110/8/6 109/9/7
f 110/10/8 183/11/9 314/12/10
f 4/7/21 37/22/22 6/23/23
f 106/59/65 20/60/66 13/45/67
f 20/60/71 73/64/71 23/65/71
f 119/73/81 29/74/82 26/75/83
f 120/76/84 18/77/85 25/78/86
f 27/83/91 29/74/92 92/84/93
f 29/74/94 28/85/94 31/86/94
f 30/87/95 31/86/95 32/88/95
f 31/89/96 93/90/96 32/91/96
f 36/106/108 113/51/108 37/22/108
f 4/7/116 114/114/117 36/106/118
f 22/118/123 103/119/124 23/65/125
f 100/130/139 54/131/140 53/132/141
f 54/133/142 52/134/142 53/135/142
f 101/136/143 53/137/143 52/138/143
f 101/139/144 55/140/145 102/141/146
f 99/142/147 55/143/147 54/144/147
f 56/146/157 63/154/157 60/155/157
f 58/156/158 63/157/159 59/148/160
f 57/158/161 62/159/161 58/160/161
f 57/153/162 60/161/163 61/162/164
f 96/181/187 78/182/188 77/183/189
f 110/10/194 188/190/195 9/191/196
f 78/192/142 76/193/142 77/194/142
f 97/195/143 77/196/143 76/197/143
f 97/198/197 79/199/198 98/200/199
f 98/201/147 78/202/147 95/203/147
f 75/67/200 20/60/200 23/65/200
f 104/44/204 106/59/205 13/45/206
f 80/187/207 87/206/207 84/207/207
f 82/208/208 87/209/209 83/185/210
f 81/210/211 86/211/211 82/212/211
f 81/213/212 84/214/213 85/215/214
f 92/84/235 29/74/235 30/87/235
f 31/86/239 30/87/239 29/74/239
f 94/229/240 31/230/241 28/231/242
f 84/207/246 98/201/246 95/203/246
f 86/235/247 98/200/248 87/209/249
f 86/211/143 96/236/143 97/195/143
f 85/215/250 95/237/251 96/181/252
f 63/154/253 99/142/253 60/155/253
f 62/238/254 102/141/255 63/157/256
f 62/239/143 100/240/143 101/136/143
f 61/162/257 99/241/258 100/130/259
f 103/119/266 27/83/267 43/246/268
f 73/64/283 22/118/284 23/65/285
f 108/17/16 107/5/16 8/258/16
f 109/9/289 9/259/290 8/258/291
f 109/9/295 115/261/296 4/7/297
f 116/52/301 36/106/301 114/114/301
f 112/263/302 8/258/303 107/5/304
f 118/257/288 108/17/288 8/258/288
f 322/265/310 9/191/311 188/190/312
f 118/257/313 9/259/314 117/256/315
f 23/65/319 43/246/320 74/117/321
f 123/267/322 130/268/323 127/269/324
f 121/270/325 124/271/326 120/272/327
f 122/273/328 123/267/329 119/274/330
f 121/275/331 25/78/332 28/85/333
f 122/276/334 26/75/335 103/119/336
f 132/277/337 158/278/338 159/279/339
f 122/280/340 124/281/341 126/282/342
f 119/283/343 125/284/344 121/270/345
f 132/277/337 160/285/346 136/286/346
f 127/269/347 134/287/348 131/288/349
f 123/289/350 157/290/351 125/284/352
f 124/281/353 130/291/354 126/282/355
f 128/292/356 156/293/356 158/278/356
f 134/294/357 136/295/358 138/296/359
f 130/291/360 132/297/361 134/294/362
f 135/298/363 162/299/363 163/300/363
f 124/271/364 157/290/365 156/293/366
f 135/301/367 138/302/367 139/303/367
f 134/287/368 135/301/369 131/288/370
f 131/304/371 155/305/371 127/306/371
f 136/286/372 162/299/372 139/307/372
f 139/308/373 138/296/373 136/295/373
f 25/249/374 94/248/374 28/309/374
f 151/351/428 376/352/429 373/350/430
f 151/348/431 375/353/432 152/354/433
f 376/352/434 153/355/435 379/356/436
f 375/353/437 153/357/438 152/354/439
f 153/357/440 372/358/440 378/359/440
f 379/356/441 153/355/441 378/360/441
f 154/361/442 164/362/443 157/290/444
f 159/279/445 165/363/445 167/364/445
f 156/293/446 164/362/447 129/365/448
f 163/300/449 171/366/449 173/367/449
f 159/279/450 168/368/450 160/285/450
f 155/305/451 137/369/451 154/361/451
f 161/370/452 133/371/452 155/305/452
f 160/285/453 171/366/454 162/299/453
f 131/304/455 163/300/455 161/370/455
f 127/306/456 154/361/456 123/289/456
f 137/369/457 166/372/458 164/362/459
f 166/372/460 167/364/461 165/363/462
f 129/365/463 166/372/464 165/363/465
f 169/373/466 173/367/467 172/374/468
f 166/372/469 170/375/470 169/373/471
f 168/368/472 172/374/473 171/366/454
f 169/373/474 168/368/474 167/364/475
f 171/366/476 172/374/476 173/367/476
f 161/370/477 173/367/477 170/375/477
f 158/278/478 129/365/478 165/363/478
f 313/381/483 179/382/484 312/383/485
f 313/384/486 183/11/487 181/385/488
f 230/391/499 179/382/500 181/392/501
f 203/418/543 309/419/544 193/409/545
f 203/418/549 207/422/549 268/423/549
f 216/428/559 325/429/560 211/430/561
f 201/431/562 326/432/563 210/433/564
f 212/437/569 216/428/570 211/430/571
f 216/428/572 220/438/572 215/439/572
f 217/440/573 223/441/573 220/438/573
f 220/442/574 223/443/574 291/444/574
f 229/452/586 230/391/586 318/453/586
f 179/382/593 319/461/594 320/462/595
f 305/467/600 206/468/601 207/422/602
f 298/477/615 248/478/616 297/479/617
f 246/480/142 248/481/142 247/482/142
f 299/483/143 247/484/143 298/485/143
f 249/486/618 299/487/619 300/488/620
f 297/489/147 249/490/147 300/491/147
f 250/492/157 257/499/157 253/500/157
f 257/501/628 252/502/629 253/495/630
f 256/503/161 251/504/161 252/505/161
f 251/506/631 254/507/632 250/498/633
f 294/526/657 274/527/658 293/528/659
f 188/190/663 313/384/664 187/535/665
f 272/536/142 274/537/142 273/538/142
f 295/539/143 273/540/143 294/541/143
f 275/542/666 295/543/667 296/544/668
f 274/545/147 296/546/147 293/547/147
f 271/425/669 207/422/669 203/418/669
f 309/419/673 307/410/674 193/409/675
f 276/533/207 283/549/207 279/534/207
f 283/550/676 278/531/677 279/530/678
f 282/551/211 277/552/211 278/553/211
f 277/525/679 280/554/680 276/524/681
f 290/565/702 217/440/702 216/428/702
f 220/438/706 216/428/706 217/440/706
f 292/566/707 220/567/708 291/568/709
f 280/569/246 296/546/246 283/549/246
f 296/544/713 282/570/714 283/550/715
f 282/551/143 294/541/143 281/571/143
f 281/572/716 293/528/717 280/554/718
f 297/489/253 257/499/253 254/573/253
f 300/488/719 256/574/720 257/501/721
f 256/575/143 298/485/143 255/576/143
f 255/577/722 297/479/723 254/507/724
f 212/437/731 305/467/732 236/581/733
f 206/468/746 268/423/747 207/422/748
f 311/590/494 186/591/494 310/378/494
f 187/592/752 312/383/753 186/591/754
f 312/383/758 320/462/759 317/593/760
f 229/452/764 321/413/764 319/461/764
f 186/591/765 317/593/766 310/378/767
f 324/589/751 186/591/751 311/590/751
f 322/265/773 187/535/774 323/386/775
f 187/592/776 324/589/777 323/588/778
f 269/466/782 305/467/783 207/422/784
f 329/596/785 336/597/786 332/598/787
f 330/599/788 327/600/789 326/601/790
f 329/596/791 328/602/792 325/603/793
f 215/439/794 326/432/795 327/604/796
f 305/467/797 325/429/798 328/605/799
f 338/606/800 385/607/801 334/608/801
f 328/609/802 330/610/803 326/611/804
f 331/612/805 325/613/806 327/600/807
f 387/614/808 338/606/800 342/615/809
f 333/616/810 340/617/811 336/597/812
f 384/618/813 329/619/814 331/612/815
f 336/620/816 330/610/817 332/621/818
f 334/608/819 383/622/819 330/599/819
f 340/623/820 342/624/821 338/625/822
f 336/620/823 338/625/824 334/626/825
f 341/627/826 389/628/826 345/629/826
f 330/599/827 384/618/828 331/612/829
f 341/630/830 345/631/830 344/632/830
f 341/630/831 340/617/832 337/633/833
f 382/634/834 337/635/834 333/636/834
f 389/628/835 342/615/835 345/629/835
f 345/637/836 342/638/836 344/639/836
f 210/433/837 215/439/837 292/640/837
f 376/352/891 374/666/892 373/350/893
f 374/667/894 375/353/895 367/347/896
f 376/352/897 380/668/898 377/669/899
f 380/670/900 375/353/901 377/671/902
f 380/670/903 378/359/903 372/358/903
f 379/356/904 378/360/904 380/668/904
f 391/672/905 381/673/906 384/618/907
f 386/674/908 392/675/908 385/607/908
f 383/622/909 391/672/910 384/618/911
f 390/676/912 398/677/912 389/628/912
f 395/678/913 386/674/913 387/614/913
f 343/679/914 382/634/914 381/673/914
f 339/680/915 388/681/915 382/634/915
f 398/677/916 387/614/917 389/628/917
f 337/635/918 390/676/918 341/627/918
f 381/673/919 333/636/919 329/619/920
f 393/682/921 343/679/922 391/672/923
f 394/683/924 393/682/925 392/675/926
f 335/684/927 393/682/928 391/672/929
f 396/685/930 400/686/931 397/687/932
f 393/682/933 397/687/934 339/680/935
f 395/678/936 398/677/916 399/688/937
f 395/678/938 396/685/938 394/683/939
f 398/677/940 400/686/940 399/688/940
f 388/681/941 400/686/941 390/676/941
f 385/607/942 335/684/942 383/622/942
f 4/7/5 6/23/944 110/8/6
f 110/10/8 6/30/945 183/11/9
f 4/7/21 36/106/950 37/22/22
f 106/59/65 73/64/279 20/60/66
f 119/73/81 121/275/972 29/74/82
f 120/76/84 122/276/973 18/77/85
f 27/83/91 26/75/975 29/74/92
f 4/7/116 115/261/979 114/114/117
f 22/118/123 18/77/981 103/119/124
f 100/130/139 99/241/986 54/131/140
f 54/133/142 55/693/142 52/134/142
f 101/136/143 100/240/143 53/137/143
f 101/139/144 52/694/987 55/140/145
f 99/142/147 102/695/147 55/143/147
f 56/146/157 59/696/157 63/154/157
f 58/156/158 62/238/990 63/157/159
f 57/158/161 61/697/161 62/159/161
f 57/153/162 56/152/991 60/161/163
f 96/181/187 95/237/1000 78/182/188
f 110/10/194 314/12/10 188/190/195
f 78/192/142 79/699/142 76/193/142
f 97/195/143 96/236/143 77/196/143
f 97/198/197 76/700/1002 79/199/198
f 98/201/147 79/701/147 78/202/147
f 104/44/204 105/255/1004 106/59/205
f 80/187/207 83/189/207 87/206/207
f 82/208/208 86/235/1005 87/209/209
f 81/210/211 85/702/211 86/211/211
f 81/213/212 80/180/1006 84/214/213
f 94/229/240 93/232/1014 31/230/241
f 84/207/246 87/206/246 98/201/246
f 86/235/247 97/198/1016 98/200/248
f 86/211/143 85/702/143 96/236/143
f 85/215/250 84/214/1017 95/237/251
f 63/154/253 102/695/253 99/142/253
f 62/238/254 101/139/1018 102/141/255
f 62/239/143 61/704/143 100/240/143
f 61/162/257 60/161/1019 99/241/258
f 103/119/266 26/75/1021 27/83/267
f 73/64/283 19/254/1024 22/118/284
f 109/9/289 110/8/1026 9/259/290
f 109/9/295 112/263/1028 115/261/296
f 116/52/301 113/51/301 36/106/301
f 112/263/302 109/9/1030 8/258/303
f 322/265/310 117/13/1032 9/191/311
f 118/257/313 8/258/1033 9/259/314
f 74/117/321 75/67/1035 23/65/319
f 23/65/319 103/119/1036 43/246/320
f 123/267/322 126/707/1037 130/268/323
f 121/270/325 125/284/1038 124/271/326
f 122/273/328 126/707/1039 123/267/329
f 28/85/333 29/74/1040 121/275/331
f 121/275/331 120/76/1041 25/78/332
f 103/119/336 18/77/1042 122/276/334
f 122/276/334 119/73/1043 26/75/335
f 132/277/337 128/292/338 158/278/338
f 122/280/340 120/708/1044 124/281/341
f 119/283/343 123/289/1045 125/284/344
f 132/277/337 159/279/339 160/285/346
f 127/269/347 130/268/1046 134/287/348
f 123/289/350 154/361/1047 157/290/351
f 124/281/353 128/709/1048 130/291/354
f 128/292/356 124/271/356 156/293/356
f 134/294/357 132/297/1049 136/295/358
f 130/291/360 128/709/1050 132/297/361
f 135/298/363 139/307/363 162/299/363
f 124/271/364 125/284/1051 157/290/365
f 134/287/368 138/302/1052 135/301/369
f 131/304/371 161/370/371 155/305/371
f 136/286/372 160/285/372 162/299/372
f 151/351/428 152/715/1070 376/352/429
f 151/348/431 367/347/1071 375/353/432
f 376/352/434 152/715/1072 153/355/435
f 375/353/437 372/358/1073 153/357/438
f 154/361/442 137/369/1074 164/362/443
f 159/279/445 158/278/445 165/363/445
f 156/293/446 157/290/1075 164/362/447
f 163/300/449 162/299/449 171/366/449
f 159/279/450 167/364/450 168/368/450
f 155/305/451 133/371/451 137/369/451
f 161/370/452 170/375/452 133/371/452
f 160/285/453 168/368/472 171/366/454
f 131/304/455 135/298/455 163/300/455
f 127/306/456 155/305/456 154/361/456
f 137/369/457 133/371/1076 166/372/458
f 166/372/460 169/373/1077 167/364/461
f 129/365/463 164/362/1078 166/372/464
f 169/373/466 170/375/1079 173/367/467
f 166/372/469 133/371/1080 170/375/470
f 169/373/474 172/374/1081 168/368/474
f 161/370/477 163/300/477 173/367/477
f 158/278/478 156/293/478 129/365/478
f 313/381/483 181/392/1082 179/382/484
f 313/384/486 314/12/1083 183/11/487
f 230/391/499 229/452/1088 179/382/500
f 203/418/543 268/423/743 309/419/544
f 216/428/559 327/604/1108 325/429/560
f 201/431/562 328/605/1109 326/432/563
f 212/437/569 290/565/1111 216/428/570
f 179/382/593 229/452/1115 319/461/594
f 305/467/600 201/431/1117 206/468/601
f 298/477/615 247/720/1122 248/478/616
f 246/480/142 249/721/142 248/481/142
f 299/483/143 246/722/143 247/484/143
f 249/486/618 246/723/1123 299/487/619
f 297/489/147 248/724/147 249/490/147
f 250/492/157 254/573/157 257/499/157
f 257/501/628 256/574/1126 252/502/629
f 256/503/161 255/726/161 251/504/161
f 251/506/631 255/577/1127 254/507/632
f 294/526/657 273/728/1134 274/527/658
f 188/190/663 314/12/1083 313/384/664
f 272/536/142 275/731/142 274/537/142
f 295/539/143 272/732/143 273/540/143
f 275/542/666 272/733/1136 295/543/667
f 274/545/147 275/734/147 296/546/147
f 309/419/673 308/586/742 307/410/674
f 276/533/207 280/569/207 283/549/207
f 283/550/676 282/570/1138 278/531/677
f 282/551/211 281/571/211 277/552/211
f 277/525/679 281/572/1139 280/554/680
f 292/566/707 215/735/1146 220/567/708
f 280/569/246 293/547/246 296/546/246
f 296/544/713 295/543/1148 282/570/714
f 282/551/143 295/539/143 294/541/143
f 281/572/716 294/526/1149 293/528/717
f 297/489/253 300/491/253 257/499/253
f 300/488/719 299/487/1150 256/574/720
f 256/575/143 299/483/143 298/485/143
f 255/577/722 298/477/1151 297/479/723
f 212/437/731 211/430/1154 305/467/732
f 206/468/746 202/738/1159 268/423/747
f 187/592/752 313/381/1161 312/383/753
f 312/383/758 179/382/1163 320/462/759
f 229/452/764 318/453/764 321/413/764
f 186/591/765 312/383/1165 317/593/766
f 322/265/773 188/190/1168 187/535/774
f 187/592/776 186/591/1169 324/589/777
f 207/422/784 271/425/1171 269/466/782
f 269/466/782 236/581/1172 305/467/783
f 329/596/785 333/616/1173 336/597/786
f 330/599/788 331/612/1174 327/600/789
f 329/596/791 332/598/1175 328/602/792
f 327/604/796 216/428/1176 215/439/794
f 215/439/794 210/433/1177 326/432/795
f 328/605/799 201/431/1178 305/467/797
f 305/467/797 211/430/1179 325/429/798
f 338/606/800 386/674/1180 385/607/801
f 328/609/802 332/621/1181 330/610/803
f 331/612/805 329/619/1182 325/613/806
f 387/614/808 386/674/1180 338/606/800
f 333/616/810 337/633/1183 340/617/811
f 384/618/813 381/673/1184 329/619/814
f 336/620/816 334/626/1185 330/610/817
f 334/608/819 385/607/819 383/622/819
f 340/623/820 344/740/1186 342/624/821
f 336/620/823 340/623/1187 338/625/824
f 341/627/826 390/676/1188 389/628/826
f 330/599/827 383/622/1189 384/618/828
f 341/630/831 344/632/1190 340/617/832
f 382/634/834 388/681/834 337/635/834
f 389/628/835 387/614/835 342/615/835
f 376/352/891 377/669/1208 374/666/892
f 374/667/894 377/671/1209 375/353/895
f 376/352/897 379/356/1210 380/668/898
f 380/670/900 372/358/1211 375/353/901
f 391/672/905 343/679/1212 381/673/906
f 386/674/908 394/683/908 392/675/908
f 383/622/909 335/684/1213 391/672/910
f 390/676/912 400/686/912 398/677/912
f 395/678/913 394/683/913 386/674/913
f 343/679/914 339/680/914 382/634/914
f 339/680/915 397/687/915 388/681/915
f 398/677/916 395/678/936 387/614/917
f 337/635/918 388/681/918 390/676/918
f 381/673/919 382/634/919 333/636/919
f 393/682/921 339/680/1214 343/679/922
f 394/683/924 396/685/1215 393/682/925
f 335/684/927 392/675/1216 393/682/928
f 396/685/930 399/688/1217 400/686/931
f 393/682/933 396/685/1218 397/687/934
f 395/678/938 399/688/1219 396/685/938
f 388/681/941 397/687/941 400/686/941
f 385/607/942 392/675/942 335/684/942
usemtl my_pink
f 32/92/97 221/93/98 33/94/99
f 33/94/100 225/95/101 34/96/102
f 34/97/103 225/98/103 227/99/103
f 227/100/104 218/101/104 30/102/104
f 33/103/105 34/104/105 32/88/105
f 227/99/106 30/105/106 34/97/106
f 30/87/107 32/88/107 34/104/107
f 315/310/375 142/311/376 141/312/377
f 142/313/378 145/314/378 143/315/378
f 140/317/385 349/318/386 175/319/387
f 141/320/388 143/315/388 140/321/388
f 355/322/389 144/323/390 354/324/391
f 349/318/392 145/325/393 355/326/394
f 346/327/395 144/328/396 142/311/397
f 223/445/575 221/93/576 222/446/577
f 224/447/578 225/95/579 221/93/580
f 226/448/581 227/99/581 225/98/581
f 227/99/582 217/449/582 218/266/582
f 224/450/583 223/441/583 226/451/583
f 227/99/584 226/448/584 217/449/584
f 217/440/585 226/451/585 223/441/585
f 350/641/838 315/310/839 348/642/840
f 353/643/841 350/644/841 351/645/841
f 349/318/848 347/647/849 175/319/850
f 351/648/851 348/649/851 347/650/851
f 355/322/852 352/651/853 353/643/854
f 349/318/855 353/652/856 351/653/857
f 352/654/858 346/327/859 350/641/860
f 32/92/97 222/446/976 221/93/98
f 33/94/100 221/93/977 225/95/101
f 315/310/375 346/327/1053 142/311/376
f 142/313/378 144/710/378 145/314/378
f 140/317/385 143/711/1056 349/318/386
f 141/320/388 142/313/388 143/315/388
f 355/322/389 145/712/1057 144/323/390
f 349/318/392 143/711/1058 145/325/393
f 346/327/395 354/713/1059 144/328/396
f 223/445/575 224/447/1112 221/93/576
f 224/447/578 226/719/1113 225/95/579
f 350/641/838 346/327/1191 315/310/839
f 353/643/841 352/651/841 350/644/841
f 349/318/848 351/653/1194 347/647/849
f 351/648/851 350/741/851 348/649/851
f 355/322/852 354/324/1195 352/651/853
f 349/318/855 355/326/1196 353/652/856
f 352/654/858 354/713/1197 346/327/859
