# Blender 4.4.3
# www.blender.org
mtllib gun.mtl
o Plane.003
v 0.021747 -0.167287 -0.830330
v 0.021747 -0.167288 0.804687
v 0.021747 0.167288 -0.830330
v 0.021747 0.167287 0.725928
v 0.021747 -0.000563 -0.830330
v 0.021747 -0.000000 0.804688
v 0.021747 0.167288 -0.753707
v 0.021747 0.219226 -0.808247
v 0.021747 0.219226 -0.753707
v 0.021747 0.167287 0.507611
v 0.021747 0.196542 0.725928
v 0.021747 0.196542 0.507611
v 0.021747 -0.167287 -0.171072
v 0.021747 -0.167287 0.189327
v 0.021747 -0.266194 0.638483
v 0.021747 -0.266194 0.219260
v 0.021747 -0.207583 0.694111
v 0.021747 -0.630684 -0.830330
v 0.021747 -0.630684 -0.171073
v 0.021747 -0.345564 -0.171073
v 0.021747 -0.630684 -0.095977
v 0.021747 -0.398986 -0.095977
v 0.021747 -0.795530 0.799664
v 0.021747 -0.795530 0.380442
v 0.021747 -0.530862 0.312672
v 0.021747 -0.530862 0.731895
v 0.021747 -0.881616 0.799664
v 0.021747 -0.881615 0.380442
v 0.021747 -0.398528 0.685189
v 0.021747 -0.398528 0.265966
v -0.023089 0.143993 -0.842541
v -0.023089 -0.000563 -0.842541
v -0.023089 0.143993 -0.901722
v -0.023089 -0.000563 -0.901722
v 0.060224 0.193618 -0.901722
v 0.060224 -0.050188 -0.901722
v 0.060224 0.193619 -2.240629
v 0.060224 -0.050187 -2.240629
v 0.021747 -0.167287 0.088497
v 0.021747 -0.167287 0.143491
v -0.139373 -0.167287 -0.830330
v -0.139373 -0.167288 0.804687
v -0.139373 0.167288 -0.830330
v -0.139373 0.167287 0.725928
v -0.139373 -0.000563 -0.830330
v -0.139373 -0.000000 0.804688
v -0.139373 0.167288 -0.753707
v -0.139373 0.219226 -0.808247
v -0.139373 0.219226 -0.753707
v -0.139373 0.167287 0.507611
v -0.139373 0.196542 0.725928
v -0.139373 0.196542 0.507611
v -0.139373 -0.167287 -0.171072
v -0.139373 -0.167287 0.189327
v -0.139373 -0.266194 0.638483
v -0.139373 -0.266194 0.219260
v -0.139373 -0.207583 0.694111
v -0.139373 -0.630684 -0.830330
v -0.139373 -0.630684 -0.171073
v -0.139373 -0.345564 -0.171073
v -0.139373 -0.630684 -0.095977
v -0.139373 -0.398986 -0.095977
v -0.139373 -0.795530 0.799664
v -0.139373 -0.795530 0.380442
v -0.139373 -0.530862 0.312672
v -0.139373 -0.530862 0.731895
v -0.139373 -0.881616 0.799664
v -0.139373 -0.881615 0.380442
v -0.139373 -0.398528 0.685189
v -0.139373 -0.398528 0.265966
v -0.094538 0.143993 -0.842541
v -0.094538 -0.000563 -0.842541
v -0.094538 0.143993 -0.901722
v -0.094538 -0.000563 -0.901722
v -0.177851 0.193618 -0.901722
v -0.177851 -0.050188 -0.901722
v -0.177851 0.193619 -2.240629
v -0.177851 -0.050187 -2.240629
v -0.139373 -0.167287 0.088497
v -0.139373 -0.167287 0.143491
v 0.021747 -0.398986 0.139265
v -0.139373 -0.398986 0.139265
v 0.021747 -0.359603 0.189340
v 0.021747 -0.386016 0.201382
v -0.139373 -0.359603 0.189340
v -0.139373 -0.386016 0.201382
v -0.038501 -0.167287 0.088497
v -0.038501 -0.167287 0.143491
v -0.038501 -0.282099 0.099779
v -0.038501 -0.296690 0.126104
v -0.038501 -0.311100 0.064674
v -0.038501 -0.325690 0.090998
v -0.079162 -0.167287 0.088497
v -0.079162 -0.167287 0.143491
v -0.079162 -0.282099 0.099779
v -0.079162 -0.296690 0.126104
v -0.079162 -0.311100 0.064674
v -0.079162 -0.325690 0.090998
vn 1.0000 -0.0000 -0.0000
vn 0.2628 -0.0000 -0.9649
vn -0.0000 -0.0000 1.0000
vn -0.2628 -0.0000 -0.9649
vn -1.0000 -0.0000 -0.0000
vn -0.0000 0.3328 0.9430
vn -0.0000 1.0000 -0.0000
vn -0.0000 -0.3328 -0.9430
vn -0.0000 -1.0000 -0.0000
vn -0.0000 -0.2897 -0.9571
vn -0.0000 0.2481 0.9687
vn -0.0000 -0.9396 0.3424
vn -0.0000 -0.6884 0.7253
vn -0.0000 -0.0000 -1.0000
vn -0.0000 0.3913 -0.9203
vn -0.0000 0.8149 0.5797
vn -0.0000 0.4643 -0.8857
vn -0.0000 0.4260 0.9047
vn -0.0000 -0.2481 -0.9687
vn -0.0000 0.7860 -0.6182
vn -0.0000 0.3050 -0.9523
vn -0.0000 -0.9817 -0.1902
vn -0.0000 -0.9789 0.2044
vn -0.0000 -0.8746 -0.4848
vn -0.0000 0.7710 -0.6369
vn -0.0000 -0.7710 0.6369
vn -0.0000 -0.0978 -0.9952
vn -0.0000 -0.1332 0.9911
vn -0.0000 -0.0000 -0.0000
vt 0.499105 0.549327
vt 0.678588 0.709221
vt 0.678917 0.654012
vt 0.475067 0.601166
vt 0.460943 0.556314
vt 0.460677 0.601080
vt 0.442350 0.600971
vt 0.416908 0.540683
vt 0.416458 0.616185
vt 0.001829 0.613714
vt 0.475983 0.437437
vt 0.461489 0.482083
vt 0.475833 0.489326
vt 0.443323 0.437343
vt 0.461618 0.437396
vt 0.417395 0.497296
vt 0.443194 0.482030
vt 0.003711 0.420731
vt 0.417613 0.421928
vt 0.725749 0.942282
vt 0.701180 0.970181
vt 0.725596 0.970314
vt 0.304946 0.947795
vt 0.294582 0.960171
vt 0.304879 0.960227
vt 0.972540 0.943622
vt 0.947972 0.971522
vt 0.972388 0.971655
vt 0.084029 0.867770
vt 0.084416 0.873408
vt 0.088865 0.890702
vt 0.064123 0.885769
vt 0.053347 0.850614
vt 0.040876 0.880292
vt 0.252388 0.918519
vt 0.262752 0.906143
vt 0.252455 0.906087
vt 0.666797 0.941961
vt 0.637540 0.969835
vt 0.666645 0.969994
vt 0.797698 0.942673
vt 0.750012 0.970447
vt 0.797546 0.970705
vt 0.078763 0.872751
vt 0.079272 0.863588
vt 0.687121 0.970105
vt 0.701333 0.942149
vt 0.286094 0.933197
vt 0.285869 0.974619
vt 0.557359 0.941366
vt 0.337757 0.968206
vt 0.557207 0.969399
vt 0.885614 0.943150
vt 0.812523 0.970786
vt 0.885461 0.971182
vt 0.374398 0.926983
vt 0.489251 0.899574
vt 0.374550 0.898950
vt 0.243675 0.932967
vt 0.243900 0.891545
vt 0.328873 0.940125
vt 0.319231 0.968105
vt 0.328721 0.968157
vt 0.900591 0.943231
vt 0.900439 0.971264
vt 0.293774 0.926544
vt 0.293926 0.898512
vt 0.053145 0.931931
vt 0.010501 0.973122
vt 0.052920 0.973352
vt 0.337909 0.940174
vt 0.812676 0.942754
vt 0.164780 0.843962
vt 0.140662 0.883371
vt 0.173541 0.873677
vt 0.319384 0.940073
vt 0.309412 0.968052
vt 0.750165 0.942414
vt 0.010727 0.931700
vt 0.010952 0.890279
vt 0.502164 0.927677
vt 0.542629 0.899864
vt 0.502316 0.899645
vt 0.131901 0.853656
vt 0.600433 0.941601
vt 0.562296 0.969427
vt 0.600280 0.969633
vt 0.489099 0.927606
vt 0.605522 0.941628
vt 0.605370 0.969661
vt 0.264767 0.926387
vt 0.264919 0.898354
vt 0.181777 0.838951
vt 0.190538 0.868666
vt 0.562449 0.941394
vt 0.309565 0.940020
vt 0.075344 0.884398
vt 0.262684 0.918574
vt 0.637692 0.941803
vt 0.948124 0.943490
vt 0.190415 0.891254
vt 0.218670 0.850479
vt 0.190638 0.850326
vt 0.023545 0.838091
vt 0.022809 0.872700
vt 0.035280 0.843022
vt 0.983834 0.971717
vt 0.994874 0.971777
vt 0.983986 0.943685
vt 0.930282 0.356634
vt 0.850986 0.192768
vt 0.829799 0.274525
vt 0.081378 0.872893
vt 0.081344 0.872873
vt 0.078274 0.875866
vt 0.081334 0.872809
vt 0.081337 0.872871
vt 0.081348 0.872874
vt 0.081337 0.872859
vt 0.081343 0.872939
vt 0.082787 0.871239
vt 0.081320 0.872855
vt 0.848549 0.849583
vt 0.848390 0.876241
vt 0.978214 0.877015
vt 0.978372 0.850356
vt 0.957874 0.768269
vt 0.943655 0.727202
vt 0.828051 0.767496
vt 0.813831 0.726429
vt 0.929435 0.686135
vt 0.946770 0.668087
vt 0.981087 0.655813
vt 0.981396 0.604008
vt 0.957315 0.552057
vt 0.957368 0.542998
vt 0.889761 0.542595
vt 0.793854 0.722435
vt 0.790173 0.714233
vt 0.774594 0.726337
vt 0.799611 0.685362
vt 0.889707 0.551655
vt 0.499201 0.533243
vt 0.482311 0.533143
vt 0.475377 0.549186
vt 0.790524 0.654678
vt 0.776330 0.654593
vt 0.474759 0.652796
vt 0.473904 0.796300
vt 0.678062 0.797516
vt 0.701317 0.797655
vt 0.701745 0.725903
vt 0.759300 0.654491
vt 0.442616 0.556205
vt 0.002278 0.538213
vt 0.003493 0.496100
vt 0.294650 0.947739
vt 0.072382 0.858612
vt 0.687274 0.942072
vt 0.542476 0.927897
vt 0.218447 0.891407
vt 0.011074 0.867769
vt 0.995026 0.943744
vt 0.680091 0.331375
vt 0.703354 0.314927
vt 0.703561 0.243301
vt 0.680346 0.243234
vt 0.476546 0.242645
vt 0.476132 0.385897
vt 0.482613 0.505401
vt 0.679932 0.386486
vt 0.499474 0.505450
vt 0.499520 0.489394
vt 0.760174 0.386718
vt 0.777174 0.386767
vt 0.889437 0.490521
vt 0.889411 0.499565
vt 0.956901 0.499760
vt 0.956927 0.490716
vt 0.981423 0.439073
vt 0.981573 0.387358
vt 0.791344 0.386808
vt 0.947426 0.374803
vt 0.800685 0.356260
vt 0.795266 0.319203
vt 0.776075 0.315137
vt 0.791520 0.327357
vt 0.944838 0.315767
vt 0.959395 0.274900
vt 0.980582 0.193142
vt 0.980659 0.166530
vt 0.851063 0.166156
vt 0.815242 0.315392
s 0
usemtl 
f 7/1/1 13/3/1 20/2/1
f 5/4/2 32/6/2 31/5/2
f 31/5/1 32/6/1 34/7/1
f 34/7/3 36/9/3 35/8/3
f 35/8/1 36/9/1 38/10/1
f 45/11/4 43/13/4 71/12/4
f 74/14/5 72/15/5 71/12/5
f 74/14/3 73/17/3 75/16/3
f 78/18/5 76/19/5 75/16/5
f 69/20/6 29/22/6 15/21/6
f 71/23/7 31/25/7 33/24/7
f 70/26/8 30/28/8 25/27/8
f 79/29/9 39/31/9 87/30/9
f 14/32/10 16/34/10 56/33/10
f 74/35/9 34/37/9 32/36/9
f 42/38/3 2/40/3 6/39/3
f 63/41/11 23/43/11 26/42/11
f 94/44/9 80/45/9 79/29/9
f 17/46/12 2/40/12 42/38/12
f 55/47/13 15/21/13 17/46/13
f 33/24/3 35/49/3 75/48/3
f 50/50/7 10/52/7 7/51/7
f 68/53/9 28/55/9 27/54/9
f 58/56/9 18/58/9 19/57/9
f 76/59/3 36/60/3 34/37/3
f 49/61/7 9/63/7 8/62/7
f 64/64/14 24/65/14 28/55/14
f 41/66/14 1/67/14 18/58/14
f 77/68/14 37/70/14 38/69/14
f 47/71/3 7/51/3 9/63/3
f 67/72/3 27/54/3 23/43/3
f 60/73/3 20/75/3 13/74/3
f 75/48/7 35/49/7 37/70/7
f 48/76/15 8/62/15 3/77/15
f 66/78/6 26/42/6 29/22/6
f 78/79/9 38/80/9 36/60/9
f 61/81/3 21/83/3 22/82/3
f 53/84/9 13/74/9 39/31/9
f 51/85/7 11/87/7 12/86/7
f 59/88/9 19/57/9 21/83/9
f 44/89/3 4/90/3 11/87/3
f 45/91/14 5/92/14 1/67/14
f 62/93/16 22/94/16 20/75/16
f 52/95/14 12/86/14 10/52/14
f 43/96/17 3/77/17 31/25/17
f 40/97/7 80/45/7 94/44/7
f 72/98/9 32/36/9 5/92/9
f 46/99/18 6/39/18 4/90/18
f 65/100/19 25/27/19 24/65/19
f 87/30/9 39/31/9 40/97/9
f 80/45/9 40/97/9 14/32/9
f 81/101/7 22/103/7 62/102/7
f 82/104/20 85/106/20 83/105/20
f 56/33/21 16/34/21 83/105/21
f 84/107/22 30/28/22 70/26/22
f 81/108/23 84/107/23 86/109/23
f 55/110/5 65/112/5 64/111/5
f 95/113/5 98/114/5 94/44/5
f 88/115/1 92/117/1 89/116/1
f 97/118/24 91/119/24 92/117/24
f 89/116/25 91/119/25 97/118/25
f 98/114/26 92/117/26 90/120/26
f 93/121/27 87/30/27 89/116/27
f 96/122/28 90/120/28 88/115/28
f 24/123/1 27/125/1 28/124/1
f 27/125/1 26/127/1 23/126/1
f 27/125/1 29/128/1 26/127/1
f 25/129/1 27/125/1 24/123/1
f 30/130/1 27/125/1 25/129/1
f 27/125/1 15/131/1 29/128/1
f 17/132/1 6/134/1 2/133/1
f 30/130/1 15/131/1 27/125/1
f 15/131/1 6/134/1 17/132/1
f 4/135/1 12/137/1 11/136/1
f 15/131/1 4/135/1 6/134/1
f 84/138/1 15/131/1 30/130/1
f 83/139/1 84/138/1 81/140/1
f 16/141/1 84/138/1 83/139/1
f 84/138/1 4/135/1 15/131/1
f 4/135/1 10/142/1 12/137/1
f 7/1/1 8/144/1 9/143/1
f 84/138/1 10/142/1 4/135/1
f 7/1/1 3/145/1 8/144/1
f 16/141/1 10/142/1 84/138/1
f 14/146/1 10/142/1 16/141/1
f 7/1/1 5/4/1 3/145/1
f 14/146/1 7/1/1 10/142/1
f 40/147/1 7/1/1 14/146/1
f 7/1/1 1/148/1 5/4/1
f 1/148/1 19/150/1 18/149/1
f 19/150/1 22/152/1 21/151/1
f 19/150/1 20/2/1 22/152/1
f 7/1/1 19/150/1 1/148/1
f 39/153/1 7/1/1 40/147/1
f 13/3/1 7/1/1 39/153/1
f 7/1/1 20/2/1 19/150/1
f 5/4/2 31/5/2 3/145/2
f 31/5/1 34/7/1 33/154/1
f 34/7/3 35/8/3 33/154/3
f 35/8/1 38/10/1 37/155/1
f 45/11/4 71/12/4 72/15/4
f 74/14/5 71/12/5 73/17/5
f 74/14/3 75/16/3 76/19/3
f 78/18/5 75/16/5 77/156/5
f 69/20/6 15/21/6 55/47/6
f 71/23/7 33/24/7 73/157/7
f 70/26/8 25/27/8 65/100/8
f 79/29/29 87/30/29 93/121/29
f 14/32/10 56/33/10 54/158/10
f 74/35/9 32/36/9 72/98/9
f 42/38/3 6/39/3 46/99/3
f 63/41/11 26/42/11 66/78/11
f 94/44/9 79/29/9 93/121/9
f 17/46/12 42/38/12 57/159/12
f 55/47/13 17/46/13 57/159/13
f 33/24/3 75/48/3 73/157/3
f 50/50/7 7/51/7 47/71/7
f 68/53/9 27/54/9 67/72/9
f 58/56/9 19/57/9 59/88/9
f 76/59/3 34/37/3 74/35/3
f 49/61/7 8/62/7 48/76/7
f 64/64/14 28/55/14 68/53/14
f 41/66/14 18/58/14 58/56/14
f 77/68/14 38/69/14 78/79/14
f 47/71/3 9/63/3 49/61/3
f 67/72/3 23/43/3 63/41/3
f 60/73/3 13/74/3 53/84/3
f 75/48/7 37/70/7 77/68/7
f 48/76/15 3/77/15 43/96/15
f 66/78/6 29/22/6 69/20/6
f 78/79/9 36/60/9 76/59/9
f 61/81/3 22/82/3 62/160/3
f 53/84/9 39/31/9 79/29/9
f 51/85/7 12/86/7 52/95/7
f 59/88/9 21/83/9 61/81/9
f 44/89/3 11/87/3 51/85/3
f 45/91/14 1/67/14 41/66/14
f 62/93/16 20/75/16 60/73/16
f 52/95/14 10/52/14 50/50/14
f 43/96/17 31/25/17 71/23/17
f 40/97/7 94/44/7 88/115/7
f 72/98/9 5/92/9 45/91/9
f 46/99/18 4/90/18 44/89/18
f 65/100/19 24/65/19 64/64/19
f 87/30/9 40/97/9 88/115/9
f 80/45/9 14/32/9 54/158/9
f 81/101/7 62/102/7 82/161/7
f 82/104/20 83/105/20 81/162/20
f 56/33/21 83/105/21 85/106/21
f 84/107/22 70/26/22 86/109/22
f 81/108/23 86/109/23 82/163/23
f 60/164/5 61/166/5 62/165/5
f 59/167/5 41/169/5 58/168/5
f 60/164/5 59/167/5 61/166/5
f 60/164/5 41/169/5 59/167/5
f 45/11/5 48/170/5 43/13/5
f 60/164/5 45/11/5 41/169/5
f 53/171/5 45/11/5 60/164/5
f 45/11/5 49/172/5 48/170/5
f 45/11/5 47/173/5 49/172/5
f 79/174/5 45/11/5 53/171/5
f 80/175/5 45/11/5 79/174/5
f 45/11/5 50/176/5 47/173/5
f 50/176/5 51/178/5 52/177/5
f 44/179/5 42/181/5 46/180/5
f 50/176/5 44/179/5 51/178/5
f 80/175/5 50/176/5 45/11/5
f 54/182/5 50/176/5 80/175/5
f 50/176/5 42/181/5 44/179/5
f 50/176/5 57/183/5 42/181/5
f 56/184/5 50/176/5 54/182/5
f 86/185/5 85/187/5 82/186/5
f 85/187/5 50/176/5 56/184/5
f 50/176/5 55/110/5 57/183/5
f 69/188/5 63/190/5 66/189/5
f 85/187/5 55/110/5 50/176/5
f 55/110/5 63/190/5 69/188/5
f 63/190/5 68/192/5 67/191/5
f 63/190/5 64/111/5 68/192/5
f 86/185/5 55/110/5 85/187/5
f 70/193/5 55/110/5 86/185/5
f 55/110/5 64/111/5 63/190/5
f 65/112/5 55/110/5 70/193/5
f 95/113/5 94/44/5 93/121/5
f 94/44/5 98/114/5 96/122/5
f 98/114/5 95/113/5 97/118/5
f 92/117/1 88/115/1 90/120/1
f 88/115/1 89/116/1 87/30/1
f 89/116/1 92/117/1 91/119/1
f 97/118/24 92/117/24 98/114/24
f 89/116/25 97/118/25 95/113/25
f 98/114/26 90/120/26 96/122/26
f 93/121/27 89/116/27 95/113/27
f 96/122/28 88/115/28 94/44/28
