# Blender 4.4.3
# www.blender.org
mtllib monocarrier.mtl
o model
v -1.342294 -0.085155 -0.877414
v -1.439167 -0.660505 0.380403
v -1.430325 0.232555 -1.145604
v -1.449538 0.288058 -0.017252
v -0.352469 0.394083 -1.160871
v -0.864113 0.442887 0.174707
v -0.205821 -0.199168 -1.381364
v -1.816308 -0.831595 0.226749
v -2.504905 0.525970 -0.210975
v -2.099343 0.446319 -0.650014
v -1.668180 0.239948 0.899932
v -2.558519 0.482493 0.418525
v -1.748246 -1.014779 1.081710
v -1.820149 -1.387480 0.666168
v -1.549258 -0.991218 1.179542
v -1.432359 -1.094887 0.659904
v -1.627517 -0.214006 0.721367
v -1.866338 -0.302379 0.676221
v -1.817430 -1.048112 1.550949
v -1.830210 -1.339582 1.609333
v -1.700595 -1.231148 1.737146
v -1.551412 -1.047791 1.571005
v -1.501793 -1.328514 0.410637
v -1.614592 -1.633854 0.703127
v -1.299056 -1.382315 0.955349
v -1.699337 -1.488389 1.531438
v -1.521936 -1.338335 1.611402
v -1.880720 -1.524825 3.048874
v -1.744936 -1.388680 2.991632
v -1.845593 -1.243239 2.895966
v -1.973234 -1.396076 2.955605
v 0.000002 0.628785 1.063237
v 0.000002 0.468345 0.339213
v 0.000002 -0.245502 0.105025
v 0.000002 -0.792503 0.628824
v 0.000002 -0.625184 1.364849
v 0.000002 0.110512 1.597893
v -0.438120 -0.066560 1.377725
v -0.438120 0.359686 1.103787
v -0.438120 0.364429 0.595958
v -0.438120 -0.067357 0.327082
v -0.438120 -0.518162 0.597012
v -0.438120 -0.520159 1.109465
v -0.663376 -0.066424 0.856968
v -0.207978 0.591225 -1.223508
v -0.293658 0.652283 0.174707
v 0.000002 0.207608 -0.655945
v -0.493194 0.723702 -1.349366
v -0.494417 0.782376 -0.192702
v 0.000002 0.852285 -1.610700
v 0.000002 1.009090 0.308351
v 0.000002 0.867235 1.526857
v -0.740632 0.667617 1.034339
v -1.476922 0.282470 -1.609589
v -1.572411 -0.242882 -1.950767
v -1.878388 0.276502 -1.656916
v 0.205587 -0.199168 -1.381364
v 0.207744 0.591225 -1.223508
v 2.504909 0.525969 -0.210975
v 2.099347 0.446319 -0.650014
v 1.816311 -0.831595 0.226749
v 1.430328 0.232555 -1.145604
v 1.449541 0.288058 -0.017252
v 1.476926 0.282470 -1.609589
v 1.572414 -0.242882 -1.950767
v 1.878391 0.276502 -1.656916
v 1.439171 -0.660505 0.380402
v 1.342298 -0.085155 -0.877414
v 1.668184 0.239947 0.899931
v 2.558523 0.482492 0.418524
v 1.866342 -0.302379 0.676221
v 1.627521 -0.214006 0.721367
v 1.549262 -0.991218 1.179541
v 1.432363 -1.094887 0.659903
v 1.748250 -1.014779 1.081710
v 1.820152 -1.387480 0.666167
v 1.501796 -1.328514 0.410636
v 1.551415 -1.047791 1.571005
v 1.817434 -1.048113 1.550948
v 1.700598 -1.231149 1.737146
v 1.830213 -1.339582 1.609333
v 1.614596 -1.633854 0.703127
v 1.699340 -1.488390 1.531437
v 1.880724 -1.524826 3.048874
v 1.744940 -1.388680 2.991632
v 1.973237 -1.396077 2.955605
v 1.845597 -1.243240 2.895965
v 1.299059 -1.382315 0.955349
v 1.521940 -1.338335 1.611402
v 0.438124 -0.067357 0.327082
v 0.663379 -0.066424 0.856968
v 0.438124 0.364428 0.595957
v 0.438124 -0.066560 1.377725
v 0.438124 -0.520159 1.109465
v 0.438124 0.359686 1.103787
v 0.438124 -0.518162 0.597012
v 0.864117 0.442887 0.174707
v 0.293662 0.652283 0.174707
v 0.352473 0.394083 -1.160871
v 0.493198 0.723701 -1.349366
v 0.494421 0.782376 -0.192703
v 0.740636 0.667617 1.034339
vn -0.7920 -0.5100 -0.3357
vn -0.6748 -0.5133 -0.5303
vn -0.7992 -0.5084 -0.3207
vn 0.3125 0.9498 0.0122
vn 0.2390 0.9708 -0.0190
vn 0.2292 0.9723 0.0463
vn 0.2085 0.9760 0.0627
vn 0.0914 0.5306 -0.8427
vn 0.9850 0.0758 0.1551
vn 0.9932 0.0121 0.1157
vn 0.9559 -0.2815 -0.0832
vn 0.9656 0.1095 0.2359
vn 0.2073 0.9738 0.0931
vn -0.8723 -0.4770 -0.1072
vn -0.0162 -0.6481 0.7613
vn -0.6076 -0.4131 0.6783
vn -0.4847 -0.5924 0.6435
vn -0.6228 -0.3140 0.7166
vn 0.4285 -0.2972 0.8532
vn 0.7304 -0.1924 0.6554
vn -0.4613 -0.1817 0.8684
vn 0.3412 0.4854 0.8050
vn 0.3649 0.4700 0.8037
vn 0.5960 -0.3452 -0.7250
vn 0.5194 -0.5279 -0.6720
vn -0.8791 0.1442 0.4542
vn -0.9168 0.1016 0.3862
vn -0.7199 0.5652 -0.4029
vn 0.4615 0.7195 -0.5190
vn 0.0356 0.7010 -0.7123
vn -0.7153 0.6723 -0.1908
vn 0.2102 0.9724 0.1011
vn 0.4627 0.7142 0.5251
vn -0.6379 0.6142 0.4647
vn -0.1027 0.4011 0.9103
vn -0.9948 0.0601 0.0821
vn 0.5369 0.8383 0.0951
vn 0.2505 -0.6952 -0.6738
vn -0.1114 -0.9377 -0.3290
vn -0.7357 -0.6476 -0.1983
vn -0.1627 -0.9757 0.1467
vn -0.7439 -0.6678 0.0260
vn -0.1504 0.5069 0.8488
vn -0.1516 0.4849 0.8613
vn -0.1515 0.4866 0.8604
vn -0.1526 0.4672 0.8709
vn 0.9365 0.3500 0.0203
vn 0.6085 -0.7912 0.0611
vn 0.5410 -0.8144 0.2098
vn 0.9244 -0.3562 0.1364
vn 0.9547 -0.2744 0.1154
vn -0.0152 -0.9998 -0.0157
vn 0.0074 -0.9997 -0.0238
vn -0.0117 0.9985 0.0526
vn 0.0193 0.9997 0.0129
vn -0.9749 -0.1930 -0.1109
vn -0.9690 -0.2125 -0.1263
vn -0.6771 0.0375 -0.7349
vn -1.0000 0.0007 0.0020
vn -0.6680 0.6660 -0.3319
vn -0.0357 0.2469 0.9684
vn -0.6714 -0.0342 0.7404
vn -0.0000 -0.7157 0.6984
vn -0.6746 -0.6559 0.3387
vn -0.0000 0.9700 0.2432
vn -0.6682 0.6371 0.3843
vn -0.0000 -0.2125 -0.9772
vn -0.6800 -0.6197 -0.3920
vn -0.0280 -0.9565 -0.2903
vn -0.2408 0.9642 -0.1115
vn -0.3399 0.9260 -0.1641
vn -0.1820 0.9776 -0.1054
vn -0.1624 0.9829 -0.0869
vn -0.2394 0.9695 -0.0518
vn -0.2762 0.9599 -0.0490
vn -0.3645 0.9297 -0.0533
vn -0.3097 0.9489 -0.0612
vn -0.3732 0.2408 -0.8960
vn -0.0598 -0.4139 -0.9084
vn -0.3044 0.0666 -0.9502
vn 0.0833 -0.6292 -0.7728
vn -0.0416 -0.3726 0.9271
vn -0.1348 -0.2658 0.9546
vn -0.1086 -0.4102 0.9055
vn -0.3562 -0.9066 0.2262
vn -0.2265 -0.9620 0.1525
vn -0.0428 -0.9126 0.4065
vn -0.8155 0.5739 -0.0750
vn -0.4308 -0.8895 -0.1524
vn -0.8201 -0.5716 -0.0253
vn -0.0508 -0.9984 -0.0241
vn 0.3609 0.7660 -0.5319
vn 0.8112 0.0462 -0.5829
vn -0.0232 0.0262 -0.9994
vn 0.2322 -0.7640 -0.6020
vn -0.1064 -0.1115 0.9881
vn -0.4420 -0.8969 0.0158
vn -0.5307 -0.8475 -0.0101
vn -0.2644 -0.7513 -0.6046
vn -0.0000 -0.8127 -0.5827
vn -0.0597 -0.8125 -0.5799
vn -0.1075 -0.7966 -0.5949
vn -0.3738 0.9275 0.0087
vn -0.4255 0.6786 -0.5987
vn -0.3528 0.9324 0.0786
vn -0.3258 0.9391 0.1093
vn -0.1552 -0.9720 0.1762
vn -0.0000 -0.9475 0.3197
vn -0.0000 -0.8893 0.4574
vn -0.2589 -0.9659 0.0010
vn -0.5883 -0.2521 0.7683
vn 0.8416 0.1572 0.5166
vn 0.9799 -0.0327 -0.1966
vn 0.9755 0.2063 -0.0758
vn 0.9524 -0.2532 -0.1699
vn 0.3863 -0.9017 -0.1944
vn 0.4500 -0.8735 -0.1857
vn 0.4667 -0.8655 -0.1817
vn -0.8897 -0.4057 -0.2093
vn -0.9204 -0.3494 -0.1755
vn -0.9070 -0.3753 -0.1909
vn -0.9375 -0.3126 -0.1530
vn 0.0048 0.9862 -0.1653
vn 0.1281 0.9881 -0.0856
vn 0.0597 -0.8125 -0.5799
vn -0.3608 0.7661 -0.5319
vn 0.0508 -0.9984 -0.0241
vn 0.7920 -0.5100 -0.3357
vn 0.7985 -0.5091 -0.3212
vn 0.6748 -0.5133 -0.5303
vn -0.3125 0.9498 0.0122
vn -0.2292 0.9723 0.0463
vn -0.2390 0.9708 -0.0190
vn -0.2085 0.9760 0.0628
vn -0.0914 0.5306 -0.8427
vn -0.9850 0.0757 0.1551
vn -0.9559 -0.2815 -0.0832
vn -0.9932 0.0121 0.1157
vn -0.9656 0.1095 0.2359
vn -0.2073 0.9738 0.0931
vn 0.8723 -0.4770 -0.1072
vn 0.0162 -0.6481 0.7613
vn 0.4847 -0.5924 0.6435
vn 0.6076 -0.4131 0.6783
vn 0.6228 -0.3140 0.7166
vn -0.4285 -0.2972 0.8532
vn 0.4613 -0.1817 0.8684
vn -0.7304 -0.1924 0.6554
vn -0.3422 0.4844 0.8051
vn -0.5930 -0.3451 -0.7275
vn -0.3531 0.4808 0.8026
vn -0.5212 -0.5275 -0.6709
vn 0.8752 0.1458 0.4613
vn 0.9171 0.1005 0.3859
vn 0.7199 0.5652 -0.4029
vn -0.0623 0.7373 -0.6727
vn -0.4611 0.7196 -0.5192
vn 0.7116 0.6784 -0.1827
vn -0.2102 0.9724 0.1011
vn -0.4627 0.7143 0.5251
vn 0.1092 0.4046 0.9079
vn 0.7399 0.5706 0.3564
vn 0.9948 0.0601 0.0821
vn -0.5378 0.8376 0.0960
vn -0.2075 -0.7278 -0.6537
vn 0.7357 -0.6477 -0.1983
vn 0.0244 -0.9300 -0.3667
vn 0.7439 -0.6678 0.0260
vn 0.1616 -0.9763 0.1442
vn 0.1504 0.5069 0.8488
vn 0.1515 0.4866 0.8604
vn 0.1516 0.4850 0.8613
vn 0.1526 0.4672 0.8709
vn -0.9359 0.3508 0.0314
vn -0.6079 -0.7924 0.0500
vn -0.5410 -0.8144 0.2098
vn -0.9244 -0.3562 0.1364
vn 0.0167 -0.9998 -0.0147
vn -0.9556 -0.2762 0.1032
vn -0.0073 -0.9997 -0.0235
vn 0.0117 0.9985 0.0526
vn -0.0193 0.9997 0.0129
vn 0.9749 -0.1930 -0.1109
vn 0.9691 -0.2128 -0.1245
vn 0.6771 0.0375 -0.7349
vn 0.6680 0.6660 -0.3319
vn 1.0000 0.0007 0.0020
vn 0.6714 -0.0342 0.7404
vn 0.6746 -0.6559 0.3387
vn 0.6682 0.6371 0.3843
vn 0.6800 -0.6197 -0.3920
vn 0.2408 0.9642 -0.1115
vn 0.1820 0.9776 -0.1054
vn 0.3399 0.9260 -0.1641
vn 0.2394 0.9695 -0.0518
vn 0.1624 0.9829 -0.0869
vn 0.2762 0.9599 -0.0490
vn 0.3097 0.9489 -0.0612
vn 0.3645 0.9297 -0.0533
vn 0.3731 0.2406 -0.8960
vn 0.3043 0.0665 -0.9502
vn 0.0597 -0.4139 -0.9084
vn -0.0833 -0.6292 -0.7728
vn 0.1313 -0.4311 0.8927
vn 0.1086 -0.4102 0.9055
vn 0.1348 -0.2658 0.9546
vn 0.3562 -0.9066 0.2262
vn 0.2265 -0.9620 0.1525
vn 0.8151 0.5745 -0.0752
vn 0.8200 -0.5717 -0.0254
vn 0.4308 -0.8895 -0.1524
vn -0.8125 0.0457 -0.5812
vn 0.1064 -0.1115 0.9881
vn 0.4417 -0.8970 0.0158
vn 0.5307 -0.8475 -0.0101
vn 0.1075 -0.7967 -0.5948
vn 0.3738 0.9275 0.0086
vn 0.4255 0.6786 -0.5987
vn 0.3528 0.9324 0.0786
vn 0.3258 0.9391 0.1093
vn 0.1552 -0.9720 0.1762
vn 0.2589 -0.9659 0.0010
vn 0.5883 -0.2521 0.7683
vn -0.8416 0.1572 0.5166
vn -0.9799 -0.0327 -0.1966
vn -0.9755 0.2063 -0.0758
vn -0.9524 -0.2532 -0.1700
vn -0.3863 -0.9017 -0.1944
vn -0.4667 -0.8655 -0.1817
vn -0.4500 -0.8735 -0.1857
vn 0.8897 -0.4057 -0.2093
vn 0.9070 -0.3754 -0.1909
vn 0.9201 -0.3504 -0.1753
vn 0.9375 -0.3126 -0.1530
vn -0.0048 0.9862 -0.1653
vn -0.1281 0.9881 -0.0856
vt 0.403996 0.768061
vt 0.308967 0.765994
vt 0.474424 0.547945
vt 0.200217 -0.002067
vt 0.355679 -0.186372
vt 0.515625 -0.003100
vt 0.396612 -0.178789
vt 0.080370 0.046539
vt 0.003338 0.047096
vt 0.002055 0.137980
vt 1.023546 1.561029
vt 1.285444 1.284301
vt 0.894361 1.359722
vt 1.248482 1.561862
vt 1.266271 0.270833
vt 1.266271 0.020833
vt 0.995438 0.270833
vt 0.579427 0.764960
vt 0.942634 -0.402536
vt 0.917062 -0.401825
vt 1.100683 -0.455471
vt 1.091234 -0.480670
vt 1.409382 -0.194855
vt 0.909313 -0.368551
vt 0.899279 -0.408546
vt 0.848673 -0.191390
vt 0.110293 -0.449623
vt 0.110293 -0.723887
vt 0.182889 -0.542527
vt 0.185260 -0.723887
vt 0.080424 -0.449623
vt 0.079374 -0.723887
vt 0.103629 -0.449623
vt 0.102055 -0.723887
vt 0.004604 -0.542527
vt 0.004861 -0.723887
vt 0.073864 -0.449623
vt 0.073864 -0.723887
vt -0.365429 -0.714776
vt -0.489597 -0.695316
vt -0.489839 -0.798508
vt -0.484306 -0.594475
vt 0.995438 0.020833
vt 0.861272 -0.190340
vt -0.962519 -1.009073
vt -0.962519 -1.138560
vt -0.998122 -1.075243
vt -0.435239 -0.458791
vt -0.485220 -0.494604
vt -0.357107 -0.482960
vt -0.906727 -1.029907
vt -0.906727 -1.116894
vt -0.702615 -0.833438
vt -0.646744 -0.995146
vt -0.643962 -0.898619
vt -0.469264 -0.992834
vt -0.428045 -0.896329
vt -1.122409 0.566241
vt -1.122409 0.665555
vt -1.022235 0.566241
vt -1.022235 0.665555
vt -0.805519 -0.105879
vt -0.788280 -0.279702
vt -0.918898 -0.207769
vt -1.345123 -0.829624
vt -1.191938 -0.586358
vt -1.350275 -0.588553
vt -0.698510 -0.056959
vt -0.510125 -0.105559
vt -1.320063 -0.720129
vt -1.002621 -0.722344
vt -1.001788 -0.624818
vt -1.347426 0.461957
vt -1.025358 0.461957
vt -1.347426 0.410935
vt -1.025358 0.424163
vt -1.303874 0.519433
vt -1.042024 0.517662
vt 1.584130 0.663536
vt 1.604128 0.622469
vt 1.536489 0.631438
vt 1.569436 0.551853
vt 1.587681 0.586591
vt 1.649315 0.571026
vt 1.647309 0.610350
vt 1.507428 0.584170
vt 1.535651 0.602221
vt 1.626062 0.715028
vt 1.653942 0.662321
vt 1.682902 0.658645
vt 0.645833 0.395833
vt 0.645833 0.250000
vt 0.312725 0.249760
vt 0.312275 0.541667
vt 0.645833 0.541667
vt -1.468919 -0.166653
vt -1.054263 -0.164002
vt -1.472000 -0.005548
vt -1.364815 -0.714386
vt -1.010848 -0.720528
vt -1.366851 -0.465363
vt -1.007154 -0.468473
vt 0.986617 -0.662459
vt 0.613174 -0.592265
vt 0.613276 -0.718426
vt 1.009237 -0.436898
vt 1.008161 -0.725765
vt 1.267797 -0.316350
vt 1.273847 0.192924
vt 1.373578 0.048458
vt 1.279832 0.007048
vt 1.262325 -0.725852
vt 0.552053 -0.360997
vt 0.533270 -0.388345
vt 0.488811 -0.266441
vt 0.463302 -0.421438
vt 0.613026 -0.470219
vt 0.011420 0.494437
vt -0.030102 0.282924
vt 0.058959 0.489598
vt 0.073567 0.366832
vt 0.463286 -0.421438
vt 0.454396 0.250009
vt 0.643666 0.002892
vt 0.643666 0.291174
vt -0.824328 -0.004189
vt 1.508461 0.653867
vt -0.520293 -0.227283
vt -0.501600 -0.006165
vt 0.074477 0.303927
vt -0.348414 0.532947
vt -0.007749 0.351863
vt -0.006760 0.532863
vt -0.163649 0.343596
vt -0.286605 0.397230
vt 0.779924 -0.469481
vt -0.509204 -0.282737
vt -0.453662 -0.237230
vt 0.632091 1.406545
vt 0.793250 1.405777
vt 0.635858 1.277764
vt -0.986460 -0.449000
vt -0.941247 -0.214581
vt -0.527410 -0.448799
vt 0.005018 0.544047
vt 0.006279 0.765994
vt 0.001320 -0.156004
vt 0.002354 -0.004134
vt 0.275362 0.004523
vt 0.643617 0.003856
vt 0.454395 0.250008
vt 0.552190 -0.360997
vt 0.971880 -0.707779
vt 0.948447 -0.416143
vt 0.924988 -0.707779
vt 1.023577 1.561029
vt 0.894392 1.359722
vt 1.285475 1.284301
vt 1.248513 1.561862
vt 0.942642 -0.402390
vt 1.100691 -0.455325
vt 0.917070 -0.401679
vt 1.091242 -0.480524
vt 1.409390 -0.194709
vt 0.909321 -0.368405
vt 0.848681 -0.191244
vt 0.899287 -0.408400
vt -0.365296 -0.714776
vt -0.489706 -0.798508
vt -0.489464 -0.695316
vt -0.484172 -0.594475
vt 0.861280 -0.190194
vt -0.998099 -1.075244
vt -0.435106 -0.458791
vt -0.356974 -0.482960
vt -0.485087 -0.494604
vt -0.702482 -0.833438
vt -0.643829 -0.898619
vt -0.646611 -0.995145
vt -0.427912 -0.896329
vt -0.469131 -0.992834
vt -0.805532 -0.105878
vt -0.918910 -0.207769
vt -0.788293 -0.279702
vt -1.345136 -0.829624
vt -1.350288 -0.588553
vt -1.191951 -0.586358
vt -0.698523 -0.056958
vt -0.510138 -0.105559
vt -1.320076 -0.720129
vt -1.303895 0.519433
vt -1.042024 0.517662
vt 1.584151 0.663536
vt 1.536510 0.631438
vt 1.604149 0.622469
vt 1.569457 0.551853
vt 1.649336 0.571026
vt 1.587702 0.586591
vt 1.647330 0.610350
vt 1.507449 0.584170
vt 1.535672 0.602221
vt 1.653963 0.662321
vt 1.626083 0.715028
vt 1.682923 0.658645
vt -1.468919 -0.166653
vt -1.054263 -0.164002
vt -1.364815 -0.714394
vt -1.366851 -0.465360
vt -1.010848 -0.720525
vt -1.007154 -0.468518
vt 0.986617 -0.662459
vt 0.613276 -0.718425
vt 0.613174 -0.592264
vt 1.009230 -0.436618
vt 1.267790 -0.316069
vt 1.008154 -0.725485
vt 1.273965 0.192941
vt 1.279950 0.007065
vt 1.373696 0.048475
vt 1.262359 -0.725571
vt 0.532413 -0.388345
vt 0.613026 -0.470219
vt 0.454396 0.250008
vt 0.275398 0.291981
vt 0.275369 0.004543
vt 1.508482 0.653867
vt 0.074477 0.303927
vt -0.348414 0.532947
vt -0.453675 -0.237230
vt 0.632122 1.406545
vt 0.793281 1.405777
vt 0.635889 1.277764
vt -0.986480 -0.449000
vt -0.527431 -0.448799
vt -0.941268 -0.214581
s 1
usemtl material
f 9/1/1 10/2/2 8/3/3
f 3/4/4 10/5/5 4/6/6
f 4/6/6 10/5/5 9/7/7
f 54/8/8 55/9/8 56/10/8
f 4/11/9 2/12/10 1/13/11
f 11/14/12 2/12/10 4/11/9
f 9/15/7 12/16/13 4/17/6
f 9/1/1 8/3/3 12/18/14
f 2/19/15 18/20/16 8/21/17
f 8/22/17 18/20/16 12/23/18
f 17/24/19 2/25/20 11/26/21
f 17/27/22 15/28/23 2/29/24
f 2/29/24 15/28/23 16/30/25
f 18/31/26 13/32/27 17/33/22
f 17/33/22 13/32/27 15/34/23
f 2/35/24 16/36/25 18/37/26
f 13/38/27 18/37/26 16/36/25
f 14/39/28 16/40/29 23/41/30
f 13/42/31 16/40/29 14/39/28
f 4/17/6 12/16/13 11/43/32
f 12/23/18 18/20/16 11/44/21
f 11/26/21 18/20/16 17/24/19
f 22/45/33 19/46/34 21/47/35
f 21/48/35 19/49/34 20/50/36
f 20/50/36 19/49/34 14/39/28
f 14/39/28 19/49/34 13/42/31
f 22/45/33 15/51/37 19/46/34
f 19/46/34 15/51/37 13/52/31
f 23/53/38 24/54/39 14/55/40
f 14/55/40 26/56/41 20/57/42
f 28/58/43 29/59/44 31/60/45
f 31/60/45 29/59/44 30/61/46
f 16/62/29 25/63/47 23/64/30
f 23/65/38 25/66/48 24/67/39
f 16/62/29 15/68/37 25/63/47
f 15/68/37 22/69/33 25/63/47
f 24/54/39 26/56/41 14/55/40
f 25/70/48 27/71/49 24/67/39
f 24/67/39 27/71/49 26/72/41
f 27/73/50 29/74/51 26/75/52
f 26/75/52 29/74/51 28/76/53
f 27/73/50 21/77/54 29/74/51
f 29/74/51 21/77/54 30/78/55
f 20/73/56 31/74/57 21/77/54
f 21/77/54 31/74/57 30/78/55
f 26/75/52 28/76/53 20/73/56
f 20/73/56 28/76/53 31/74/57
f 41/79/58 44/80/59 40/81/60
f 37/82/61 38/83/62 36/84/63
f 36/84/63 38/83/62 43/85/64
f 32/86/65 39/87/66 37/82/61
f 37/82/61 39/87/66 38/83/62
f 39/87/66 32/86/65 40/81/60
f 41/79/58 34/88/67 42/89/68
f 42/89/68 34/88/67 35/90/69
f 42/89/68 35/90/69 43/85/64
f 43/85/64 35/90/69 36/84/63
f 43/85/64 38/83/62 44/80/59
f 44/80/59 38/83/62 39/87/66
f 44/80/59 39/87/66 40/81/60
f 42/89/68 44/80/59 41/79/58
f 43/85/64 44/80/59 42/89/68
f 6/91/70 46/92/71 5/93/72
f 6/91/70 3/94/73 4/95/74
f 48/96/75 49/97/76 50/98/77
f 7/99/78 1/100/79 5/101/80
f 5/101/80 1/100/79 3/102/81
f 34/103/82 6/104/83 4/105/84
f 4/106/85 1/107/86 34/108/87
f 5/93/72 3/94/73 6/91/70
f 5/109/88 46/110/89 45/111/90
f 1/107/86 7/112/91 34/108/87
f 7/113/92 5/114/93 47/115/94
f 47/115/94 5/114/93 45/116/95
f 6/104/83 34/103/82 46/117/96
f 45/118/90 46/119/89 48/120/97
f 48/120/97 46/119/89 49/121/98
f 58/122/99 47/115/94 45/116/95
f 50/123/100 45/124/101 48/125/102
f 50/98/77 49/97/76 51/126/103
f 40/81/60 32/86/65 33/127/104
f 40/81/60 33/127/104 41/79/58
f 41/79/58 33/127/104 34/88/67
f 49/97/76 53/128/105 51/126/103
f 53/128/105 52/129/106 51/126/103
f 49/121/98 46/119/89 53/130/107
f 53/131/107 32/132/108 52/133/109
f 33/134/110 53/131/107 46/135/89
f 33/136/111 46/117/96 34/103/82
f 32/132/108 53/131/107 33/134/110
f 25/63/47 22/69/33 27/137/112
f 27/137/112 22/69/33 21/138/35
f 54/139/113 3/140/114 1/13/11
f 2/12/10 55/141/115 1/13/11
f 1/13/11 55/141/115 54/139/113
f 55/142/116 2/143/117 8/144/118
f 55/145/119 8/3/120 56/146/121
f 8/3/120 10/2/122 56/146/121
f 56/147/123 10/5/5 54/148/124
f 54/148/124 10/5/5 3/4/4
f 58/149/125 45/150/101 50/151/100
f 47/115/94 57/152/126 7/113/92
f 57/153/127 34/154/87 7/155/91
f 59/1/128 61/3/129 60/2/130
f 62/4/131 63/6/132 60/5/133
f 63/6/132 59/7/134 60/5/133
f 64/8/135 66/10/135 65/9/135
f 63/156/136 68/157/137 67/158/138
f 69/159/139 63/156/136 67/158/138
f 59/15/134 63/17/132 70/16/140
f 59/1/128 70/18/141 61/3/129
f 67/160/142 61/161/143 71/162/144
f 61/163/143 70/164/145 71/162/144
f 72/165/146 69/166/147 67/167/148
f 72/27/149 67/29/150 73/28/151
f 67/29/150 74/30/152 73/28/151
f 71/31/153 72/33/149 75/32/154
f 72/33/149 73/34/151 75/32/154
f 67/35/150 71/37/153 74/36/152
f 75/38/154 74/36/152 71/37/153
f 76/168/155 77/169/156 74/170/157
f 75/171/158 76/168/155 74/170/157
f 63/17/132 69/43/159 70/16/140
f 70/164/145 69/172/147 71/162/144
f 69/166/147 72/165/146 71/162/144
f 78/45/160 80/173/161 79/46/162
f 80/174/161 81/175/163 79/176/162
f 81/175/163 76/168/155 79/176/162
f 76/168/155 75/171/158 79/176/162
f 78/45/160 79/46/162 73/51/164
f 79/46/162 75/52/158 73/51/164
f 77/177/165 76/178/166 82/179/167
f 76/178/166 81/180/168 83/181/169
f 84/58/170 86/60/171 85/59/172
f 86/60/171 87/61/173 85/59/172
f 74/182/157 77/183/156 88/184/174
f 77/185/165 82/186/167 88/187/175
f 74/182/157 88/184/174 73/188/164
f 73/188/164 88/184/174 78/189/160
f 82/179/167 76/178/166 83/181/169
f 88/190/175 82/186/167 89/71/176
f 82/186/167 83/72/169 89/71/176
f 89/73/177 83/75/178 85/74/179
f 83/75/178 84/76/180 85/74/179
f 89/73/177 85/74/179 80/191/181
f 85/74/179 87/192/182 80/191/181
f 81/73/183 80/191/181 86/74/184
f 80/191/181 87/192/182 86/74/184
f 83/75/178 81/73/183 84/76/180
f 81/73/183 86/74/184 84/76/180
f 90/193/185 92/194/186 91/195/187
f 37/196/61 36/197/63 93/198/188
f 36/197/63 94/199/189 93/198/188
f 32/200/65 37/196/61 95/201/190
f 37/196/61 93/198/188 95/201/190
f 95/201/190 92/194/186 32/200/65
f 90/193/185 96/202/191 34/203/67
f 96/202/191 35/204/69 34/203/67
f 96/202/191 94/199/189 35/204/69
f 94/199/189 36/197/63 35/204/69
f 94/199/189 91/195/187 93/198/188
f 91/195/187 95/201/190 93/198/188
f 91/195/187 92/194/186 95/201/190
f 96/202/191 90/193/185 91/195/187
f 94/199/189 96/202/191 91/195/187
f 97/91/192 99/93/193 98/92/194
f 97/91/192 63/95/195 62/94/196
f 100/205/197 50/98/198 101/206/199
f 57/207/200 99/208/201 68/209/202
f 99/208/201 62/210/203 68/209/202
f 34/211/204 63/212/205 97/213/206
f 63/214/207 34/215/87 68/216/208
f 99/93/193 97/91/192 62/94/196
f 99/217/209 58/218/210 98/219/211
f 68/216/208 34/215/87 57/220/127
f 57/152/126 47/115/94 99/221/212
f 47/115/94 58/122/99 99/221/212
f 97/213/206 98/222/213 34/211/204
f 58/118/210 100/120/214 98/119/211
f 100/120/214 101/121/215 98/119/211
f 50/223/100 100/224/216 58/225/125
f 50/98/198 51/126/217 101/206/199
f 92/194/186 33/226/218 32/200/65
f 92/194/186 90/193/185 33/226/218
f 90/193/185 34/203/67 33/226/218
f 101/206/199 51/126/217 102/128/219
f 102/128/219 51/126/217 52/129/220
f 101/121/215 102/227/221 98/119/211
f 102/228/221 52/133/109 32/132/108
f 33/134/222 98/135/211 102/228/221
f 33/136/223 34/211/204 98/222/213
f 32/132/108 33/134/222 102/228/221
f 88/184/174 89/137/224 78/189/160
f 89/137/224 80/229/161 78/189/160
f 64/230/225 68/157/137 62/231/226
f 67/158/138 68/157/137 65/232/227
f 68/157/137 64/230/225 65/232/227
f 65/233/228 61/234/229 67/235/230
f 65/145/231 66/146/232 61/3/233
f 61/3/233 66/146/232 60/2/234
f 66/147/235 64/148/236 60/5/133
f 64/148/236 62/4/131 60/5/133
